<?xml version="1.0" encoding="UTF-8"?>
<svg width="126px" height="36px" viewBox="0 0 126 36" version="1.1" xmlns="http://www.w3.org/2000/svg" xmlns:xlink="http://www.w3.org/1999/xlink">
    <!-- Generator: Sketch 45.1 (43504) - http://www.bohemiancoding.com/sketch -->
    <title>Paelon</title>
    <desc>Created with Sketch.</desc>
    <defs>
        <polygon id="path-1" points="13.2827546 17.2630088 13.2827546 0.327406992 0.0935064327 0.327406992 0.0935064327 17.2630088 13.2827546 17.2630088"></polygon>
    </defs>
    <g id="Page-1" stroke="none" stroke-width="1" fill="none" fill-rule="evenodd" opacity="0.428894928">
        <g id="Desktop-HD-Copy-5" transform="translate(-268.000000, -682.000000)">
            <g id="Clients-logos" transform="translate(268.000000, 672.000000)">
                <g id="Paelon" transform="translate(0.000000, 10.000000)">
                    <g id="Group-3" transform="translate(15.240742, 0.287871)" fill="#C1C1C1">
                        <path d="M0.21727022,8.25918204 C-0.0516840446,9.90294086 0.119550171,11.5632852 0.676285499,13.0878076 L0.768178206,13.3312112 L4.13772689,22.1856339 L13.0038042,18.8456702 L13.2467596,18.7537775 C14.7578343,18.1611816 16.1151568,17.1898084 17.168561,15.8997244 C17.6925736,15.2605098 18.1453133,14.5401606 18.5007811,13.7512281 C20.6869311,8.90063796 18.5317109,3.19925581 13.6811207,1.01265763 C8.83411661,-1.17169925 3.13094142,0.987555235 0.94434325,5.83859366 C0.588875363,6.62707791 0.34905781,7.4433541 0.21727022,8.25918204" id="Fill-1"></path>
                    </g>
                    <path d="M6.55670155,26.1755704 C7.8875769,26.3934233 9.23189997,26.2549119 10.4659518,25.8039653 L10.6627367,25.7295546 L17.8312643,23.0014618 L15.1273775,15.823969 L15.0529668,15.6267359 C14.5733317,14.4038905 13.7870887,13.304764 12.7422014,12.4517308 C12.2249127,12.0276795 11.6417302,11.6610052 11.0029638,11.3732242 C7.07578328,9.60350511 2.46007983,11.3481218 0.689912515,15.2753023 C-1.07846178,19.199345 0.669740945,23.8168415 4.59692147,25.5870088 C5.23523959,25.8747899 5.89597057,26.0688852 6.55670155,26.1755704" id="Fill-4" fill="#C1C1C1"></path>
                    <path d="M20.3983431,31.5831648 C20.5350616,30.7476136 20.4480997,29.9035455 20.1648012,29.1285089 L20.1181824,29.00479 L18.405392,24.5038403 L13.8981668,26.20139 L13.7748961,26.248457 C13.0065834,26.5492375 12.3167157,27.0432169 11.7810485,27.699017 C11.5147838,28.0240034 11.2848279,28.3902295 11.103732,28.7909713 C9.99250263,31.2572819 11.088043,34.1552641 13.5539054,35.2669418 C16.0179747,36.3772746 18.9173016,35.279493 20.028531,32.8136306 C20.2091786,32.4128887 20.3315528,31.9978027 20.3983431,31.5831648" id="Fill-6" fill="#C1C1C1"></path>
                    <path d="M29.2462212,21.654494 C28.1627838,21.4774325 27.0690365,21.589945 26.0644923,21.9570676 L25.9040162,22.0175823 L20.0695017,24.2377997 L22.2704441,30.0799346 L22.3309588,30.2404107 C22.7213908,31.2359897 23.3615019,32.1302626 24.2118457,32.8246129 C24.6327591,33.1697709 25.1074634,33.4678619 25.6269933,33.7023003 C28.8235148,35.1429987 32.5803576,33.7229201 34.0210559,30.5263987 C35.4608578,27.3325668 34.0376415,23.5743792 30.8415683,22.1336809 C30.32159,21.8992424 29.7836815,21.7414559 29.2462212,21.654494" id="Fill-8" fill="#C1C1C1"></path>
                    <path d="M43.8352867,11.228975 L49.1861318,11.228975 C50.4981804,11.1998383 51.6147888,11.5983389 52.4032731,12.3715824 C53.1379665,13.0919316 53.5593282,14.126509 53.5593282,15.2086016 C53.5593282,17.1742091 52.2042469,19.1572985 49.1771667,19.1572985 L43.8352867,19.1572985 L43.8352867,11.228975 Z M49.1771667,7.73122482 L40.3689145,7.73122482 L40.3689145,30.5506494 L43.8352867,30.5506494 L43.8352867,22.6546005 L49.2080964,22.6546005 C54.5795613,22.6546005 57.0257004,18.7951068 57.0257004,15.2086016 C57.0257004,10.299738 53.0774518,7.73122482 49.1771667,7.73122482 L49.1771667,7.73122482 Z" id="Fill-10" fill="#C1C1C1"></path>
                    <path d="M64.1637914,22.5925617 C65.3906711,22.5925617 66.5722768,22.8884114 67.3074185,23.1192638 L67.3074185,27.5955593 C66.2598416,27.7829307 65.0665812,27.8613757 63.6760877,27.8273082 C61.9395396,27.7986197 60.7727264,26.6349443 60.7727264,24.9369464 C60.794691,23.2936358 61.8090968,22.5925617 64.1637914,22.5925617 M64.1637914,13.3974636 C61.8942657,13.3974636 59.6399807,14.3903531 58.134285,16.053387 L57.8424697,16.3756838 L60.215991,18.6622434 L60.5221507,18.2718114 C61.2774639,17.3080586 62.6016154,16.7096354 63.9777647,16.7096354 C65.6349712,16.7096354 67.3074185,17.4232607 67.3074185,19.0168147 L67.3074185,19.9603959 C66.3562169,19.5390343 65.2969854,19.3122162 64.2565806,19.3122162 C60.010241,19.3122162 57.4583133,21.4109559 57.4300731,24.931119 C57.4300731,28.4234901 59.9681049,30.8871112 63.599884,30.9220753 C63.6935697,30.92342 63.7868072,30.9243165 63.8804929,30.9243165 C66.0702289,30.9238683 68.2554823,30.5509184 70.3797727,29.8130872 L70.6810015,29.7086433 L70.6810015,19.0168147 C70.6810015,15.1559763 67.3024877,13.3974636 64.1637914,13.3974636" id="Fill-12" fill="#C1C1C1"></path>
                    <path d="M80.048051,16.6474621 C81.702568,16.6474621 83.3772565,17.4610488 83.3772565,19.0169492 L83.3772565,20.8597342 L76.7807049,20.8597342 L76.7807049,19.0720848 C76.7712915,18.4817302 76.9658351,17.9796823 77.3589566,17.5802852 C77.9336222,16.9957579 78.9390629,16.6474621 80.048051,16.6474621 M80.048051,13.3048089 C76.8344958,13.3048089 73.3761922,15.1117333 73.3761922,19.0792569 L73.3761922,25.1477617 C73.3761922,27.9287488 75.4637255,30.9222097 80.048051,30.9222097 C82.778385,30.9222097 85.2469369,29.4357892 86.3362017,27.1353337 L86.5240214,26.7390744 L83.4803557,25.2172415 L83.2911912,25.6498096 C82.6676655,27.0739225 81.1543495,27.5795565 80.048051,27.5795565 C78.9390629,27.5795565 77.9336222,27.2308125 77.3589566,26.6467334 C76.9658351,26.2473364 76.7712915,25.7452884 76.7807049,25.1549338 L76.7807049,23.8312305 L86.6271206,23.8312305 L86.6271206,19.0792569 C86.6271206,15.1117333 83.2167805,13.3048089 80.048051,13.3048089" id="Fill-14" fill="#C1C1C1"></path>
                    <path d="M92.5407973,24.9932026 L92.5407973,8.01008557 L89.1672143,8.01008557 L89.1672143,24.9932026 C89.1672143,28.550571 91.372191,30.6744132 95.0649331,30.6744132 L95.5131902,30.6744132 L95.5131902,27.300382 L95.0649331,27.300382 C93.3431775,27.300382 92.5407973,26.5674816 92.5407973,24.9932026" id="Fill-16" fill="#C1C1C1"></path>
                    <path d="M100.126607,19.016994 C100.126607,17.0980053 102.199797,16.5856475 103.424883,16.5856475 C104.983922,16.5856475 106.661748,17.3463398 106.661748,19.016994 L106.661748,25.0550173 C106.661748,26.7467396 104.983922,27.5172936 103.424883,27.5172936 C101.83626,27.5172936 100.126607,26.7467396 100.126607,25.0550173 L100.126607,19.016994 Z M103.429814,13.2120645 L103.420401,13.2120645 C100.209535,13.244339 96.7530245,15.0745728 96.7530245,19.016994 L96.7530245,25.0550173 C96.7530245,28.9983351 100.209535,30.8281206 103.429366,30.8599468 C106.611095,30.8281206 110.034883,28.9983351 110.034883,25.0550173 L110.034883,19.016994 C110.034883,15.0745728 106.611095,13.244339 103.429814,13.2120645 L103.429814,13.2120645 Z" id="Fill-18" fill="#C1C1C1"></path>
                    <g id="Group-22" transform="translate(112.512534, 13.287327)">
                        <mask id="mask-2" fill="white">
                            <use xlink:href="#path-1"></use>
                        </mask>
                        <g id="Clip-21"></g>
                        <path d="M6.79674323,0.327406992 C4.57114668,0.327406992 2.20614218,1.05223874 0.394286952,1.68338474 L0.0935064327,1.78827691 L0.0935064327,17.2630088 L3.46753768,17.2630088 L3.46753768,4.18734895 C4.34163905,3.891051 5.59631069,3.60775251 6.79674323,3.60775251 C8.31050748,3.60775251 9.94037033,4.36889308 9.94037033,6.03909906 L9.94037033,17.2630088 L13.2830236,17.2630088 L13.2830236,6.03909906 C13.2830236,2.18498445 10.0295735,0.392852529 6.79674323,0.327406992" id="Fill-20" fill="#C1C1C1" mask="url(#mask-2)"></path>
                    </g>
                </g>
            </g>
        </g>
    </g>
</svg>