<?xml version="1.0" encoding="UTF-8"?>
<svg width="153px" height="36px" viewBox="0 0 153 36" version="1.1" xmlns="http://www.w3.org/2000/svg" xmlns:xlink="http://www.w3.org/1999/xlink">
    <!-- Generator: Sketch 45.1 (43504) - http://www.bohemiancoding.com/sketch -->
    <title>Lakeshore</title>
    <desc>Created with Sketch.</desc>
    <defs>
        <polygon id="path-1" points="0.394297165 29.1836147 32.15002 29.1836147 32.15002 0.25495867 0.394297165 0.25495867 0.394297165 29.1836147"></polygon>
        <polygon id="path-3" points="9.17734478 0.16236702 0.000115106619 0.16236702 0.000115106619 9.67795718 9.17734478 9.67795718 9.17734478 0.16236702"></polygon>
        <polygon id="path-5" points="9.48361355 13.9184618 9.48361355 0.21648936 0.513419374 0.21648936 0.513419374 13.9184618 9.48361355 13.9184618"></polygon>
    </defs>
    <g id="Page-1" stroke="none" stroke-width="1" fill="none" fill-rule="evenodd" opacity="0.428894928">
        <g id="Desktop-HD-Copy-5" transform="translate(-1023.000000, -681.000000)">
            <g id="Clients-logos" transform="translate(268.000000, 672.000000)">
                <g id="Lakeshore" transform="translate(755.000000, 9.000000)">
                    <g id="Group-3" transform="translate(1.591834, 6.205179)">
                        <mask id="mask-2" fill="white">
                            <use xlink:href="#path-1"></use>
                        </mask>
                        <g id="Clip-2"></g>
                        <path d="M0.984867404,0.25495867 L0.394297165,4.4722563 C0.394297165,4.4722563 8.80766797,14.0264411 17.9347108,17.3676997 C17.9347108,17.3676997 29.8320746,22.0126699 32.1137027,29.18388 C32.1954168,29.18388 32.1137027,12.2340366 32.1137027,12.2340366 C32.1137027,12.2340366 17.0385085,10.033592 10.6006031,6.69286407 C10.8648475,6.82657808 2.12568143,0.907079805 0.984867404,0.25495867" id="Fill-1" fill="#C1C1C1" mask="url(#mask-2)"></path>
                    </g>
                    <path d="M7.46607067,3.526548 L9.39165863,3.98552666 C9.39165863,3.98552666 13.6593643,9.89229028 13.5781808,12.5814277 C13.5781808,12.7390192 9.01439408,9.63812752 9.01439408,9.63812752 C9.01439408,9.63812752 9.17729172,6.70437833 7.46607067,3.526548" id="Fill-4" fill="#C1C1C1"></path>
                    <g id="Group-8" transform="translate(0.000000, 0.368456)">
                        <mask id="mask-4" fill="white">
                            <use xlink:href="#path-3"></use>
                        </mask>
                        <g id="Clip-7"></g>
                        <path d="M9.17734478,2.6691334 C9.17734478,2.6691334 -3.94254716,-6.2944812 1.19164658,9.67744581 C1.19164658,9.75862932 -0.356676832,0.14289359 9.17734478,2.6691334" id="Fill-6" fill="#C1C1C1" mask="url(#mask-4)"></path>
                    </g>
                    <path d="M10.4818524,20.2317797 L16.837513,24.1434452 L19.2820387,35.3886879 L11.377524,35.3886879 C11.377524,35.3886879 11.2591977,22.5977749 10.4818524,20.2317797" id="Fill-9" fill="#C1C1C1"></path>
                    <polygon id="Fill-11" fill="#C1C1C1" points="48.1748785 22.7307991 48.1748785 24.899407 39.500447 24.899407 39.500447 11.1974346 41.7873811 11.1974346 41.7873811 22.7307991"></polygon>
                    <path d="M55.330064,15.5349156 L53.4766392,19.7930703 L57.1638563,19.7930703 L55.330064,15.5349156 Z M52.5698247,21.8831478 L51.2491335,24.8991417 L48.7849752,24.8991417 L55.330064,10.8029252 L61.8162551,24.8991417 L59.3520968,24.8991417 L58.0505075,21.8831478 L52.5698247,21.8831478 Z" id="Fill-13" fill="#C1C1C1"></path>
                    <polygon id="Fill-15" fill="#C1C1C1" points="65.8166388 20.4632322 65.8166388 24.8991417 63.5297047 24.8991417 63.5297047 11.1971693 65.8166388 11.1971693 65.8166388 17.5851972 71.6523006 11.1971693 74.4910703 11.1971693 69.0894486 16.9739332 74.7871514 24.8991417 72.0661773 24.8991417 67.5517374 18.610338"></polygon>
                    <polygon id="Fill-17" fill="#C1C1C1" points="78.9648123 13.3663078 78.9648123 16.8359742 84.3865973 16.8359742 84.3865973 19.0045821 78.9648123 19.0045821 78.9648123 22.7305338 85.6483907 22.7305338 85.6483907 24.8991417 76.6778782 24.8991417 76.6778782 11.1971693 85.549697 11.1971693 85.549697 13.3663078"></polygon>
                    <path d="M91.8961251,18.610285 C89.7667824,17.8414294 88.7023764,16.4809423 88.7023764,14.5882522 C88.7023764,13.5042136 89.0966205,12.6366643 89.8851087,11.9665024 C90.6735969,11.2963405 91.6594725,10.9609942 92.8225722,10.9609942 C94.2026919,10.9609942 95.7796683,11.453932 97.5741953,12.4196444 L96.489626,14.3913955 C95.0506085,13.6023767 93.9071414,13.2081326 93.0788574,13.2081326 C92.349267,13.2081326 91.8372272,13.3662547 91.5215136,13.7010704 C91.2063305,14.0364166 91.0482084,14.3913955 91.0482084,14.766007 C91.0482084,15.4563321 91.4429831,15.9487393 92.251104,16.2639223 L94.9322822,17.3092264 C96.9432986,18.0977146 97.9488068,19.3595079 97.9488068,21.1338717 C97.9488068,22.3563999 97.5147668,23.3221122 96.6275849,24.0517026 C95.740403,24.7812929 94.6367318,25.1166392 93.31551,25.1166392 C92.6055522,25.1166392 91.7581662,24.9388845 90.7722906,24.6231708 C89.786415,24.2883552 88.8207027,23.8346826 87.8942556,23.2632144 L88.9782942,21.2914632 C90.7330254,22.3563999 92.2113081,22.8886029 93.4142036,22.8886029 C94.1039982,22.8886029 94.6367318,22.7113787 95.0113433,22.3760325 C95.3854242,22.0406862 95.5828115,21.6268095 95.5828115,21.1338717 C95.5828115,20.3650161 95.0506085,19.753752 94.0058351,19.3791406 L91.8961251,18.610285 Z" id="Fill-19" fill="#C1C1C1"></path>
                    <polygon id="Fill-21" fill="#C1C1C1" points="109.893926 24.8993539 109.893926 19.12259 102.934429 19.12259 102.934429 24.8993539 100.648026 24.8993539 100.648026 11.1973815 102.934429 11.1973815 102.934429 16.9539822 109.893926 16.9539822 109.893926 11.1973815 112.18086 11.1973815 112.18086 24.8993539"></polygon>
                    <path d="M121.642241,13.2673488 C120.360815,13.2673488 119.256613,13.740654 118.310533,14.6872643 C117.363923,15.633344 116.891148,16.7571785 116.891148,18.0778697 C116.891148,19.3794589 117.363923,20.5032934 118.2909,21.4690057 C119.217348,22.4347181 120.341182,22.9080232 121.642241,22.9080232 C122.864769,22.9080232 123.948807,22.4150855 124.91505,21.4493731 C125.881293,20.4831302 126.354068,19.3592957 126.354068,18.0778697 C126.354068,16.8755048 125.881293,15.7713029 124.934683,14.7657947 C123.988603,13.7608172 122.904034,13.2477162 121.662404,13.2477162 L121.642241,13.2673488 Z M121.662404,11.0005778 C123.534931,11.0005778 125.171336,11.6903724 126.59072,13.070492 C128.010105,14.4500811 128.720063,16.1066492 128.720063,18.0582371 C128.720063,19.2807652 128.40488,20.4237017 127.773983,21.508271 C127.143087,22.5928402 126.275537,23.4603895 125.171336,24.1305514 C124.067134,24.8007133 122.884401,25.116427 121.602975,25.116427 C119.67102,25.116427 118.014983,24.4261018 116.61523,23.0268801 C115.215478,21.6265972 114.525153,19.9509272 114.525153,18.0189719 C114.525153,16.0668533 115.215478,14.4108159 116.575435,13.0312268 C117.935922,11.6511071 119.611592,10.960782 121.602975,10.960782 L121.662404,11.0005778 Z" id="Fill-23" fill="#C1C1C1"></path>
                    <path d="M133.134324,17.0723085 L136.328072,17.0723085 C137.077295,17.0723085 137.648764,16.9147169 138.043008,16.5990033 C138.437782,16.2843509 138.634639,15.8301477 138.634639,15.2390469 C138.634639,14.6872112 138.437782,14.2335387 138.023375,13.898723 C137.609498,13.5633768 137.037499,13.3861526 136.288807,13.3861526 L133.153956,13.3861526 L133.134324,17.0723085 Z M136.288807,11.2170141 C137.648764,11.2170141 138.752965,11.571993 139.620515,12.3015834 C140.488064,13.0311737 140.921573,13.9968861 140.921573,15.2194142 C140.921573,16.1262287 140.665288,16.9147169 140.133085,17.6050421 C139.600882,18.2948366 138.969985,18.7676112 138.240395,19.0440596 L141.296185,24.8993539 L138.694068,24.8993539 L135.756073,19.2016511 L133.173589,19.2016511 L133.173589,24.8993539 L130.92592,24.8993539 L130.92592,11.1973815 L136.288807,11.2170141 Z" id="Fill-25" fill="#C1C1C1"></path>
                    <g id="Group-29" transform="translate(143.265018, 10.980680)">
                        <mask id="mask-6" fill="white">
                            <use xlink:href="#path-5"></use>
                        </mask>
                        <g id="Clip-28"></g>
                        <polygon id="Fill-27" fill="#C1C1C1" mask="url(#mask-6)" points="2.80035354 2.38562785 2.80035354 5.85529433 8.22213854 5.85529433 8.22213854 8.0239022 2.80035354 8.0239022 2.80035354 11.7498539 9.48393191 11.7498539 9.48393191 13.9184618 0.513419374 13.9184618 0.513419374 0.21648936 9.38523824 0.21648936 9.38523824 2.38562785"></polygon>
                    </g>
                </g>
            </g>
        </g>
    </g>
</svg>