<?xml version="1.0" encoding="utf-8"?>
<!-- Generator: Adobe Illustrator 19.0.0, SVG Export Plug-In . SVG Version: 6.00 Build 0)  -->
<svg version="1.1" id="Layer_1" xmlns="http://www.w3.org/2000/svg" xmlns:xlink="http://www.w3.org/1999/xlink" x="0px" y="0px"
	 viewBox="0 0 751.7 131.7" style="enable-background:new 0 0 751.7 131.7;" xml:space="preserve">
<style type="text/css">
	.st0{fill:#FFFFFF;}
</style>
<g id="XMLID_1_" opacity="0.428894928">
	<g id="XMLID_2_">
		<circle id="XMLID_3_" class="st0" cx="141.1" cy="37.6" r="9.6"/>
		<path id="XMLID_15_" class="st0" d="M89.5,125.3L89.5,125.3l0.1,0l0.1-0.1l80.3-19.1l-19.5-56.7l0.1-0.1c0,0-0.1,0-0.1,0l0,0
			c0,0,0,0,0,0c-16.5,4.7-33.9-1.9-40.5-4.8V37H96.5V23.5H82.5V37H69v7.5c-6.5,3-23.9,9.6-40.5,4.8c0,0,0,0,0,0l0,0c0,0-0.1,0-0.1,0
			l0.1,0.1L8.9,106.1l80.3,19.1l0.1,0.1l0.1-0.1L89.5,125.3l-0.2,0L89.5,125.3l0.1,0L89.5,125.3z M89.9,125.1l1.3-1.2l55.6-42.6
			l13.1,14.9L89.9,125.1z M69,48.8v2.3h13.5v13.5h14.1V51.1H110v-2.3c6.7,6.7,23.8,11.4,29.6,12.8c-13.8,15.5-37.4,41.4-50.1,52.2
			C76.7,103,53.2,77.1,39.4,61.6C45.2,60.2,62.3,55.5,69,48.8z M19.1,96.2l13.1-14.9l55.6,42.6l1.3,1.2L19.1,96.2z M89.5,125.2
			L89.5,125.2L89.5,125.2L89.5,125.2L89.5,125.2z"/>
		<circle id="XMLID_19_" class="st0" cx="37.9" cy="37.6" r="9.6"/>
		<circle id="XMLID_20_" class="st0" cx="89" cy="14.8" r="6.6"/>
	</g>
	<g id="XMLID_38_">
		<path id="XMLID_39_" class="st0" d="M224,101.7h-17.8c-2.6,0-4.4-0.6-5.5-1.7c-1.1-1.2-1.6-3-1.6-5.5V50.7c0-2.6,0.6-4.4,1.7-5.5
			s2.9-1.7,5.5-1.7h18.9c2.8,0,5.2,0.2,7.2,0.5c2,0.3,3.9,1,5.5,2c1.4,0.8,2.6,1.9,3.7,3.1c1.1,1.3,1.9,2.6,2.4,4.2
			c0.6,1.5,0.8,3.1,0.8,4.8c0,5.8-2.9,10.1-8.7,12.8c7.7,2.4,11.5,7.2,11.5,14.2c0,3.3-0.8,6.2-2.5,8.8c-1.7,2.6-3.9,4.5-6.8,5.8
			c-1.8,0.7-3.8,1.3-6.1,1.6C229.7,101.6,227.1,101.7,224,101.7z M210.8,52.4v15.1h10.8c2.9,0,5.2-0.3,6.8-0.8
			c1.6-0.6,2.8-1.6,3.7-3.2c0.7-1.1,1-2.4,1-3.7c0-2.9-1-4.9-3.1-5.9c-2.1-1-5.3-1.4-9.6-1.4H210.8z M223.1,75.9h-12.3v17h12.7
			c8,0,12-2.9,12-8.6c0-2.9-1-5.1-3.1-6.4C230.3,76.5,227.2,75.9,223.1,75.9z"/>
		<path id="XMLID_43_" class="st0" d="M273.5,76.8h-4.1v18.7c0,2.5-0.5,4.3-1.6,5.4c-1.1,1.2-2.5,1.7-4.3,1.7
			c-1.9,0-3.3-0.6-4.4-1.8s-1.5-3-1.5-5.4V50.7c0-2.5,0.6-4.4,1.7-5.5c1.1-1.1,3-1.7,5.5-1.7H284c2.6,0,4.9,0.1,6.8,0.3
			c1.9,0.2,3.6,0.7,5.1,1.4c1.8,0.8,3.4,1.9,4.8,3.3c1.4,1.4,2.5,3.1,3.2,5c0.7,1.9,1.1,3.9,1.1,6c0,4.3-1.2,7.8-3.7,10.4
			c-2.4,2.6-6.2,4.4-11.1,5.5c2.1,1.1,4.1,2.8,6,4.9s3.6,4.5,5.1,6.9c1.5,2.4,2.7,4.7,3.5,6.6c0.8,2,1.3,3.3,1.3,4.1
			c0,0.8-0.2,1.5-0.7,2.3c-0.5,0.8-1.2,1.4-2,1.8c-0.8,0.4-1.8,0.7-2.9,0.7c-1.3,0-2.4-0.3-3.3-0.9s-1.7-1.4-2.3-2.4
			c-0.6-1-1.5-2.4-2.6-4.2l-4.7-7.9c-1.7-2.9-3.2-5.1-4.5-6.6c-1.3-1.5-2.7-2.5-4.1-3.1C277.3,77.1,275.6,76.8,273.5,76.8z
			 M280.2,52.4h-10.9v16h10.6c2.8,0,5.2-0.2,7.2-0.7c1.9-0.5,3.4-1.3,4.4-2.5c1-1.2,1.5-2.8,1.5-4.9c0-1.6-0.4-3-1.2-4.3
			c-0.8-1.2-2-2.2-3.4-2.8C287,52.6,284.3,52.4,280.2,52.4z"/>
		<path id="XMLID_46_" class="st0" d="M316.6,95.5V49.7c0-2.4,0.5-4.2,1.6-5.4c1.1-1.2,2.5-1.8,4.2-1.8c1.8,0,3.2,0.6,4.3,1.8
			c1.1,1.2,1.6,3,1.6,5.4v45.9c0,2.4-0.5,4.2-1.6,5.4c-1.1,1.2-2.5,1.8-4.3,1.8c-1.7,0-3.1-0.6-4.2-1.8
			C317.2,99.7,316.6,97.9,316.6,95.5z"/>
		<path id="XMLID_48_" class="st0" d="M394.8,78.1v11.2c0,1.5-0.1,2.7-0.4,3.6c-0.3,0.9-0.8,1.7-1.6,2.4c-0.8,0.7-1.8,1.4-3,2.1
			c-3.5,1.9-6.9,3.3-10.2,4.2c-3.3,0.9-6.8,1.3-10.6,1.3c-4.5,0-8.6-0.7-12.2-2.1c-3.7-1.4-6.8-3.4-9.4-6c-2.6-2.6-4.6-5.8-6-9.5
			c-1.4-3.7-2.1-7.9-2.1-12.5c0-4.5,0.7-8.7,2-12.4c1.4-3.8,3.3-7,6-9.6c2.6-2.6,5.8-4.6,9.6-6c3.8-1.4,8-2.1,12.8-2.1
			c3.9,0,7.4,0.5,10.4,1.6c3,1,5.5,2.4,7.3,4c1.9,1.6,3.3,3.3,4.3,5c1,1.8,1.4,3.4,1.4,4.7c0,1.5-0.6,2.7-1.6,3.8
			c-1.1,1-2.4,1.6-4,1.6c-0.8,0-1.7-0.2-2.4-0.6s-1.4-1-2-1.7c-1.5-2.3-2.7-4-3.7-5.2c-1-1.2-2.4-2.1-4.1-2.9s-3.9-1.2-6.5-1.2
			c-2.7,0-5.2,0.5-7.3,1.4c-2.1,0.9-4,2.3-5.5,4.1s-2.7,4-3.5,6.6c-0.8,2.6-1.2,5.5-1.2,8.6c0,6.8,1.6,12.1,4.7,15.8
			c3.1,3.7,7.5,5.5,13.1,5.5c2.7,0,5.3-0.4,7.7-1.1c2.4-0.7,4.8-1.7,7.3-3.1V80h-9.1c-2.2,0-3.9-0.3-5-1c-1.1-0.7-1.7-1.8-1.7-3.4
			c0-1.3,0.5-2.4,1.4-3.2c0.9-0.8,2.2-1.3,3.8-1.3h13.4c1.6,0,3,0.1,4.2,0.4c1.1,0.3,2.1,0.9,2.8,1.9
			C394.4,74.5,394.8,76,394.8,78.1z"/>
		<path id="XMLID_50_" class="st0" d="M417.9,49.7v16.7h25.5V49.7c0-2.4,0.5-4.2,1.6-5.4c1.1-1.2,2.5-1.8,4.2-1.8
			c1.8,0,3.2,0.6,4.3,1.8c1.1,1.2,1.6,3,1.6,5.4v45.9c0,2.4-0.6,4.2-1.7,5.4c-1.1,1.2-2.5,1.8-4.3,1.8c-1.8,0-3.2-0.6-4.2-1.8
			c-1.1-1.2-1.6-3-1.6-5.4V76h-25.5v19.6c0,2.4-0.6,4.2-1.7,5.4c-1.1,1.2-2.5,1.8-4.3,1.8c-1.8,0-3.2-0.6-4.2-1.8
			c-1.1-1.2-1.6-3-1.6-5.4V49.7c0-2.4,0.5-4.2,1.6-5.4c1-1.2,2.5-1.8,4.3-1.8c1.8,0,3.2,0.6,4.3,1.8
			C417.4,45.5,417.9,47.2,417.9,49.7z"/>
		<path id="XMLID_52_" class="st0" d="M505.7,53.2h-12.9v42.3c0,2.4-0.5,4.2-1.6,5.4c-1.1,1.2-2.5,1.8-4.2,1.8
			c-1.7,0-3.2-0.6-4.3-1.8s-1.6-3-1.6-5.4V53.2h-12.9c-2,0-3.5-0.4-4.5-1.3c-1-0.9-1.5-2.1-1.5-3.5c0-1.5,0.5-2.7,1.5-3.6
			s2.5-1.3,4.4-1.3h37.5c2,0,3.6,0.5,4.5,1.4c1,0.9,1.5,2.1,1.5,3.5s-0.5,2.6-1.5,3.5C509.2,52.8,507.7,53.2,505.7,53.2z"/>
		<path id="XMLID_54_" class="st0" d="M530.6,49.7v16.7H556V49.7c0-2.4,0.5-4.2,1.6-5.4c1.1-1.2,2.5-1.8,4.2-1.8
			c1.8,0,3.2,0.6,4.3,1.8c1.1,1.2,1.6,3,1.6,5.4v45.9c0,2.4-0.6,4.2-1.7,5.4s-2.5,1.8-4.3,1.8c-1.8,0-3.2-0.6-4.2-1.8
			c-1.1-1.2-1.6-3-1.6-5.4V76h-25.5v19.6c0,2.4-0.6,4.2-1.7,5.4s-2.5,1.8-4.3,1.8c-1.8,0-3.2-0.6-4.2-1.8c-1.1-1.2-1.6-3-1.6-5.4
			V49.7c0-2.4,0.5-4.2,1.6-5.4c1-1.2,2.5-1.8,4.3-1.8c1.8,0,3.2,0.6,4.3,1.8C530,45.5,530.6,47.2,530.6,49.7z"/>
		<path id="XMLID_56_" class="st0" d="M606.1,42.5c6,0,11.2,1.2,15.6,3.7c4.3,2.5,7.6,5.9,9.8,10.4c2.2,4.5,3.3,9.8,3.3,15.9
			c0,4.5-0.6,8.6-1.8,12.3c-1.2,3.7-3,6.9-5.5,9.6c-2.4,2.7-5.4,4.8-9,6.2c-3.5,1.4-7.6,2.1-12.2,2.1c-4.6,0-8.6-0.7-12.2-2.2
			c-3.6-1.5-6.6-3.5-9-6.2c-2.4-2.7-4.2-5.9-5.5-9.7c-1.2-3.8-1.8-7.8-1.8-12.2c0-4.5,0.6-8.6,1.9-12.3c1.3-3.7,3.1-6.9,5.6-9.5
			c2.4-2.6,5.4-4.6,8.9-6C597.7,43.2,601.7,42.5,606.1,42.5z M622.9,72.5c0-4.3-0.7-8-2.1-11.1c-1.4-3.1-3.3-5.5-5.9-7.1
			c-2.6-1.6-5.5-2.4-8.8-2.4c-2.4,0-4.5,0.4-6.5,1.3c-2,0.9-3.7,2.2-5.2,3.9c-1.4,1.7-2.6,3.9-3.4,6.5c-0.8,2.6-1.3,5.6-1.3,8.9
			c0,3.3,0.4,6.3,1.3,9c0.8,2.7,2,4.9,3.5,6.7c1.5,1.8,3.3,3.1,5.2,4c2,0.9,4.1,1.3,6.5,1.3c3,0,5.8-0.8,8.3-2.3
			c2.5-1.5,4.5-3.8,6-7C622.1,80.9,622.9,77.1,622.9,72.5z"/>
		<path id="XMLID_59_" class="st0" d="M667.5,79.1h-10.8v16.5c0,2.4-0.6,4.1-1.7,5.4s-2.5,1.8-4.2,1.8c-1.8,0-3.2-0.6-4.3-1.8
			c-1.1-1.2-1.6-3-1.6-5.3V50.7c0-2.6,0.6-4.4,1.8-5.6c1.2-1.1,3.1-1.7,5.7-1.7h15.1c4.5,0,7.9,0.3,10.3,1c2.4,0.7,4.4,1.8,6.2,3.3
			c1.7,1.5,3.1,3.4,4,5.6s1.4,4.7,1.4,7.5c0,5.9-1.8,10.4-5.5,13.5C680.2,77.5,674.8,79.1,667.5,79.1z M664.7,52.4h-7.9v17.8h7.9
			c2.8,0,5.1-0.3,7-0.9c1.9-0.6,3.3-1.5,4.3-2.9c1-1.3,1.5-3.1,1.5-5.2c0-2.6-0.8-4.7-2.3-6.3C673.4,53.2,670,52.4,664.7,52.4z"/>
		<path id="XMLID_62_" class="st0" d="M737.6,52.6H711v14.3h24.5c1.8,0,3.1,0.4,4,1.2c0.9,0.8,1.3,1.9,1.3,3.2
			c0,1.3-0.4,2.4-1.3,3.2c-0.9,0.8-2.2,1.3-4.1,1.3H711v16.6h27.5c1.9,0,3.2,0.4,4.2,1.3c0.9,0.9,1.4,2,1.4,3.4
			c0,1.4-0.5,2.5-1.4,3.4c-0.9,0.9-2.3,1.3-4.2,1.3h-32.1c-2.6,0-4.4-0.6-5.5-1.7c-1.1-1.1-1.7-3-1.7-5.5V50.7
			c0-1.7,0.3-3.1,0.8-4.2s1.3-1.9,2.4-2.3c1.1-0.5,2.4-0.7,4.1-0.7h31.1c1.9,0,3.3,0.4,4.2,1.3c0.9,0.8,1.4,1.9,1.4,3.3
			c0,1.4-0.5,2.5-1.4,3.3C740.9,52.2,739.5,52.6,737.6,52.6z"/>
	</g>
</g>
</svg>
