<?xml version="1.0" encoding="UTF-8"?>
<svg width="110px" height="41px" viewBox="0 0 110 41" version="1.1" xmlns="http://www.w3.org/2000/svg" xmlns:xlink="http://www.w3.org/1999/xlink">
    <!-- Generator: Sketch 45.1 (43504) - http://www.bohemiancoding.com/sketch -->
    <title>sswc</title>
    <desc>Created with Sketch.</desc>
    <defs>
        <polygon id="path-1" points="0 0.0591965458 0 29.5054184 29.4467755 29.5054184 29.4467755 0.0591965458 4.00131069e-20 0.0591965458"></polygon>
        <polygon id="path-3" points="0 40.5370859 109.48224 40.5370859 109.48224 0.369055772 0 0.369055772"></polygon>
    </defs>
    <g id="Page-1" stroke="none" stroke-width="1" fill="none" fill-rule="evenodd" opacity="0.428894928">
        <g id="Desktop-HD-Copy-5" transform="translate(-1303.000000, -679.000000)">
            <g id="Clients-logos" transform="translate(268.000000, 672.000000)">
                <g id="sswc" transform="translate(1035.000000, 7.000000)">
                    <g id="Group-3" transform="translate(0.000000, 0.310007)">
                        <mask id="mask-2" fill="white">
                            <use xlink:href="#path-1"></use>
                        </mask>
                        <g id="Clip-2"></g>
                        <path d="M14.7232955,2.27353117 C7.82601216,2.27353117 2.2141501,7.88502418 2.2141501,14.7826766 C2.2141501,21.6799599 7.82601216,27.2910838 14.7232955,27.2910838 C21.6205788,27.2910838 27.2324409,21.6799599 27.2324409,14.7826766 C27.2324409,7.88502418 21.6205788,2.27353117 14.7232955,2.27353117 M14.7232955,29.5054184 C6.60480662,29.5054184 -0.000184527886,22.9007964 -0.000184527886,14.7826766 C-0.000184527886,6.66381863 6.60480662,0.0591965458 14.7232955,0.0591965458 C22.8417843,0.0591965458 29.4467755,6.66381863 29.4467755,14.7826766 C29.4467755,22.9007964 22.8417843,29.5054184 14.7232955,29.5054184" id="Fill-1" fill="#FFFFFF" mask="url(#mask-2)"></path>
                    </g>
                    <mask id="mask-4" fill="white">
                        <use xlink:href="#path-3"></use>
                    </mask>
                    <g id="Clip-5"></g>
                    <polygon id="Fill-4" fill="#FFFFFF" mask="url(#mask-4)" points="13.45319 40.5370859 15.9934009 40.5370859 15.9934009 27.8352935 13.45319 27.8352935"></polygon>
                    <polygon id="Fill-6" fill="#FFFFFF" mask="url(#mask-4)" points="8.37239923 35.4562951 21.0741917 35.4562951 21.0741917 32.9160843 8.37239923 32.9160843"></polygon>
                    <path d="M21.2332917,7.56269087 C20.0224197,6.92422439 19.0484815,6.60056247 18.3336205,6.60056247 C17.6615699,6.60056247 17.1891785,6.74560139 16.8987316,7.05450107 C16.6079157,7.36340075 16.4628768,7.69038417 16.4628768,8.03508226 C16.4628768,8.67096535 16.8260276,9.12527301 17.5707822,9.4157199 L20.0405034,10.3782174 C21.8931634,11.1045191 22.8191243,12.2666757 22.8191243,13.9012237 C22.8191243,15.027582 22.4194369,15.9173754 21.6023474,16.5890569 C20.785258,17.2611075 19.7681403,17.5696381 18.5513634,17.5696381 C17.8977656,17.5696381 17.1164745,17.4065155 16.2085973,17.1160686 C15.4450209,16.8562533 14.6954687,16.5148767 13.9684288,16.1011652 C13.0801116,15.6944657 12.3467977,15.491116 11.7762375,15.491116 C11.104187,15.491116 10.6321646,15.6361549 10.3413487,15.9450546 C10.0509018,16.2539543 9.90549381,16.5809377 9.90549381,16.9256358 C9.90549381,17.5615189 10.2690137,18.0154575 11.0133992,18.3059044 L13.4834895,19.2687709 C15.3357804,19.9950726 16.2617414,21.1572293 16.2617414,22.7917773 C16.2617414,23.676404 16.0115216,24.4130393 15.5096057,25.0149693 C20.640219,24.6134366 24.6795345,20.3261157 24.6795345,15.0921667 C24.6795345,12.083255 23.3431835,9.38840977 21.2332917,7.56269087" id="Fill-7" fill="#FFFFFF" mask="url(#mask-4)"></path>
                    <path d="M10.6366671,24.1707911 C11.1592501,24.3265326 11.6430822,24.4080939 12.084842,24.4080939 C12.720356,24.4080939 13.2108311,24.2449713 13.5558983,23.9360716 C13.9009654,23.6271719 14.0825408,23.2459373 14.0825408,22.7916297 C14.0825408,22.0834116 13.5924348,21.5206016 12.6295683,21.1755344 L10.6864896,20.4669474 C8.72495821,19.7587293 7.74437703,18.505785 7.74437703,16.7623655 C7.74437703,15.7633315 8.10752791,14.9643258 8.83419872,14.3468955 C9.56050048,13.7294652 10.4683777,13.4209346 11.5401156,13.4209346 C12.3391214,13.4209346 13.2982973,13.6840713 14.3106173,14.1007353 L14.3213199,14.0763776 C14.3929168,14.1199262 14.4645136,14.1568318 14.5361104,14.1985351 C15.0612768,14.4243972 15.5978838,14.6845815 16.1330147,14.9728141 C17.0822262,15.3400246 17.9561502,15.5175404 18.6422249,15.5175404 C19.2777389,15.5175404 19.7682141,15.3544178 20.1132812,15.0455181 C20.4583484,14.7366184 20.6399238,14.3553838 20.6399238,13.9010761 C20.6399238,13.1928581 20.1494487,12.630048 19.1869512,12.2849809 L17.2438726,11.5763938 C15.2823412,10.8685448 14.30176,9.61523145 14.30176,7.87181198 C14.30176,6.87277801 14.6649109,6.07377227 15.3912126,5.45634196 C15.506358,5.35854218 15.6281464,5.27107596 15.7521492,5.18877653 C15.4140941,5.15408528 15.0708722,5.13600155 14.7232217,5.13600155 C9.22465973,5.13600155 4.76683506,9.59345716 4.76683506,15.0923882 C4.76683506,19.134287 7.17676925,22.6107923 10.6366671,24.1707911" id="Fill-8" fill="#FFFFFF" mask="url(#mask-4)"></path>
                    <path d="M46.5402947,12.0387838 C46.3616718,10.9172233 45.4183652,9.26016289 42.9966212,9.26016289 C41.1613069,9.26016289 39.8865882,10.4835828 39.8865882,11.8605299 C39.8865882,13.0075552 40.6003421,13.8744672 42.002385,14.1804144 L44.6027519,14.7155453 C47.7895485,15.3529046 49.4975386,17.367211 49.4975386,19.9162792 C49.4975386,22.720365 47.2285838,25.3971265 43.0984806,25.3971265 C38.5100102,25.3971265 36.3938444,22.4402517 36.1137311,19.8398847 L38.9687465,19.0239024 C39.1473695,20.9105155 40.4984827,22.6439704 43.0984806,22.6439704 C45.2655761,22.6439704 46.3871366,21.5478748 46.3871366,20.1458319 C46.3871366,18.9729727 45.5205937,18.0296661 43.9653926,17.6982541 L41.4159554,17.1631232 C38.6627993,16.6021584 36.827485,14.7923089 36.827485,12.0900825 C36.827485,9.05607505 39.6061059,6.55756748 42.9711564,6.55756748 C47.2285838,6.55756748 48.8856442,9.15793444 49.2934508,11.1718718 L46.5402947,12.0387838 Z" id="Fill-9" fill="#FFFFFF" mask="url(#mask-4)"></path>
                    <path d="M61.8105309,12.0387838 C61.6319079,10.9172233 60.6886013,9.26016289 58.2668574,9.26016289 C56.431543,9.26016289 55.1568244,10.4835828 55.1568244,11.8605299 C55.1568244,13.0075552 55.8705782,13.8744672 57.2726211,14.1804144 L59.8729881,14.7155453 C63.0597847,15.3529046 64.7677748,17.367211 64.7677748,19.9162792 C64.7677748,22.720365 62.4988199,25.3971265 58.3687168,25.3971265 C53.7802463,25.3971265 51.6640806,22.4402517 51.3839672,19.8398847 L54.2389827,19.0239024 C54.4176057,20.9105155 55.7687188,22.6439704 58.3687168,22.6439704 C60.5358122,22.6439704 61.6573727,21.5478748 61.6573727,20.1458319 C61.6573727,18.9729727 60.7908298,18.0296661 59.2356288,17.6982541 L56.6861915,17.1631232 C53.9330354,16.6021584 52.0977211,14.7923089 52.0977211,12.0900825 C52.0977211,9.05607505 54.876342,6.55756748 58.2413925,6.55756748 C62.4988199,6.55756748 64.1558803,9.15793444 64.5636869,11.1718718 L61.8105309,12.0387838 Z" id="Fill-10" fill="#FFFFFF" mask="url(#mask-4)"></path>
                    <polygon id="Fill-11" fill="#FFFFFF" mask="url(#mask-4)" points="88.1702655 6.94013069 91.3312282 6.94013069 86.2581876 25.0150062 83.0968559 25.0150062 78.7124733 11.3503472 74.3273526 25.0150062 71.1918548 25.0150062 66.0675154 6.94013069 69.2797768 6.94013069 72.8998449 20.1456843 77.1318074 6.94013069 80.318235 6.94013069 84.626592 20.2479128"></polygon>
                    <path d="M92.1725647,15.9903008 C92.1725647,10.1012779 96.5827811,6.55760438 101.27348,6.55760438 C105.862319,6.55760438 108.590011,9.2601998 109.405993,12.4211625 L106.525144,13.3899339 C105.989644,11.1977426 104.307118,9.43845373 101.27348,9.43845373 C98.2907713,9.43845373 95.3080625,11.6055492 95.3080625,15.9903008 C95.3080625,20.2222634 98.2143767,22.4657534 101.298945,22.4657534 C104.332583,22.4657534 106.066038,20.5282106 106.677933,18.4888084 L109.482388,19.4062811 C108.666405,22.4657534 105.913249,25.3971634 101.298945,25.3971634 C96.4299921,25.3971634 92.1725647,21.8793238 92.1725647,15.9903008" id="Fill-12" fill="#FFFFFF" mask="url(#mask-4)"></path>
                </g>
            </g>
        </g>
    </g>
</svg>