<?xml version="1.0" encoding="utf-8"?>
<!-- Generator: Adobe Illustrator 19.0.0, SVG Export Plug-In . SVG Version: 6.00 Build 0)  -->
<svg version="1.1" id="Layer_1" xmlns="http://www.w3.org/2000/svg" xmlns:xlink="http://www.w3.org/1999/xlink" x="0px" y="0px"
	 viewBox="0 0 314.3 131.7" style="enable-background:new 0 0 314.3 131.7;" xml:space="preserve">
<style type="text/css">
	.st0{fill:#FFFFFF;}
</style>
<g id="XMLID_40_" opacity="0.428894928">
	<path id="XMLID_2875_" class="st0" d="M76.5,48c0,0-97.7-2-56,24.1c5.8,3.6,85.3,34,180.6,37C201.8,109-68.8,58.6,76.5,48z"/>
	<path id="XMLID_2877_" class="st0" d="M267.5,81.9c0,0,52.9,15.9,25.9,22.7c-3.7,0.9-51.8,3.4-103.6-11.6
		C189.4,92.9,343.8,113,267.5,81.9z"/>
	<g id="XMLID_3091_">
		<path id="XMLID_3100_" class="st0" d="M118.1,34.5c-0.3-2.4-1.1-4.5-2.4-6.4c-1.9-2.6-4.8-3.8-8.7-3.8c-5.6,0-9.4,2.8-11.5,8.3
			c-1.1,2.9-1.6,6.8-1.6,11.7c0,4.6,0.5,8.4,1.6,11.2c2,5.3,5.7,7.9,11.2,7.9c3.9,0,6.6-1,8.3-3.1c1.6-2.1,2.6-4.8,3-8.1h16.9
			c-0.4,5-2.2,9.8-5.5,14.3c-5.2,7.2-12.9,10.9-23.1,10.9c-10.2,0-17.7-3-22.5-9.1c-4.8-6-7.2-13.9-7.2-23.5c0-10.9,2.7-19.3,8-25.3
			s12.6-9.1,22-9.1c7.9,0,14.4,1.8,19.5,5.3c5.1,3.6,8,9.9,9,18.9H118.1z"/>
		<path id="XMLID_3114_" class="st0" d="M154.8,36.6c3.1-0.4,5.3-0.9,6.6-1.5c2.4-1,3.6-2.6,3.6-4.7c0-2.6-0.9-4.4-2.7-5.4
			s-4.5-1.5-8-1.5c-4,0-6.8,1-8.4,2.9c-1.2,1.4-2,3.4-2.4,5.8h-16c0.3-5.5,1.9-10.1,4.7-13.6c4.4-5.6,11.9-8.4,22.6-8.4
			c7,0,13.1,1.4,18.5,4.1c5.4,2.7,8.1,7.9,8.1,15.6v29c0,2,0,4.5,0.1,7.3c0.1,2.2,0.4,3.6,1,4.4c0.5,0.8,1.4,1.4,2.4,1.9v2.4h-18
			c-0.5-1.3-0.9-2.5-1-3.6c-0.2-1.1-0.3-2.4-0.5-3.8c-2.3,2.5-4.9,4.6-7.9,6.3c-3.6,2.1-7.6,3.1-12.1,3.1c-5.8,0-10.5-1.6-14.3-4.9
			c-3.8-3.3-5.6-7.9-5.6-13.9c0-7.8,3-13.4,9.1-16.9c3.3-1.9,8.2-3.3,14.6-4.1L154.8,36.6z M164.9,44.4c-1.1,0.7-2.1,1.2-3.2,1.6
			c-1.1,0.4-2.6,0.8-4.4,1.1l-3.8,0.7c-3.5,0.6-6.1,1.4-7.6,2.3c-2.6,1.5-3.9,3.9-3.9,7c0,2.8,0.8,4.9,2.4,6.1
			c1.6,1.3,3.5,1.9,5.8,1.9c3.6,0,6.9-1,10-3.1c3-2.1,4.6-5.9,4.7-11.4V44.4z"/>
		<path id="XMLID_3117_" class="st0" d="M192,54.9c0.4,2.9,1.1,5,2.3,6.3c2.1,2.2,5.9,3.3,11.4,3.3c3.3,0,5.9-0.5,7.8-1.5
			c1.9-1,2.9-2.4,2.9-4.4c0-1.9-0.8-3.3-2.3-4.2c-1.6-1-7.3-2.6-17.3-5c-7.2-1.8-12.3-4-15.2-6.7c-2.9-2.6-4.4-6.4-4.4-11.4
			c0-5.8,2.3-10.9,6.9-15.1c4.6-4.2,11.1-6.3,19.4-6.3c7.9,0,14.4,1.6,19.3,4.7c5,3.2,7.8,8.6,8.6,16.3h-16.5
			c-0.2-2.1-0.8-3.8-1.8-5.1c-1.8-2.2-4.9-3.4-9.3-3.4c-3.6,0-6.2,0.6-7.7,1.7c-1.5,1.1-2.3,2.4-2.3,3.9c0,1.9,0.8,3.3,2.4,4.1
			c1.6,0.9,7.4,2.4,17.3,4.6c6.6,1.5,11.5,3.9,14.8,7c3.3,3.2,4.9,7.1,4.9,11.9c0,6.3-2.3,11.4-7,15.4c-4.7,4-11.9,6-21.7,6
			c-10,0-17.3-2.1-22.1-6.3c-4.8-4.2-7.1-9.5-7.1-16.1H192z"/>
		<path id="XMLID_3124_" class="st0" d="M241.5,54.9c0.4,2.9,1.1,5,2.3,6.3c2.1,2.2,5.9,3.3,11.4,3.3c3.3,0,5.9-0.5,7.8-1.5
			c1.9-1,2.9-2.4,2.9-4.4c0-1.9-0.8-3.3-2.3-4.2c-1.6-1-7.3-2.6-17.3-5c-7.2-1.8-12.3-4-15.2-6.7c-2.9-2.6-4.4-6.4-4.4-11.4
			c0-5.8,2.3-10.9,6.9-15.1c4.6-4.2,11.1-6.3,19.4-6.3c7.9,0,14.4,1.6,19.3,4.7c5,3.2,7.8,8.6,8.6,16.3h-16.5
			c-0.2-2.1-0.8-3.8-1.8-5.1c-1.8-2.2-4.9-3.4-9.3-3.4c-3.6,0-6.2,0.6-7.7,1.7c-1.5,1.1-2.3,2.4-2.3,3.9c0,1.9,0.8,3.3,2.4,4.1
			c1.6,0.9,7.4,2.4,17.3,4.6c6.6,1.5,11.5,3.9,14.8,7c3.3,3.2,4.9,7.1,4.9,11.9c0,6.3-2.3,11.4-7,15.4c-4.7,4-11.9,6-21.7,6
			c-10,0-17.3-2.1-22.1-6.3c-4.8-4.2-7.1-9.5-7.1-16.1H241.5z"/>
	</g>
</g>
</svg>
