<?xml version="1.0" encoding="UTF-8"?>
<svg width="450px" height="453px" viewBox="0 0 450 453" version="1.1" xmlns="http://www.w3.org/2000/svg" xmlns:xlink="http://www.w3.org/1999/xlink">
    <!-- Generator: Sketch 45.1 (43504) - http://www.bohemiancoding.com/sketch -->
    <title>Cloud Illustration</title>
    <desc>Created with Sketch.</desc>
    <defs>
        <linearGradient x1="50%" y1="0%" x2="50%" y2="100%" id="linearGradient-1">
            <stop stop-color="#F5E859" offset="0%"></stop>
            <stop stop-color="#E8CD2D" offset="100%"></stop>
        </linearGradient>
        <path d="M237.81586,261.043416 L301.378822,261.043416 C305.128751,261.501063 308.916586,261.847765 312.790403,261.847765 C316.75575,261.847765 320.636963,261.521402 324.472874,261.043416 C370.687791,255.281691 406.474836,215.939794 406.474836,168.163331 C406.474836,118.628396 368.002931,78.1770529 319.323194,74.8089583 C305.966383,31.526678 265.656494,0.0720215665 217.990051,0.0720215665 C173.835007,0.0720215665 136.011203,27.0722504 120.057363,65.4517019 C113.61795,64.1388569 106.952026,63.4463774 100.126157,63.4463774 C45.3379922,63.4463774 0.924076453,107.860293 0.924076453,162.646609 C0.924076453,217.434773 45.3379922,261.847765 100.126157,261.847765 C103.975012,261.847765 107.724941,261.470553 111.459153,261.043416 L190.725404,261.043416" id="path-2"></path>
        <filter x="-1.7%" y="-1.9%" width="103.5%" height="105.3%" filterUnits="objectBoundingBox" id="filter-3">
            <feOffset dx="0" dy="2" in="SourceAlpha" result="shadowOffsetOuter1"></feOffset>
            <feGaussianBlur stdDeviation="2" in="shadowOffsetOuter1" result="shadowBlurOuter1"></feGaussianBlur>
            <feColorMatrix values="0 0 0 0 0   0 0 0 0 0   0 0 0 0 0  0 0 0 0.2 0" type="matrix" in="shadowBlurOuter1"></feColorMatrix>
        </filter>
        <filter x="-1.2%" y="-2.5%" width="109.6%" height="129.3%" filterUnits="objectBoundingBox" id="filter-4">
            <feOffset dx="0" dy="1" in="SourceAlpha" result="shadowOffsetOuter1"></feOffset>
            <feGaussianBlur stdDeviation="1" in="shadowOffsetOuter1" result="shadowBlurOuter1"></feGaussianBlur>
            <feColorMatrix values="0 0 0 0 0   0 0 0 0 0   0 0 0 0 0  0 0 0 0.1 0" type="matrix" in="shadowBlurOuter1" result="shadowMatrixOuter1"></feColorMatrix>
            <feMerge>
                <feMergeNode in="shadowMatrixOuter1"></feMergeNode>
                <feMergeNode in="SourceGraphic"></feMergeNode>
            </feMerge>
        </filter>
        <path d="M62.4407698,21.0897732 C62.4407698,15.466064 67.0199524,11.0040194 72.6690325,12.1721617 L72.6690325,1.45159497 C48.4462736,-3.57616731 24.2229749,6.47935725 0.000215922796,1.45159497 L0.000215922796,12.1721617 C5.64875624,13.3397642 10.2290185,18.0366248 10.2284787,23.7110759 C10.2295583,29.3347851 5.64875624,33.7968296 0.000215922796,32.6286873 L0.000215922796,43.3492541 C24.2235147,48.3770164 48.4462736,38.3214918 72.6690325,43.3492541 L72.6690325,32.6286873 C67.0199524,31.4610848 62.4407698,26.7636844 62.4407698,21.0897732" id="path-5"></path>
        <filter x="-34.4%" y="-51.3%" width="168.8%" height="211.6%" filterUnits="objectBoundingBox" id="filter-6">
            <feOffset dx="0" dy="2" in="SourceAlpha" result="shadowOffsetOuter1"></feOffset>
            <feGaussianBlur stdDeviation="8" in="shadowOffsetOuter1" result="shadowBlurOuter1"></feGaussianBlur>
            <feColorMatrix values="0 0 0 0 0   0 0 0 0 0   0 0 0 0 0  0 0 0 0.15 0" type="matrix" in="shadowBlurOuter1"></feColorMatrix>
        </filter>
        <linearGradient x1="50%" y1="30.0681601%" x2="50%" y2="100%" id="linearGradient-7">
            <stop stop-color="#F2F2F2" offset="0%"></stop>
            <stop stop-color="#FFFFFF" offset="100%"></stop>
        </linearGradient>
        <filter x="-1.4%" y="-2.1%" width="102.7%" height="108.3%" filterUnits="objectBoundingBox" id="filter-8">
            <feOffset dx="0" dy="2" in="SourceAlpha" result="shadowOffsetOuter1"></feOffset>
            <feColorMatrix values="0 0 0 0 0   0 0 0 0 0   0 0 0 0 0  0 0 0 0.1 0" type="matrix" in="shadowOffsetOuter1" result="shadowMatrixOuter1"></feColorMatrix>
            <feMerge>
                <feMergeNode in="shadowMatrixOuter1"></feMergeNode>
                <feMergeNode in="SourceGraphic"></feMergeNode>
            </feMerge>
        </filter>
        <linearGradient x1="50%" y1="0%" x2="50%" y2="100%" id="linearGradient-9">
            <stop stop-color="#F2F2F2" offset="0%"></stop>
            <stop stop-color="#FFFFFF" offset="100%"></stop>
        </linearGradient>
        <filter x="-9.3%" y="-16.4%" width="118.6%" height="132.7%" filterUnits="objectBoundingBox" id="filter-10">
            <feGaussianBlur stdDeviation="9.66517857" in="SourceGraphic"></feGaussianBlur>
        </filter>
        <path d="M146.055766,62.8234327 C98.0107587,68.2569456 49.9657513,56.9376072 1.92074394,62.3711201 C0.860546294,62.4911606 9.60323987e-05,61.7373063 9.60323987e-05,60.6761483 L9.60323987e-05,4.08713874 C9.60323987e-05,3.02598078 0.85958597,2.05989488 1.92074394,1.93985439 C49.9657513,-3.49365854 98.0107587,7.82664022 146.055766,2.39216697 C147.116924,2.2730868 147.976414,3.02598078 147.976414,4.08713874 L147.976414,60.6761483 C147.976414,61.7373063 147.116924,62.7033922 146.055766,62.8234327" id="path-11"></path>
        <filter x="-22.0%" y="-47.7%" width="143.9%" height="201.7%" filterUnits="objectBoundingBox" id="filter-12">
            <feOffset dx="0" dy="2" in="SourceAlpha" result="shadowOffsetOuter1"></feOffset>
            <feGaussianBlur stdDeviation="10.5" in="shadowOffsetOuter1" result="shadowBlurOuter1"></feGaussianBlur>
            <feColorMatrix values="0 0 0 0 0   0 0 0 0 0   0 0 0 0 0  0 0 0 0.2 0" type="matrix" in="shadowBlurOuter1"></feColorMatrix>
        </filter>
        <linearGradient x1="50%" y1="0%" x2="50%" y2="100%" id="linearGradient-13">
            <stop stop-color="#45B7E2" offset="0%"></stop>
            <stop stop-color="#2181C1" offset="100%"></stop>
        </linearGradient>
        <path d="M54.8275558,62.8869532 L0.933636294,62.8869532 C-2.30023263,41.9245138 4.16677473,20.9620743 0.933636294,-1.13686838e-13 L54.8275558,-1.13686838e-13 C58.0610595,20.9620743 51.5940521,41.9245138 54.8275558,62.8869532" id="path-14"></path>
        <filter x="-82.5%" y="-70.0%" width="265.0%" height="246.3%" filterUnits="objectBoundingBox" id="filter-15">
            <feOffset dx="0" dy="2" in="SourceAlpha" result="shadowOffsetOuter1"></feOffset>
            <feGaussianBlur stdDeviation="15" in="shadowOffsetOuter1" result="shadowBlurOuter1"></feGaussianBlur>
            <feColorMatrix values="0 0 0 0 0   0 0 0 0 0   0 0 0 0 0  0 0 0 0.15 0" type="matrix" in="shadowBlurOuter1"></feColorMatrix>
        </filter>
    </defs>
    <g id="Page-1" stroke="none" stroke-width="1" fill="none" fill-rule="evenodd">
        <g id="Desktop-HD-Copy-5" transform="translate(-253.000000, -1463.000000)">
            <g id="Convinient" transform="translate(255.000000, 1463.687070)">
                <g id="Cloud-Illustration">
                    <g>
                        <g id="Group-3" transform="translate(36.872853, 62.047171)">
                            <g id="Fill-1">
                                <use fill="black" fill-opacity="1" filter="url(#filter-3)" xlink:href="#path-2"></use>
                                <use fill="url(#linearGradient-1)" fill-rule="evenodd" xlink:href="#path-2"></use>
                            </g>
                        </g>
                        <g id="clound-2" filter="url(#filter-4)" transform="translate(0.291507, 0.072805)">
                            <g id="Page-1" transform="translate(240.457606, 66.754304) rotate(17.000000) translate(-240.457606, -66.754304) translate(203.957606, 44.254304)">
                                <g id="Fill-1">
                                    <use fill="black" fill-opacity="1" filter="url(#filter-6)" xlink:href="#path-5"></use>
                                    <use fill="#FFFFFF" fill-rule="evenodd" xlink:href="#path-5"></use>
                                </g>
                                <path d="M29.519615,14.5507672 C29.5190752,19.0284662 25.8829353,23.0440904 21.3965995,23.2794462 C16.9102636,23.5228992 13.2730441,19.7847358 13.2730441,15.2973203 C13.2741237,10.8120641 16.9097238,7.27686809 21.3965995,7.03341514 C25.8829353,6.79805929 29.5190752,10.0557945 29.519615,14.5507672" id="Fill-3" fill="#00BA09"></path>
                                <path d="M24.4304767,14.5686888 L24.4304767,13.6477781 C24.1810858,13.6650519 23.931695,13.6823258 23.6823042,13.69852 L23.6823042,11.9268734 C23.3379073,11.9495453 22.9940503,11.9716774 22.6496534,11.9921901 L22.6496534,16.3549102 C22.6426359,16.35545 22.6361582,16.3559898 22.6286009,16.3565296 C21.6396745,14.9605887 20.6507481,13.5554711 19.6618217,12.1390176 C19.3201239,12.151973 18.9789659,12.1638487 18.6378079,12.174105 L18.6378079,13.9457516 C18.4029918,13.9527691 18.1687156,13.9592467 17.9344394,13.9646448 L17.9344394,14.8855555 C18.1687156,14.8801575 18.4029918,14.8736798 18.6378079,14.8666623 L18.6378079,15.5624735 C18.4029918,15.569491 18.1687156,15.5754289 17.9344394,15.5813667 L17.9344394,16.5022775 C18.1687156,16.4968794 18.4029918,16.4904017 18.6378079,16.4833842 L18.6378079,18.2550308 C18.9816649,18.2447744 19.3260618,18.2328987 19.6699188,18.2199433 L19.6699188,13.919301 C19.6753169,13.9187612 19.680715,13.9187612 19.6866529,13.9187612 C20.6674822,15.3141623 21.6477716,16.6987672 22.6286009,18.0741954 C22.9800153,18.0531429 23.3308898,18.0310109 23.6823042,18.0077992 L23.6823042,16.2361526 C23.9311552,16.2199584 24.1810858,16.2026846 24.4304767,16.1854108 L24.4304767,15.2645 C24.1810858,15.2817739 23.931695,15.2990477 23.6823042,15.3152419 L23.6823042,14.6199705 C23.9311552,14.6032365 24.1810858,14.5865025 24.4304767,14.5686888" id="Fill-5" fill="#FFFFFF"></path>
                                <path d="M56.7190316,11.3609398 C50.4292006,11.3976467 44.1393696,12.0043897 37.8489988,12.6537775 L37.8489988,9.21034876 C44.1393696,8.56096095 50.4292006,7.9542179 56.7190316,7.91751102 L56.7190316,11.3609398 Z" id="Fill-7" fill="#DDDDDD"></path>
                                <path d="M51.2542416,19.0247415 C46.7857194,19.2541595 42.3171971,19.6935624 37.8492147,20.1550974 L37.8492147,16.7116686 C42.3177369,16.2506734 46.7857194,15.8107307 51.2542416,15.5813128 L51.2542416,19.0247415 Z" id="Fill-9" fill="#DDDDDD"></path>
                                <path d="M29.519615,32.2255595 C24.1042713,32.7281198 18.6889276,33.0897905 13.2730441,32.9721125 C13.2735839,31.8244829 13.2735839,30.6768532 13.2730441,29.5292236 C18.6889276,29.6463617 24.1042713,29.2852308 29.519615,28.7821307 L29.519615,32.2255595 Z" id="Fill-11" fill="#DDDDDD"></path>
                                <path d="M29.519615,39.7269873 C24.1042713,40.2295476 18.6889276,40.5912183 13.2730441,40.4735403 C13.2735839,39.3259107 13.2735839,38.178281 13.2730441,37.0306514 C18.6889276,37.1477895 24.1042713,36.7861188 29.519615,36.2835585 L29.519615,39.7269873 Z" id="Fill-13" fill="#DDDDDD"></path>
                                <polygon id="Fill-15" fill="#DDDDDD" points="34.0498912 43.5945964 32.8137332 43.7068762 32.8137332 1.8167744 34.0498912 1.68452168"></polygon>
                            </g>
                            <path d="M79.0442566,87.5929769 L100.238237,87.5929769 C101.488586,87.7455713 102.751575,87.8611731 104.043233,87.8611731 C105.36541,87.8611731 106.659534,87.7523533 107.938553,87.5929769 C123.348125,85.6718283 135.280701,72.5539473 135.280701,56.6237047 C135.280701,40.1071294 122.452904,26.6193225 106.22148,25.4962891 C101.76788,11.0645546 88.327239,0.576538601 72.4336807,0.576538601 C57.7109378,0.576538601 45.0992388,9.57930212 39.7797042,22.3762724 C37.6325926,21.9385267 35.4099544,21.7076313 33.1339853,21.7076313 C14.8658109,21.7076313 0.0567519435,36.5166902 0.0567519435,54.7842481 C0.0567519435,73.0524225 14.8658109,87.8611731 33.1339853,87.8611731 C34.4173199,87.8611731 35.6676695,87.7353983 36.9127784,87.5929769 L63.3427515,87.5929769" id="Fill-1" fill="url(#linearGradient-7)"></path>
                        </g>
                        <g id="clound-2-copy" filter="url(#filter-8)" transform="translate(315.864834, 62.047171)" fill="url(#linearGradient-9)">
                            <path d="M42.2784533,46.9370913 L53.5526286,46.9370913 C54.2177543,47.0182642 54.8896033,47.0797588 55.5767031,47.0797588 C56.2800374,47.0797588 56.968449,47.0218719 57.6488254,46.9370913 C65.8459745,45.9151329 72.1935299,38.9370529 72.1935299,30.462932 C72.1935299,21.6769105 65.3697603,14.5020477 56.7354255,13.9046481 C54.3663252,6.22766134 47.2165522,0.6485426 38.7619457,0.6485426 C30.9301565,0.6485426 24.2213408,5.43757862 21.391605,12.2449496 C20.2494451,12.0120901 19.0671088,11.8892648 17.856403,11.8892648 C8.1386152,11.8892648 0.26091004,19.76697 0.26091004,29.4844298 C0.26091004,39.2022176 8.1386152,47.0797588 17.856403,47.0797588 C18.5390751,47.0797588 19.2042008,47.0128527 19.8665387,46.9370913 L33.9260098,46.9370913" id="Fill-1"></path>
                        </g>
                        <path d="M413.105477,427.418303 L100.771656,427.418303 L100.771656,254.233818 C100.771656,251.982749 102.596535,250.156715 104.848759,250.156715 L409.028374,250.156715 C411.280598,250.156715 413.105477,251.982749 413.105477,254.233818 L413.105477,427.418303 Z" id="Fill-20" fill="#000000" opacity="0.315274004" filter="url(#filter-10)"></path>
                        <g id="Page-1" transform="translate(351.554902, 212.118776) rotate(43.000000) translate(-351.554902, -212.118776) translate(277.554902, 179.118776)">
                            <g id="Group-3" transform="translate(0.000000, 0.538550)">
                                <g id="Fill-1">
                                    <use fill="black" fill-opacity="1" filter="url(#filter-12)" xlink:href="#path-11"></use>
                                    <use fill="#FFFFFF" fill-rule="evenodd" xlink:href="#path-11"></use>
                                </g>
                            </g>
                            <path d="M147.976318,16.9097683 C98.6502384,22.9530869 49.3260795,10.8664497 2.67164069e-12,16.9097683 L2.67164069e-12,4.62530429 C2.67164069e-12,3.56414632 0.859489938,2.59806042 1.92064791,2.47898025 C49.9666156,-2.955493 98.0106626,8.36480576 146.05567,2.93129283 C147.116828,2.81125234 147.976318,3.56414632 147.976318,4.62530429 L147.976318,16.9097683" id="Fill-4" fill="#C4C4C4"></path>
                            <path d="M132.052322,31.1057571 C107.957794,32.3570592 83.8642265,30.2136162 59.7706589,28.9008533 L59.7706589,22.7749468 C83.8642265,24.0877097 107.957794,26.2311527 132.052322,24.9798506 L132.052322,31.1057571" id="Fill-6" fill="#DDDDDD"></path>
                            <path d="M111.119949,44.7862441 C94.0031348,44.5298376 76.8872809,43.1777014 59.7704668,42.2461872 L59.7704668,36.1202807 C76.8872809,37.0527553 94.0031348,38.4039311 111.119949,38.6603376 L111.119949,44.7862441" id="Fill-8" fill="#DDDDDD"></path>
                            <path d="M65.9451578,54.411475 C63.8871835,54.2895139 61.828249,54.171394 59.7702747,54.0590361 L59.7702747,47.93409 C61.828249,48.0454875 63.8871835,48.1645677 65.9451578,48.2855685 L65.9451578,54.411475 Z" id="Fill-10" fill="#DDDDDD"></path>
                            <path d="M77.6694648,55.1232671 C75.6114906,54.998425 73.5535163,54.8716623 71.4945818,54.7458598 L71.4945818,48.6199533 C73.552556,48.7457558 75.6114906,48.8725185 77.6694648,48.9973606 L77.6694648,55.1232671 Z" id="Fill-12" fill="#DDDDDD"></path>
                            <path d="M89.3938679,55.8011598 C87.3358936,55.6916829 85.2769591,55.5754837 83.2189849,55.4554432 L83.2189849,49.3295367 C85.2769591,49.4495772 87.3358936,49.5657764 89.3938679,49.6752533 L89.3938679,55.8011598 Z" id="Fill-14" fill="#DDDDDD"></path>
                            <path d="M101.118175,56.3368285 C99.0602007,56.2619232 97.0012661,56.1745338 94.9432919,56.0794617 L94.9432919,49.9535552 C97.0012661,50.0495876 99.0602007,50.1360167 101.118175,50.210922 L101.118175,56.3368285 Z" id="Fill-16" fill="#DDDDDD"></path>
                            <path d="M43.2019016,36.6189769 C43.2028619,44.7394763 36.6265635,51.0680111 28.5156674,51.1313925 C20.403811,51.18325 13.8303935,45.0419783 13.8294332,36.9291616 C13.8313538,28.8201861 20.403811,21.8107816 28.5156674,21.7589241 C36.6265635,21.6955427 43.2028619,28.5176841 43.2019016,36.6189769" id="Fill-18" fill="#FF4459"></path>
                            <path d="M24.7724207,29.9459739 C22.1632205,29.9978314 20.0447458,32.1960129 20.0466665,34.8061734 C20.0495475,38.5187858 22.9401226,40.004407 25.9056029,42.6328136 C26.7679738,43.3953109 27.8348937,44.3191425 28.6578914,45.325562 C29.480889,44.305698 30.5468486,43.3665011 31.4111401,42.5895991 C34.3766205,39.9160572 37.2662353,38.3728166 37.2691163,34.6582835 C37.2710369,32.0490833 35.1535226,29.8941164 32.5433621,29.8845132 C30.9328988,29.8787512 29.5116194,30.8198687 28.6578914,32.0567659 C27.8051237,30.8342735 26.3819236,29.9133229 24.7724207,29.9459739" id="Fill-20" fill="#FFFFFF"></path>
                            <path d="M19.3122107,37.2296469 C21.0023809,37.1633846 22.6935114,37.1134477 24.3836815,37.0769554 C24.7956605,36.1204728 25.2076395,35.1649504 25.6196185,34.2103884 C26.0306371,35.3262849 26.4426161,36.4431416 26.8545951,37.5609587 C27.1158032,36.8090251 27.3789319,36.0570914 27.6411004,35.3051577 C28.2220964,36.4969198 28.8040527,37.6896421 29.3850487,38.8842851 C29.8892187,37.5715223 30.3943491,36.2597198 30.8975589,34.9488776 C31.1222747,35.6345489 31.3469905,36.3202202 31.5717063,37.0058915 C34.1098425,37.0078121 36.6479787,37.0375822 39.1870753,37.0894396" id="Stroke-22" stroke="#FF4459" stroke-width="0.334"></path>
                            <path d="M3.96623396,62.6882191 C3.28440395,62.7583227 2.60257395,62.8322677 1.92074394,62.9100539 C0.860546294,63.0291341 9.60323993e-05,62.2762401 9.60323993e-05,61.2150821 L9.60323993e-05,4.62511222 C9.60323993e-05,3.56491458 0.85958597,2.59786836 1.92074394,2.47878819 C2.60257395,2.40196227 3.28440395,2.32801733 3.96623396,2.25695335 L3.96623396,62.6882191 Z" id="Fill-24" fill="#FF4459"></path>
                        </g>
                        <path d="M400.400623,404.318569 L88.0668016,404.318569 L88.0668016,231.134084 C88.0668016,228.883015 89.8916806,227.056981 92.1439047,227.056981 L396.32352,227.056981 C398.575744,227.056981 400.400623,228.883015 400.400623,231.134084 L400.400623,404.318569 Z" id="Fill-20-Copy" fill="url(#linearGradient-13)"></path>
                        <path d="M415.793939,417.015107 L72.672792,417.015107 C65.6608675,417.015107 59.9760229,411.330262 59.9760229,404.318338 L59.9760229,404.318338 L428.490709,404.318338 L428.490709,404.318338 C428.490709,411.330262 422.805864,417.015107 415.793939,417.015107" id="Fill-21" fill="#2181C1"></path>
                        <polygon id="Fill-22" fill="#FFFFFF" points="99.3798966 404.318338 388.628998 404.318338 388.628998 240.170469 99.3798966 240.170469"></polygon>
                        <g id="Page-1" transform="translate(194.192757, 274.951739)" fill="#000000" opacity="0.101392663">
                            <polygon id="Fill-1" points="59.5437532 0.00183998496 39.6105828 19.9350104 58.9610913 19.818478 58.9610913 39.635116 79.3603912 39.635116 79.3603912 0.00183998496"></polygon>
                            <polygon id="Fill-2" points="79.4707903 58.9715179 59.6541523 58.9715179 59.6541523 79.3708178 99.2874283 79.3708178 99.2874283 59.5541798 79.3542579 39.6210094"></polygon>
                            <polygon id="Fill-3" points="19.932557 59.6173526 19.932557 99.2506286 39.749195 99.2506286 59.6823654 79.3174582 40.3318569 79.4339906 40.3318569 59.6173526"></polygon>
                            <polygon id="Fill-4" points="0 19.9123172 0 39.7289552 19.9331704 59.6621256 19.816638 40.3116171 39.633276 40.3116171 39.633276 19.9123172"></polygon>
                        </g>
                        <polygon id="Stroke-23" stroke="#DDDDDD" stroke-width="1.2" points="99.3798966 404.318338 388.628998 404.318338 388.628998 240.170469 99.3798966 240.170469"></polygon>
                        <g id="Paper-icon" transform="translate(157.829400, 151.408518) rotate(58.000000) translate(-157.829400, -151.408518) translate(129.829400, 119.908518)">
                            <g id="Fill-1">
                                <use fill="black" fill-opacity="1" filter="url(#filter-15)" xlink:href="#path-14"></use>
                                <use fill="#FFFFFF" fill-rule="evenodd" xlink:href="#path-14"></use>
                            </g>
                            <path d="M49.2537522,9.30816612 L21.7622139,9.30816612 C21.7333597,8.53165772 21.6946438,7.75514933 21.6457011,6.97827569 L49.1372395,6.97827569 C49.1858169,7.75514933 49.2245327,8.53165772 49.2537522,9.30816612" id="Fill-3" fill="#DDDDDD"></path>
                            <path d="M38.5301567,14.3838136 L21.8293823,14.3838136 C21.8366871,13.6073052 21.8363219,12.8304316 21.8279213,12.0539232 L38.5286957,12.0539232 C38.5370963,12.8304316 38.5374616,13.6073052 38.5301567,14.3838136" id="Fill-5" fill="#DDDDDD"></path>
                            <path d="M44.7208206,18.959004 L21.7122851,18.959004 C21.7436961,18.1824956 21.7699936,17.4059872 21.790082,16.6291136 L44.7986175,16.6291136 C44.7785291,17.4059872 44.7522315,18.1824956 44.7208206,18.959004" id="Fill-7" fill="#DDDDDD"></path>
                            <path d="M38.6540109,30.2934334 L6.56843558,30.2934334 C6.62833557,29.516925 6.68713983,28.7404166 6.74484835,27.9635429 L38.8304236,27.9635429 C38.7727151,28.7404166 38.7135456,29.516925 38.6540109,30.2934334" id="Fill-9" fill="#DDDDDD"></path>
                            <path d="M25.673391,35.3690809 L6.18178845,35.3690809 C6.23913174,34.5925725 6.29757075,33.8160641 6.3571055,33.0391904 L25.8487081,33.0391904 C25.7891733,33.8156988 25.7303691,34.5925725 25.673391,35.3690809" id="Fill-11" fill="#DDDDDD"></path>
                            <path d="M25.3636277,39.9443078 L5.87202516,39.9443078 C5.91877637,39.1677994 5.96918002,38.391291 6.02214037,37.6144173 L25.5137429,37.6144173 C25.4607826,38.3909257 25.4103789,39.1677994 25.3636277,39.9443078" id="Fill-13" fill="#DDDDDD"></path>
                            <path d="M18.3878722,11.84168 C18.4254923,14.8746648 15.8702465,17.3334863 12.8409141,17.3334863 C9.80391158,17.3334863 7.44187969,14.8746648 7.40425957,11.84168 C7.3702919,8.80869517 9.64137807,6.34987367 12.6743629,6.34987367 C15.7069825,6.34987367 18.3539045,8.80832993 18.3878722,11.84168" id="Fill-15" fill="#CE455F"></path>
                            <path d="M10.6552584,13.2633186 C10.6552584,13.1530149 10.6548932,13.0427113 10.6548932,12.9320424 L15.1473924,12.9320424 C15.1477576,13.0427113 15.1477576,13.1530149 15.1481229,13.2633186 L10.6552584,13.2633186 M15.6916057,10.6065349 L15.3070039,10.6065349 C15.260618,10.6065349 15.2208064,10.6229709 15.1882997,10.6496337 C15.1809948,10.6529209 15.1740552,10.6573038 15.1667503,10.6646087 C14.7836095,11.091944 14.3975468,11.5192793 14.0092926,11.9466145 C13.9482969,12.0068798 13.8474896,12.0061493 13.7864938,11.9447883 C13.5403195,11.6989792 13.2934147,11.4531701 13.0461446,11.207361 C12.9957409,11.1576879 12.9186745,11.1463653 12.8573135,11.1799677 C12.8120233,11.2048043 12.7667331,11.2296409 12.7214428,11.2548427 C12.6483941,11.2950195 12.6220965,11.3859653 12.663369,11.4593793 C12.7331306,11.5839274 12.802527,11.7081103 12.8719233,11.8326585 C12.9285361,11.9341963 12.8543916,12.0569182 12.7367831,12.0569182 C12.6790745,12.0569182 12.6250184,12.025142 12.5976252,11.9751036 C12.5033922,11.8023432 12.4087941,11.6299481 12.3134655,11.4571878 C12.2860722,11.4067842 12.2309203,11.3750079 12.1728466,11.3753732 C11.734554,11.3786604 11.2962614,11.3815823 10.8579688,11.3848695 C10.8192529,11.3848695 10.781998,11.3994793 10.7538743,11.4254116 C10.6779036,11.4948079 10.6019328,11.5642042 10.5259621,11.6336006 C10.5186572,11.6405402 10.5120829,11.6482103 10.506239,11.6558805 C10.5040475,11.5178183 10.501856,11.3797561 10.4992993,11.2413287 C10.4971079,11.1372342 10.4116408,11.0532281 10.3071811,11.0532281 L10.0621024,11.0532281 C9.9583732,11.0528629 9.87582809,11.1375994 9.87728907,11.2413287 C9.88642016,11.742078 9.89226406,12.2431925 9.89445553,12.7439418 C9.89518601,12.8480363 9.97992258,12.9320424 10.0836518,12.9320424 L10.1866506,12.9320424 C10.1877463,13.3783704 10.1870158,13.8243331 10.1829982,14.2706611 L10.6512408,14.2706611 C10.653067,14.0712379 10.6537975,13.8718148 10.6545279,13.6723917 L15.1473924,13.6723917 C15.1466619,13.8718148 15.1455662,14.0712379 15.1441052,14.2706611 L15.6123478,14.2706611 C15.6160002,13.8243331 15.617096,13.3783704 15.615635,12.9320424 L15.7230167,12.9320424 C15.8289374,12.9324077 15.9136739,12.8465754 15.9133087,12.7410199 C15.9103868,12.0934426 15.9019861,11.4455 15.8870111,10.7975574 C15.8848197,10.6916367 15.7967959,10.6065349 15.6916057,10.6065349" id="Fill-17" fill="#FFFFFF"></path>
                            <path d="M13.8508498,11.5846214 C13.8694772,11.6021531 13.899062,11.6017878 13.9162285,11.5838909 C14.1525412,11.3431952 14.3881235,11.1028648 14.6233405,10.8621691 C14.6474466,10.8373325 14.6357588,10.794599 14.6017911,10.7843721 C14.4111339,10.7270289 14.2204766,10.6693203 14.0298193,10.611977 C14.0184967,10.6083246 14.0049827,10.6094203 13.9947559,10.614899 C13.7606346,10.7357947 13.5265133,10.8566904 13.2920267,10.9775861 C13.263903,10.9921959 13.2584243,11.0309117 13.2825304,11.0531916 C13.4724572,11.2303349 13.6616535,11.4074781 13.8508498,11.5846214" id="Fill-19" fill="#FFFFFF"></path>
                            <path d="M14.7297361,10.3990764 C15.0018427,10.3990764 15.2166061,10.1781039 15.2085707,9.90599723 C15.1994396,9.63352533 14.9711622,9.41291805 14.6986903,9.41291805 C14.4265837,9.41255281 14.2140118,9.63352533 14.2224124,9.90599723 C14.2311782,10.1784691 14.4572642,10.3990764 14.7297361,10.3990764" id="Fill-21" fill="#FFFFFF"></path>
                            <path d="M25.0919228,53.0540048 L5.60032027,53.0540048 C5.57548369,52.2774964 5.5597782,51.500988 5.55210808,50.7241144 L25.0433454,50.7241144 C25.0510155,51.500988 25.0670863,52.2774964 25.0919228,53.0540048" id="Fill-23" fill="#DDDDDD"></path>
                            <path d="M25.3524878,57.6292317 L5.86088522,57.6292317 C5.79623706,56.8527233 5.74254622,56.0762149 5.6990822,55.2993413 L25.1906848,55.2993413 C25.2341488,56.0758497 25.2878396,56.8527233 25.3524878,57.6292317" id="Fill-25" fill="#DDDDDD"></path>
                        </g>
                    </g>
                </g>
            </g>
        </g>
    </g>
</svg>