<?xml version="1.0" encoding="UTF-8"?>
<svg width="633px" height="324px" viewBox="0 0 633 324" version="1.1" xmlns="http://www.w3.org/2000/svg" xmlns:xlink="http://www.w3.org/1999/xlink">
    <!-- Generator: Sketch 45.1 (43504) - http://www.bohemiancoding.com/sketch -->
    <title>Analytics illustration</title>
    <desc>Created with Sketch.</desc>
    <defs>
        <filter x="-6.7%" y="-23.2%" width="113.4%" height="146.3%" filterUnits="objectBoundingBox" id="filter-1">
            <feGaussianBlur stdDeviation="10" in="SourceGraphic"></feGaussianBlur>
        </filter>
        <linearGradient x1="50%" y1="0%" x2="50%" y2="100%" id="linearGradient-2">
            <stop stop-color="#0181CF" offset="0%"></stop>
            <stop stop-color="#22A4F4" offset="100%"></stop>
        </linearGradient>
        <circle id="path-3" cx="461.671505" cy="118.439287" r="111.899648"></circle>
        <filter x="-20.6%" y="-19.7%" width="141.1%" height="141.1%" filterUnits="objectBoundingBox" id="filter-4">
            <feOffset dx="0" dy="2" in="SourceAlpha" result="shadowOffsetOuter1"></feOffset>
            <feGaussianBlur stdDeviation="15" in="shadowOffsetOuter1" result="shadowBlurOuter1"></feGaussianBlur>
            <feColorMatrix values="0 0 0 0 0   0 0 0 0 0   0 0 0 0 0  0 0 0 0.2 0" type="matrix" in="shadowBlurOuter1"></feColorMatrix>
        </filter>
        <linearGradient x1="50%" y1="0%" x2="50%" y2="100%" id="linearGradient-5">
            <stop stop-color="#C6E67A" offset="0%"></stop>
            <stop stop-color="#96C032" offset="100%"></stop>
        </linearGradient>
        <linearGradient x1="50%" y1="0%" x2="50%" y2="100%" id="linearGradient-6">
            <stop stop-color="#FF4459" offset="0%"></stop>
            <stop stop-color="#F90D27" offset="100%"></stop>
        </linearGradient>
        <linearGradient x1="50%" y1="0%" x2="50%" y2="100%" id="linearGradient-7">
            <stop stop-color="#00DE15" offset="0%"></stop>
            <stop stop-color="#00BA09" offset="100%"></stop>
        </linearGradient>
        <path d="M94.3626584,60.9116331 L1.55169968,60.9116331 C0.695069414,60.9116331 -9.6685133e-05,60.2174339 -9.6685133e-05,59.3598368 L-9.6685133e-05,1.62140966 C-9.6685133e-05,0.764779394 0.695069414,0.069613295 1.55169968,0.069613295 L94.3626584,0.069613295 C95.2192887,0.069613295 95.9144548,0.764779394 95.9144548,1.62140966 L95.9144548,59.3598368 C95.9144548,60.2174339 95.2192887,60.9116331 94.3626584,60.9116331" id="path-8"></path>
        <filter x="-48.0%" y="-72.3%" width="195.9%" height="251.2%" filterUnits="objectBoundingBox" id="filter-9">
            <feOffset dx="0" dy="2" in="SourceAlpha" result="shadowOffsetOuter1"></feOffset>
            <feGaussianBlur stdDeviation="15" in="shadowOffsetOuter1" result="shadowBlurOuter1"></feGaussianBlur>
            <feColorMatrix values="0 0 0 0 0   0 0 0 0 0   0 0 0 0 0  0 0 0 0.2 0" type="matrix" in="shadowBlurOuter1"></feColorMatrix>
        </filter>
        <polygon id="path-10" points="2.62065575e-20 0.0698066653 2.62065575e-20 14.3714714 95.9141647 14.3714714 95.9141647 0.0698066653 0 0.0698066653"></polygon>
    </defs>
    <g id="Page-1" stroke="none" stroke-width="1" fill="none" fill-rule="evenodd">
        <g id="Desktop-HD-Copy-5" transform="translate(-249.000000, -2529.000000)">
            <g id="Intelligent" transform="translate(278.980934, 2548.340052)">
                <g id="Analytics-illustration" transform="translate(0.019066, 0.659948)">
                    <g transform="translate(0.000000, 0.840138)">
                        <path d="M46.892289,55.5939509 L46.892289,269.268092" id="Line" stroke="#C4C4C4" stroke-linecap="square"></path>
                        <path d="M46.892289,269.268092 L580.5,269.268092" id="Line" stroke="#DDDDDD" stroke-linecap="square"></path>
                        <path d="M46.4088633,222.375803 C46.4088633,222.375803 104.419942,68.6464437 220.442101,109.737625 C336.464259,150.828806 449.585864,268.301241 449.585864,268.301241 L46.4088633,268.784667 L46.4088633,222.375803 Z" id="Path-4" stroke="#C4C4C4"></path>
                        <path d="M57.5276535,277.965957 C57.5276535,277.965957 105.868803,145.994619 186.598523,148.411677 C267.328242,150.828734 276.996472,225.274104 342.257024,225.274104 C407.517576,225.274104 414.768748,184.667539 449.090964,204.48741 C483.41318,224.307281 504.199875,277.965957 504.199875,277.965957 L57.5276535,277.965957 Z" id="Path-3-Copy" fill="#000000" opacity="0.263983243" filter="url(#filter-1)"></path>
                        <path d="M47.8591403,268.297444 C47.8591403,268.297444 96.2002898,136.326106 176.930009,138.743163 C257.659729,141.160221 267.327959,215.605591 332.588511,215.605591 C397.849063,215.605591 405.100235,174.999025 439.422451,194.818897 C473.744667,214.638768 494.531362,268.297444 494.531362,268.297444 L47.8591403,268.297444 Z" id="Path-3" stroke="#27A6F4" fill="url(#linearGradient-2)"></path>
                        <path d="M47.8591403,73.9641259 L492.63702,73.9641259" id="Line" stroke="#EBEBEB" stroke-linecap="square" stroke-dasharray="1,1,3"></path>
                        <path d="M47.8591403,112.638179 L492.63702,112.638179" id="Line-Copy-2" stroke="#EBEBEB" stroke-linecap="square" stroke-dasharray="1,1,3"></path>
                        <path d="M47.8591403,151.312231 L492.63702,151.312231" id="Line-Copy-3" stroke="#EBEBEB" stroke-linecap="square" stroke-dasharray="1,1,3"></path>
                        <path d="M47.8591403,189.986284 L492.63702,189.986284" id="Line-Copy-4" stroke="#EBEBEB" stroke-linecap="square" stroke-dasharray="1,1,3"></path>
                        <path d="M47.8591403,228.660337 L492.63702,228.660337" id="Line-Copy-5" stroke="#EBEBEB" stroke-linecap="square" stroke-dasharray="1,1,3"></path>
                        <g id="Oval-8">
                            <use fill="black" fill-opacity="1" filter="url(#filter-4)" xlink:href="#path-3"></use>
                            <use fill="#FFFFFF" fill-rule="evenodd" xlink:href="#path-3"></use>
                        </g>
                        <path d="M409.72268,100.479733 L353.768094,78.8261312 C339.470297,119.316898 348.165191,166.107667 379.846008,198.932269 L423.142577,157.500757 C408.006519,141.944119 403.535799,119.88734 409.72268,100.479733" id="Fill-1" fill="url(#linearGradient-5)"></path>
                        <path d="M423.689331,77.5592659 C432.266269,68.9823278 442.8997,63.7294246 454.002054,61.7686501 L444.355778,2.60991845 C421.272203,6.51599778 399.135175,17.374705 381.319973,35.1899074 C369.235298,47.2755489 360.351868,61.3500035 354.667749,76.3594034 L410.57786,97.9965691 C413.340155,90.5431122 417.700654,83.547943 423.689331,77.5592659" id="Fill-3" fill="url(#linearGradient-6)"></path>
                        <g id="Group-7" transform="translate(380.939420, 0.689365)" fill="url(#linearGradient-7)">
                            <path d="M66.00897,1.5138958 L75.6571793,60.682296 C92.5693426,58.4914109 110.275291,63.8787065 123.266872,76.8702876 C145.500585,99.1040006 145.500585,135.152085 123.266872,157.385798 C101.467275,179.185395 66.3966773,179.596307 44.0788483,158.649473 L0.748439606,200.112892 C46.4108937,245.383771 120.122671,245.267749 165.635264,199.755157 C211.268712,154.121708 211.268712,80.1343777 165.635264,34.5009291 C138.482211,7.34787666 101.292275,-3.6461897 66.00897,1.5138958 Z" id="Fill-5"></path>
                        </g>
                        <g id="Page-1" transform="translate(0.000000, 69.613295)">
                            <g id="Group-3" transform="translate(0.000000, 0.896851)">
                                <g id="Fill-1">
                                    <use fill="black" fill-opacity="1" filter="url(#filter-9)" xlink:href="#path-8"></use>
                                    <use fill="#FFFFFF" fill-rule="evenodd" xlink:href="#path-8"></use>
                                </g>
                            </g>
                            <g id="Group-6" transform="translate(0.000000, 0.896851)">
                                <mask id="mask-11" fill="white">
                                    <use xlink:href="#path-10"></use>
                                </mask>
                                <g id="Clip-5"></g>
                                <path d="M95.9141647,14.3714714 L-0.000386740528,14.3714714 L-0.000386740528,1.62160303 C-0.000386740528,0.764972764 0.694779358,0.0698066653 1.55140963,0.0698066653 L94.3623683,0.0698066653 C95.2199655,0.0698066653 95.9141647,0.764972764 95.9141647,1.62160303 L95.9141647,14.3714714 Z" id="Fill-4" fill="#C4C4C4" mask="url(#mask-11)"></path>
                            </g>
                            <polygon id="Fill-7" fill="#00BA09" points="56.7754432 41.7849936 64.3188172 31.3874745 71.863158 41.7849936"></polygon>
                            <g id="Group-13" transform="translate(14.502770, 25.068134)">
                                <path d="M19.2374407,19.8423996 C20.5407563,19.8423996 21.518243,18.8320399 21.518243,17.4301055 C21.518243,16.029138 20.5407563,15.0516513 19.2374407,15.0516513 C17.9331583,15.0516513 16.9237655,16.029138 16.9237655,17.4301055 C16.9237655,18.8320399 17.9331583,19.8423996 19.2374407,19.8423996 L19.2374407,19.8423996 Z M19.2374407,12.1839703 C22.1051217,12.1839703 24.5821948,14.4976455 24.5821948,17.4301055 C24.5821948,20.3964054 22.1051217,22.6443347 19.2045678,22.6443347 C16.3368867,22.6443347 13.8926866,20.3635324 13.8926866,17.4301055 C13.8926866,14.4976455 16.3368867,12.1839703 19.2374407,12.1839703 L19.2374407,12.1839703 Z M5.61547246,8.59888558 C6.91878804,8.59888558 7.89627473,7.58852595 7.89627473,6.18659154 C7.89627473,4.78562398 6.91878804,3.80813729 5.61547246,3.80813729 C4.31119003,3.80813729 3.3008304,4.78562398 3.3008304,6.18659154 C3.3008304,7.58852595 4.31119003,8.59888558 5.61547246,8.59888558 L5.61547246,8.59888558 Z M3.20317842,22.3513787 L18.259954,1.23341223 L21.6487679,1.23341223 L6.62583209,22.3513787 L3.20317842,22.3513787 Z M5.61547246,0.940456278 C8.48218663,0.940456278 10.9592597,3.25413149 10.9592597,6.18659154 C10.9592597,9.15289139 8.48218663,11.4017876 5.58259952,11.4017876 C2.7149185,11.4017876 0.270718369,9.12001844 0.270718369,6.18659154 C0.270718369,3.25413149 2.7149185,0.940456278 5.61547246,0.940456278 L5.61547246,0.940456278 Z" id="Fill-9" fill="#DDDDDD"></path>
                                <path d="M19.2374407,19.8423996 C20.5407563,19.8423996 21.518243,18.8320399 21.518243,17.4301055 C21.518243,16.029138 20.5407563,15.0516513 19.2374407,15.0516513 C17.9331583,15.0516513 16.9237655,16.029138 16.9237655,17.4301055 C16.9237655,18.8320399 17.9331583,19.8423996 19.2374407,19.8423996 Z M19.2374407,12.1839703 C22.1051217,12.1839703 24.5821948,14.4976455 24.5821948,17.4301055 C24.5821948,20.3964054 22.1051217,22.6443347 19.2045678,22.6443347 C16.3368867,22.6443347 13.8926866,20.3635324 13.8926866,17.4301055 C13.8926866,14.4976455 16.3368867,12.1839703 19.2374407,12.1839703 Z M5.61547246,8.59888558 C6.91878804,8.59888558 7.89627473,7.58852595 7.89627473,6.18659154 C7.89627473,4.78562398 6.91878804,3.80813729 5.61547246,3.80813729 C4.31119003,3.80813729 3.3008304,4.78562398 3.3008304,6.18659154 C3.3008304,7.58852595 4.31119003,8.59888558 5.61547246,8.59888558 Z M3.20317842,22.3513787 L18.259954,1.23341223 L21.6487679,1.23341223 L6.62583209,22.3513787 L3.20317842,22.3513787 Z M5.61547246,0.940456278 C8.48218663,0.940456278 10.9592597,3.25413149 10.9592597,6.18659154 C10.9592597,9.15289139 8.48218663,11.4017876 5.58259952,11.4017876 C2.7149185,11.4017876 0.270718369,9.12001844 0.270718369,6.18659154 C0.270718369,3.25413149 2.7149185,0.940456278 5.61547246,0.940456278 Z" id="Stroke-11" stroke="#DDDDDD" stroke-width="2"></path>
                            </g>
                            <g id="Group-13-Copy" transform="translate(452.571132, 36.670350)">
                                <path d="M19.2374407,19.8423996 C20.5407563,19.8423996 21.518243,18.8320399 21.518243,17.4301055 C21.518243,16.029138 20.5407563,15.0516513 19.2374407,15.0516513 C17.9331583,15.0516513 16.9237655,16.029138 16.9237655,17.4301055 C16.9237655,18.8320399 17.9331583,19.8423996 19.2374407,19.8423996 L19.2374407,19.8423996 Z M19.2374407,12.1839703 C22.1051217,12.1839703 24.5821948,14.4976455 24.5821948,17.4301055 C24.5821948,20.3964054 22.1051217,22.6443347 19.2045678,22.6443347 C16.3368867,22.6443347 13.8926866,20.3635324 13.8926866,17.4301055 C13.8926866,14.4976455 16.3368867,12.1839703 19.2374407,12.1839703 L19.2374407,12.1839703 Z M5.61547246,8.59888558 C6.91878804,8.59888558 7.89627473,7.58852595 7.89627473,6.18659154 C7.89627473,4.78562398 6.91878804,3.80813729 5.61547246,3.80813729 C4.31119003,3.80813729 3.3008304,4.78562398 3.3008304,6.18659154 C3.3008304,7.58852595 4.31119003,8.59888558 5.61547246,8.59888558 L5.61547246,8.59888558 Z M3.20317842,22.3513787 L18.259954,1.23341223 L21.6487679,1.23341223 L6.62583209,22.3513787 L3.20317842,22.3513787 Z M5.61547246,0.940456278 C8.48218663,0.940456278 10.9592597,3.25413149 10.9592597,6.18659154 C10.9592597,9.15289139 8.48218663,11.4017876 5.58259952,11.4017876 C2.7149185,11.4017876 0.270718369,9.12001844 0.270718369,6.18659154 C0.270718369,3.25413149 2.7149185,0.940456278 5.61547246,0.940456278 L5.61547246,0.940456278 Z" id="Fill-9" fill="#DDDDDD"></path>
                                <path d="M19.2374407,19.8423996 C20.5407563,19.8423996 21.518243,18.8320399 21.518243,17.4301055 C21.518243,16.029138 20.5407563,15.0516513 19.2374407,15.0516513 C17.9331583,15.0516513 16.9237655,16.029138 16.9237655,17.4301055 C16.9237655,18.8320399 17.9331583,19.8423996 19.2374407,19.8423996 Z M19.2374407,12.1839703 C22.1051217,12.1839703 24.5821948,14.4976455 24.5821948,17.4301055 C24.5821948,20.3964054 22.1051217,22.6443347 19.2045678,22.6443347 C16.3368867,22.6443347 13.8926866,20.3635324 13.8926866,17.4301055 C13.8926866,14.4976455 16.3368867,12.1839703 19.2374407,12.1839703 Z M5.61547246,8.59888558 C6.91878804,8.59888558 7.89627473,7.58852595 7.89627473,6.18659154 C7.89627473,4.78562398 6.91878804,3.80813729 5.61547246,3.80813729 C4.31119003,3.80813729 3.3008304,4.78562398 3.3008304,6.18659154 C3.3008304,7.58852595 4.31119003,8.59888558 5.61547246,8.59888558 Z M3.20317842,22.3513787 L18.259954,1.23341223 L21.6487679,1.23341223 L6.62583209,22.3513787 L3.20317842,22.3513787 Z M5.61547246,0.940456278 C8.48218663,0.940456278 10.9592597,3.25413149 10.9592597,6.18659154 C10.9592597,9.15289139 8.48218663,11.4017876 5.58259952,11.4017876 C2.7149185,11.4017876 0.270718369,9.12001844 0.270718369,6.18659154 C0.270718369,3.25413149 2.7149185,0.940456278 5.61547246,0.940456278 Z" id="Stroke-11" stroke="#DDDDDD" stroke-width="2"></path>
                            </g>
                        </g>
                    </g>
                </g>
            </g>
        </g>
    </g>
</svg>