<?xml version="1.0" encoding="UTF-8"?>
<svg width="166px" height="54px" viewBox="0 0 166 54" version="1.1" xmlns="http://www.w3.org/2000/svg" xmlns:xlink="http://www.w3.org/1999/xlink">
    <!-- Generator: Sketch 45.1 (43504) - http://www.bohemiancoding.com/sketch -->
    <title>Fill 34</title>
    <desc>Created with Sketch.</desc>
    <defs></defs>
    <g id="Symbols" stroke="none" stroke-width="1" fill="none" fill-rule="evenodd">
        <g id="Footer" transform="translate(-884.000000, 0.000000)" fill="#F2F2F2">
            <g id="Page-1">
                <g transform="translate(531.000000, 0.000000)">
                    <g id="Group-36" transform="translate(0.000000, 0.118998)">
                        <path d="M497.566616,27.2284868 C489.058636,27.2284868 481.731251,32.2973435 478.446118,39.5862312 C476.482738,38.6879528 474.314038,38.1874834 472.017011,38.1874834 L471.837356,38.1874834 C471.952849,37.032554 472.017011,35.8647921 472.017011,34.6841976 C472.017011,15.6150302 456.566623,0.1646416 437.497455,0.1646416 C420.519993,0.1646416 406.40419,12.4325581 403.542531,28.6015695 C401.21984,27.7161236 398.691828,27.2284868 396.048323,27.2284868 C387.283692,27.2284868 379.789484,32.5924921 376.645509,40.2278586 C374.386981,38.9317712 371.769141,38.1874834 368.971645,38.1874834 C360.412335,38.1874834 353.469927,45.1298922 353.469927,53.6892022 L375.798561,53.6892022 L384.473364,53.6892022 L408.701216,53.6892022 L416.298085,53.6892022 L456.50246,53.6892022 L466.306527,53.6892022 L477.316854,53.6892022 L487.51873,53.6892022 L517.816378,53.6892022 C518.291182,51.9439756 518.547833,50.1089211 518.547833,48.2097039 C518.547833,36.6219124 509.154407,27.2284868 497.566616,27.2284868" id="Fill-34"></path>
                    </g>
                </g>
            </g>
        </g>
    </g>
</svg>