<?xml version="1.0" encoding="UTF-8"?>
<svg width="1537px" height="378px" viewBox="0 0 1537 378" version="1.1" xmlns="http://www.w3.org/2000/svg" xmlns:xlink="http://www.w3.org/1999/xlink">
    <!-- Generator: Sketch 45.1 (43504) - http://www.bohemiancoding.com/sketch -->
    <title>Icons on hero</title>
    <desc>Created with Sketch.</desc>
    <defs>
        <polygon id="path-1" points="0 31.4148963 50.3660325 31.4148963 50.3660325 0 0 0"></polygon>
        <polygon id="path-3" points="41.9258908 -3.74000638e-06 0 -3.74000638e-06 0 43.6105868 41.9258908 43.6105868 41.9258908 -3.74000638e-06"></polygon>
        <polygon id="path-5" points="0.186198649 47.7427366 18.4202233 47.7427366 18.4202233 47.7427366 36.6544763 47.7427366 36.6544763 -2.10655699e-13 0.186198649 -2.27373675e-13 0.186198649 47.7427366"></polygon>
        <polygon id="path-7" points="0.0562447605 35.6556105 55.2650985 35.6556105 55.2650985 2.66277993e-06 0.0562447605 2.66277993e-06"></polygon>
        <polygon id="path-9" points="29.1750694 5.06894251 29.1750694 9.94530694 0 9.94530694 0 0.192578082 29.1750694 0.192578082 29.1750694 5.06894251"></polygon>
        <polygon id="path-11" points="33.5273871 31.2470214 33.5273871 -1.7302807e-06 0 -1.7302807e-06 0 31.2470214 33.5273871 31.2470214"></polygon>
        <polygon id="path-13" points="21.2135713 0.178932041 21.2135713 25.0300738 0.0200054615 25.0300738 0.0200054615 0.178932041 21.2135713 0.178932041"></polygon>
        <polygon id="path-15" points="0 22.1997192 26.3066157 22.1997192 26.3066157 -1.99949318e-06 0 -1.99949318e-06"></polygon>
        <polygon id="path-17" points="0.23116108 35.0429038 43.4197958 35.0429038 43.4197958 0 0.23116108 0 0.23116108 35.0429038"></polygon>
        <polygon id="path-19" points="0.117099911 26.7680564 26.539683 26.7680564 26.539683 8.80007437e-05 0.117099911 8.80007437e-05"></polygon>
        <polygon id="path-21" points="32.2906696 32.7570923 32.2906696 0.138783367 0 0.138783367 0 32.7570923 32.2906696 32.7570923"></polygon>
        <polygon id="path-23" points="0.0756321176 22.2893043 33.1622058 22.2893043 33.1622058 0.0397821545 0.0756321176 0.0397821545 0.0756321176 22.2893043"></polygon>
        <polygon id="path-25" points="0.0756321176 22.2893043 33.1622058 22.2893043 33.1622058 0.0397821545 0.0756321176 0.0397821545 0.0756321176 22.2893043"></polygon>
        <polygon id="path-27" points="0 27.6350477 23.5290561 27.6350477 23.5290561 1.93978303e-06 0 1.93978303e-06"></polygon>
        <polygon id="path-29" points="34.9813793 34.9811429 34.9813793 0.000236408592 4.72817192e-05 0.000236408592 4.72817192e-05 34.9811429"></polygon>
    </defs>
    <g id="Page-1" stroke="none" stroke-width="1" fill="none" fill-rule="evenodd">
        <g id="Desktop-HD-Copy-5" transform="translate(-65.000000, -186.000000)">
            <g id="Icons-on-hero" transform="translate(64.851409, 186.051251)">
                <g>
                    <g id="Responsive-icon" opacity="0.08" transform="translate(456.000000, 346.000000)">
                        <path d="M33.3122316,24.2165749 L33.3122316,27.5891218 L31.454887,27.5891218 L31.454887,28.451143 C31.454887,29.5131176 32.1969362,30.3751388 33.1078348,30.3751388 L33.3122316,30.3751388 L33.3122316,31.4148963 L24.7986614,31.4148963 L24.7986614,24.2165749 L33.3122316,24.2165749 Z" id="Fill-1" fill="#FFFFFF"></path>
                        <mask id="mask-2" fill="white">
                            <use xlink:href="#path-1"></use>
                        </mask>
                        <g id="Clip-4"></g>
                        <path d="M5.77198731,8.61132518 L7.98036121,8.61132518 L7.98036121,6.74953713 L5.77198731,6.74953713 L5.77198731,8.61132518 Z M49.4906811,0 L6.64733874,0 C6.16300724,0 5.77198731,0.391019926 5.77198731,0.875351425 L5.77198731,5.1721272 L7.98036121,5.1721272 L7.98036121,2.09728869 L48.162102,2.09728869 L48.162102,24.2165749 L24.7986614,24.2165749 L24.7986614,27.5846784 L49.4906811,27.5846784 C49.9750126,27.5846784 50.3660325,27.1936585 50.3660325,26.709327 L50.3660325,0.875351425 C50.3660325,0.391019926 49.9750126,0 49.4906811,0 L49.4906811,0 Z M21.3461332,27.5846784 L23.0835058,27.5846784 L23.0835058,24.2165749 L21.3461332,24.2165749 L21.3461332,27.5846784 Z" id="Fill-3" fill="#FFFFFF" mask="url(#mask-2)"></path>
                        <path d="M13.268017,30.4951552 C12.8725537,30.4951552 12.5526283,30.1752298 12.5526283,29.7797665 C12.5526283,29.3843032 12.8725537,29.0643778 13.268017,29.0643778 C13.659037,29.0643778 13.9834058,29.3843032 13.9834058,29.7797665 C13.9834058,30.1752298 13.659037,30.4951552 13.268017,30.4951552 L13.268017,30.4951552 Z M22.2125978,6.74958156 L4.31899282,6.74958156 C3.83910473,6.74958156 3.4480848,7.14060149 3.4480848,7.62493299 L3.4480848,14.0856486 L5.18545742,14.0856486 L5.18545742,8.61136962 L21.3461332,8.61136962 L21.3461332,28.2112434 L10.0954235,28.2112434 L10.0954235,31.4149407 L22.2125978,31.4149407 C22.6924859,31.4149407 23.0835058,31.0239208 23.0835058,30.5395893 L23.0835058,7.62493299 C23.0835058,7.14060149 22.6924859,6.74958156 22.2125978,6.74958156 L22.2125978,6.74958156 Z M3.4480848,17.0538453 L5.18545742,17.0538453 L5.18545742,15.6186244 L3.4480848,15.6186244 L3.4480848,17.0538453 Z" id="Fill-5" fill="#FFFFFF" mask="url(#mask-2)"></path>
                        <path d="M1.40856041,29.0643333 L7.1138966,29.0643333 L7.1138966,17.0538009 L1.40856041,17.0538009 L1.40856041,29.0643333 Z M4.26122851,30.6995076 C4.00351083,30.6995076 3.79022723,30.486224 3.79022723,30.2285063 C3.79022723,29.9663452 4.00351083,29.7530616 4.26122851,29.7530616 C4.5233896,29.7530616 4.73222978,29.9663452 4.73222978,30.2285063 C4.73222978,30.486224 4.5233896,30.6995076 4.26122851,30.6995076 L4.26122851,30.6995076 Z M7.64710559,15.61858 L0.875351425,15.61858 C0.391019926,15.61858 0,16.0095999 0,16.489488 L0,30.5395449 C0,31.0238764 0.391019926,31.4148963 0.875351425,31.4148963 L7.64710559,31.4148963 C8.13143709,31.4148963 8.52245702,31.0238764 8.52245702,30.5395449 L8.52245702,16.489488 C8.52245702,16.0095999 8.13143709,15.61858 7.64710559,15.61858 L7.64710559,15.61858 Z" id="Fill-6" fill="#FFFFFF" mask="url(#mask-2)"></path>
                    </g>
                    <g id="Search-icon-header" transform="translate(1495.000000, 231.500000)">
                        <mask id="mask-4" fill="white">
                            <use xlink:href="#path-3"></use>
                        </mask>
                        <g id="Clip-2"></g>
                        <path d="M14.3781882,24.442925 C9.41073436,24.442925 5.29802559,20.8120531 4.51107782,16.054663 L8.87682012,16.054663 L10.0572398,13.3293884 L12.0076588,18.6609715 L13.3067273,14.9390588 L15.8867084,20.2706419 L17.9933067,14.7824602 L18.409779,16.054663 L24.2452996,16.054663 C23.4583513,20.8120531 19.345642,24.442925 14.3781882,24.442925 M14.3781882,4.35965176 C19.8444455,4.35965176 24.2791977,8.75286724 24.3833172,14.2082729 L19.7439583,14.2082729 L18.1337439,9.28092781 L15.6917861,15.6407123 L13.0306922,10.1403926 L11.9664961,13.1885715 L10.202522,8.36441092 L7.6697614,14.2082729 L4.37305968,14.2082729 C4.47717863,8.75286724 8.91193085,4.35965176 14.3781882,4.35965176 M41.4419169,38.0935748 L28.7817517,25.3994996 C28.1364533,24.7524728 27.0904188,24.7524728 26.4451204,25.3994996 L26.3434205,25.5014714 L24.9814009,24.1370095 C27.3289236,21.5695461 28.76359,18.1511179 28.76359,14.4012855 C28.76359,6.44761232 22.310617,-0.0226383719 14.3781882,-0.0226383719 C6.44575931,-0.0226383719 -0.00721129895,6.44761232 -0.00721129895,14.4012855 C-0.00721129895,22.3549644 6.44575931,28.8252151 14.3781882,28.8252151 C17.5114522,28.8252151 20.4122578,27.8127954 22.7767351,26.1011531 L24.261036,27.589432 L23.7634451,28.0883545 C23.1181467,28.7353813 23.1181467,29.7842207 23.7634451,30.4312418 L36.423616,43.1253182 C37.0689088,43.772343 38.1149489,43.772343 38.7602417,43.1253182 L41.4419169,40.436461 C42.0872154,39.7894359 42.0872154,38.7405999 41.4419169,38.0935748" id="Fill-1" fill-opacity="0.1045" fill="#FFFFFF" mask="url(#mask-4)"></path>
                    </g>
                    <g id="Med-icon-header" transform="translate(1226.500000, 18.492437)">
                        <mask id="mask-6" fill="white">
                            <use xlink:href="#path-5"></use>
                        </mask>
                        <g id="Clip-2"></g>
                        <path d="M21.1842887,45.3813505 C17.3413303,48.7355282 11.5388316,48.5910972 7.88924185,44.9081088 C4.23965214,41.2266589 4.09652851,35.3695231 7.42029218,31.4913975 L21.1842887,45.3813505 Z M8.78146461,30.1838386 C12.618333,27.1369618 18.183312,27.3781912 21.7217532,30.9490155 C25.2601984,34.521377 25.4992437,40.1357422 22.4799932,44.009257 L8.78146461,30.1838386 Z M31.9062003,15.2644339 L24.1883124,23.0514093 L13.9262174,12.6954044 L21.64258,4.90689967 C24.660309,1.86310115 29.4168029,1.70942109 32.2457317,4.56424686 C35.0746605,7.41907262 34.9224039,12.2190903 31.9062003,15.2644339 L31.9062003,15.2644339 Z M33.9022844,2.72659566 C30.2313779,-0.977882037 24.2583487,-0.977882037 20.5874422,2.72659566 L2.93937882,20.536162 C-0.731528074,24.2406593 -0.731528074,30.268345 2.93937882,33.9728462 C3.1464477,34.1818103 3.36417498,34.3754064 3.58494684,34.5613244 C4.10414389,32.669895 5.09228826,30.8814104 6.56613063,29.3940784 C10.7333935,25.1886798 17.265204,24.8460387 21.8313802,28.343113 L33.9022844,16.1617466 C37.5731909,12.4572493 37.5731909,6.429544 33.9022844,2.72659566 L33.9022844,2.72659566 Z" id="Fill-1" fill-opacity="0.08" fill="#FFFFFF" mask="url(#mask-6)"></path>
                    </g>
                    <g id="Cloud-icon-header" transform="translate(218.637203, 61.035156)">
                        <mask id="mask-8" fill="white">
                            <use xlink:href="#path-7"></use>
                        </mask>
                        <g id="Clip-2"></g>
                        <path d="M31.6225572,20.4493944 L31.6225572,29.801232 L23.840607,29.801232 L23.840607,20.4493944 L20.6161244,20.4493944 L27.7304898,8.13505515 L34.8470463,20.4493944 L31.6225572,20.4493944 Z M43.5125449,10.1471179 C41.6886879,4.24608614 36.1865589,-0.0439866377 29.6808861,-0.0439866377 C23.6551654,-0.0439866377 18.4933777,3.63789145 16.3160916,8.87186572 C15.4368861,8.69311556 14.5271357,8.59719652 13.5955721,8.59719652 C6.11687092,8.59719652 0.0562447605,14.6551817 0.0562447605,22.1279317 C0.0562447605,29.5984971 6.11687092,35.6564824 13.5955721,35.6564824 C14.119167,35.6564824 14.6318553,35.6041645 15.1423623,35.5453068 L41.062558,35.5453068 C41.5752332,35.6085243 42.0922973,35.6564824 42.6202679,35.6564824 C43.1613068,35.6564824 43.6914392,35.6107042 44.2150538,35.5453068 C50.522207,34.7605374 55.4069182,29.3957656 55.4069182,22.8800017 C55.4069182,16.1244435 50.1556735,10.607078 43.5125449,10.1471179 L43.5125449,10.1471179 Z" id="Fill-1" fill-opacity="0.08" fill="#FFFFFF" mask="url(#mask-8)"></path>
                    </g>
                    <g id="Page-1" transform="translate(1170.000000, 254.000000)">
                        <polygon id="Fill-1" fill-opacity="0.08" fill="#FFFFFF" points="11.1429549 0.0537614878 11.1429549 11.7838617 5.80244726 11.7838617 14.5413459 22.8440376 23.2802416 11.7838617 17.9397368 11.7838617 17.9397368 0.0537614878"></polygon>
                        <g id="Group-5" transform="translate(0.000000, 20.462128)">
                            <mask id="mask-10" fill="white">
                                <use xlink:href="#path-9"></use>
                            </mask>
                            <g id="Clip-4"></g>
                            <path d="M27.3698797,2.73321756 L22.4883281,2.73321756 L22.4883281,1.87926804 L27.3698797,1.87926804 L27.3698797,2.73321756 Z M27.3698797,4.45608855 L22.4883281,4.45608855 L22.4883281,3.60213903 L27.3698797,3.60213903 L27.3698797,4.45608855 Z M27.3698797,6.17895953 L22.4883281,6.17895953 L22.4883281,5.32501001 L27.3698797,5.32501001 L27.3698797,6.17895953 Z M3.10405532,5.36368305 C2.24679828,5.36368305 1.55148806,4.67066849 1.55148806,3.81547154 C1.55148806,2.9602746 2.24679828,2.2672572 3.10405532,2.2672572 C3.96068723,2.2672572 4.65599774,2.9602746 4.65599774,3.81547154 C4.65599774,4.67066849 3.96068723,5.36368305 3.10405532,5.36368305 L3.10405532,5.36368305 Z M27.9964084,0.192578082 L19.0711774,0.192578082 L14.5416584,5.92508142 L10.0121366,0.192578082 L1.0862807,0.192578082 C0.435365188,0.192578082 -0.0923700787,0.719045692 -0.0923700787,1.36839751 L-0.0923700787,8.820027 C-0.0923700787,9.46937797 0.435365188,9.99584513 1.0862807,9.99584513 L27.9964084,9.99584513 C28.6473146,9.99584513 29.1750694,9.46937797 29.1750694,8.820027 L29.1750694,1.36839751 C29.1750694,0.719045692 28.6473146,0.192578082 27.9964084,0.192578082 L27.9964084,0.192578082 Z" id="Fill-3" fill-opacity="0.08" fill="#FFFFFF" mask="url(#mask-10)"></path>
                        </g>
                    </g>
                    <g id="hero-icon" opacity="0.08" transform="translate(1356.000000, 331.000000)" fill="#FFFFFF">
                        <polygon id="Fill-1" points="0 35.0701 6.958 35.0701 6.958 20.0171 0 20.0171"></polygon>
                        <polygon id="Fill-2" points="11.765 35.0701 18.723 35.0701 18.723 9.9901 11.765 9.9901"></polygon>
                        <polygon id="Fill-3" points="23.143 35.0701 30.101 35.0701 30.101 0.0001 23.143 0.0001"></polygon>
                    </g>
                    <g id="Page-1" transform="translate(1468.000000, 23.492437)">
                        <mask id="mask-12" fill="white">
                            <use xlink:href="#path-11"></use>
                        </mask>
                        <g id="Clip-2"></g>
                        <polygon id="Fill-1" fill-opacity="0.08" fill="#FFFFFF" mask="url(#mask-12)" points="24.3277415 -0.212100955 24.3277415 22.3615921 24.2197406 22.3615921 8.89138299 -0.212100955 3.60192535 -0.212100955 3.60192535 8.95298099 -0.0293068078 8.95298099 -0.0293068078 13.7188714 3.60192535 13.7188714 3.60192535 17.3173677 -0.0293068078 17.3173677 -0.0293068078 22.081942 3.60192535 22.081942 3.60192535 31.2470214 8.93616056 31.2470214 8.93616056 8.99782672 9.02045669 8.99782672 24.2197406 31.2470214 29.6593446 31.2470214 29.6593446 22.081942 33.5276545 22.081942 33.5276545 17.3173677 29.6593446 17.3173677 29.6593446 13.7188714 33.5276545 13.7188714 33.5276545 8.95298099 29.6593446 8.95298099 29.6593446 -0.212100955"></polygon>
                    </g>
                    <g id="Page-1" transform="translate(1344.000000, 173.000000)">
                        <mask id="mask-14" fill="white">
                            <use xlink:href="#path-13"></use>
                        </mask>
                        <g id="Clip-2"></g>
                        <path d="M6.40882016,13.3469128 L8.6651652,9.56933792 L8.6651652,1.54286306 L12.6602019,1.54286306 L12.6602019,9.68141633 L14.916547,13.3469128 L6.40882016,13.3469128 Z M21.0166968,20.9450978 L14.0619169,9.06999867 L14.0619169,0.178932041 L7.3487095,0.178932041 L7.3487095,9.06999867 L0.394946347,20.9450978 C-0.670803466,22.7643388 0.661891102,25.0398912 2.79237571,25.0398912 L18.6182529,25.0398912 C20.749749,25.0398912 22.082447,22.7643388 21.0166968,20.9450978 L21.0166968,20.9450978 Z" id="Fill-1" fill-opacity="0.08" fill="#FFFFFF" mask="url(#mask-14)"></path>
                    </g>
                    <g id="comments-header" transform="translate(678.213842, 22.765625)">
                        <mask id="mask-16" fill="white">
                            <use xlink:href="#path-15"></use>
                        </mask>
                        <g id="Clip-2"></g>
                        <path d="M21.9046251,6.0261467 L4.33469157,6.0261467 L4.33469157,3.60225787 L21.9046251,3.60225787 L21.9046251,6.0261467 Z M16.1098939,10.974444 L4.33469157,10.974444 L4.33469157,8.5505552 L16.1098939,8.5505552 L16.1098939,10.974444 Z M26.3410909,3.83248661 C26.3410909,3.66305859 26.3500918,3.48876406 26.312453,3.32582149 C25.8239671,1.20917737 24.2169551,-0.0635677579 22.0936385,-0.0481652105 C19.1062667,-0.0270866825 16.119714,-0.0433019271 13.1331581,-0.0433019271 C10.1580606,-0.0433019271 7.18296315,-0.0133063046 4.20868158,-0.0522190217 C1.72043326,-0.084646286 -0.0960459448,1.77663998 -0.0993188894,4.20863643 C-0.103410046,6.99813258 -0.105046502,9.78763195 -0.0952277006,12.5771281 C-0.0935912444,12.9848925 -0.0526795501,13.3975202 0.0209615029,13.7987991 C0.353982531,15.6138777 1.89471715,16.9530963 3.75374528,17.0276774 C4.6333449,17.0625363 5.51622111,17.0398388 6.39745903,17.0422705 C6.93749311,17.0438927 6.93749311,17.04308 6.93831226,17.5821723 C6.93831226,18.9651669 6.93012724,20.3473501 6.94976742,21.7303444 C6.95222164,21.8916668 7.06759239,22.1121674 7.20014589,22.1891806 C7.28360538,22.2378205 7.54216887,22.1113568 7.64199196,21.9954317 C8.97243859,20.4592221 10.2906141,18.9132833 11.6030621,17.3616734 C11.7920755,17.1387396 11.9917217,17.035785 12.2920165,17.0365945 C15.1812003,17.0463243 18.0703841,17.04308 20.9587487,17.0414578 C21.5585128,17.0406483 22.1599152,17.0536192 22.7580442,17.0171381 C24.638345,16.9012127 26.3410909,15.0885689 26.34191,13.2199845 C26.3427259,10.0908196 26.3427259,6.96165473 26.3410909,3.83248661 L26.3410909,3.83248661 Z" id="Fill-1" fill-opacity="0.08" fill="#FFFFFF" mask="url(#mask-16)"></path>
                    </g>
                    <g id="hero-icon" transform="translate(1007.337793, 333.500000)">
                        <mask id="mask-18" fill="white">
                            <use xlink:href="#path-17"></use>
                        </mask>
                        <g id="Clip-2"></g>
                        <path d="M31.789432,3.48441969 C31.789432,1.50865204 33.3807407,-0.0933607549 35.3433096,-0.0933607549 C37.3073766,-0.0933607549 38.8986853,1.50865204 38.8986853,3.48441969 C38.8986853,5.46018735 37.3073766,7.06220014 35.3433096,7.06220014 C33.3807407,7.06220014 31.789432,5.46018735 31.789432,3.48441969 L31.789432,3.48441969 Z M24.8029264,11.8094644 C24.6337694,11.6482117 24.6741859,11.3663872 24.8822682,11.260892 L30.0079987,8.62955178 C30.0858422,8.590369 30.1756643,8.58132578 30.2594938,8.60694373 L34.3537886,9.8578165 C34.5992978,9.93316538 34.67565,10.2421195 34.4960058,10.4244686 L29.3029121,15.6600261 C29.1741716,15.7896343 28.9645912,15.792651 28.8313562,15.6660594 L24.8029264,11.8094644 Z M5.70569183,25.4454222 L38.0903067,25.4454222 L38.0903067,27.8476924 L5.70569183,27.8476924 L5.70569183,25.4454222 Z M42.239993,8.56776095 L39.4660492,8.56776095 C39.1382087,8.56776095 38.8418025,8.68832594 38.6052755,8.8812367 C38.5528804,8.9053497 38.5004853,8.93849914 38.446592,8.99124675 L29.9376391,18.292878 C29.4945281,18.7314336 28.7699789,18.726912 28.3328537,18.2808181 L23.0753864,12.9277123 C22.7220974,12.5675223 22.1652139,12.48614 21.7206047,12.7302867 L20.7310837,13.2713276 C20.1966592,13.5652052 19.9975592,14.2268043 20.2864745,14.7588019 L21.7505409,17.4654978 C22.1487477,18.2024526 21.6068323,19.0916236 20.7580304,19.0916236 C20.3388696,19.0916236 19.9556377,18.8640585 19.7610321,18.4993468 L17.7640326,14.7422204 C17.5694203,14.3744989 17.1817006,14.1454221 16.7595435,14.1484387 L7.28053903,14.2162561 C7.00209729,14.217761 6.73263437,14.3232563 6.52754509,14.5086287 L4.8583901,16.0232328 C4.80449752,16.0714588 4.75809101,16.1257113 4.71467745,16.1829805 L4.71467745,13.1763805 C4.71467745,12.4213393 4.10689568,11.8094644 3.35689807,11.8094644 L1.5889408,11.8094644 C0.838943188,11.8094644 0.23116108,12.4213393 0.23116108,13.1763805 L0.23116108,24.0785129 C0.23116108,24.8335541 0.838943188,25.4454222 1.5889408,25.4454222 L2.33145301,25.4454222 L2.33145301,35.1569753 L5.70569183,35.1569753 L5.70569183,30.8166172 L38.0903067,30.8166172 L38.0903067,35.1569753 L41.4645469,35.1569753 L41.4645469,25.4454222 L42.239993,25.4454222 C43.0004642,25.4454222 43.6157354,24.8245109 43.6157354,24.0589215 L43.6157354,9.95426849 C43.6157354,9.18867234 43.0004642,8.56776095 42.239993,8.56776095 L42.239993,8.56776095 Z" id="Fill-1" fill-opacity="0.08" fill="#FFFFFF" mask="url(#mask-18)"></path>
                    </g>
                    <g id="settings-con-header" transform="translate(261.435522, 280.337413)">
                        <mask id="mask-20" fill="white">
                            <use xlink:href="#path-19"></use>
                        </mask>
                        <g id="Clip-2"></g>
                        <path d="M13.2691642,18.2152796 C15.9320941,18.2792899 18.1186908,16.1559063 18.181389,13.4447941 C18.2414743,10.8471548 16.0734551,8.61117107 13.4447766,8.55938087 C10.7986844,8.50729971 8.5653542,10.6769454 8.52355543,13.3400498 C8.48262663,15.9606747 10.6149426,18.1515631 13.2691642,18.2152796 M17.0339538,26.7681728 C16.4005859,25.7591433 15.7724435,24.7870652 15.1773915,23.7952022 C14.9364682,23.3936856 14.6772582,23.2377331 14.1806077,23.304653 C13.5890414,23.384375 12.9736691,23.2729388 12.3760073,23.3270567 C12.0918333,23.3529518 11.721449,23.497557 11.5684759,23.7146074 C10.8866346,24.6811577 10.2692314,25.6930969 9.59725938,26.7376226 C8.65446535,26.346871 7.73605344,25.990743 6.84550932,25.5743873 C6.69543994,25.5042675 6.56075341,25.1548314 6.59703856,24.9694935 C6.79209849,23.9721021 7.0289601,22.9819855 7.28236256,21.9973956 C7.38569856,21.5952971 7.31835675,21.323544 6.97961393,21.0544125 C6.56568803,20.725053 6.13231753,20.3721261 5.84872545,19.9371495 C5.44554166,19.3191615 4.97008144,19.3174157 4.35732191,19.4762778 C3.49260887,19.7008931 2.6183196,19.8975795 1.73764325,20.0427637 C1.5457754,20.0744779 1.20035514,19.8932151 1.11443549,19.7171866 C0.775111042,19.02268 0.528091865,18.2836543 0.2128597,17.5766366 C0.0302804205,17.1672641 0.0996547315,16.9211152 0.498484455,16.6915537 C1.33649149,16.2088603 2.17101492,15.7133648 2.95880612,15.15415 C3.19624673,14.9856893 3.36634262,14.6022119 3.40436768,14.2967079 C3.47287332,13.7485494 3.361408,13.1776992 3.43020168,12.6298316 C3.50392998,12.0441397 3.33441309,11.6894671 2.81918585,11.3953133 C2.04300642,10.9521899 1.32459022,10.4083957 0.553345407,9.95625275 C0.121134659,9.70282992 0.0770137437,9.43689888 0.27642862,9.01297864 C0.564375556,8.39993688 0.832293824,7.77438692 1.05928445,7.13661388 C1.23576799,6.64082746 1.46362916,6.45869181 2.01804325,6.62511583 C2.91903823,6.89541412 3.85080211,7.06096528 4.76282753,7.29780361 C5.16136767,7.40138401 5.43305964,7.33911938 5.69894703,6.99055679 C6.00517841,6.58961918 6.35437238,6.19421264 6.76162083,5.90500511 C7.33722526,5.49650554 7.49135639,5.05570984 7.28933096,4.37196573 C7.03621654,3.5151056 6.86727866,2.62973177 6.72475668,1.74639463 C6.69340907,1.5514569 6.8707614,1.19736614 7.04463391,1.11618937 C7.89686201,0.718455182 8.7807316,0.388510876 9.73832948,8.72868536e-05 C10.339477,0.968965543 10.9580411,1.91398539 11.5191326,2.8924652 C11.7858899,3.35799218 12.0935732,3.55147513 12.625927,3.44440616 C12.9298394,3.38359632 13.2726469,3.3379162 13.5623345,3.41705628 C14.6644882,3.71790206 15.2514108,3.2011668 15.6978452,2.26138416 C16.0075623,1.60935718 16.4281627,1.0044622 16.851085,0.415860757 C16.9581947,0.26631219 17.303033,0.147311113 17.470519,0.206666174 C18.2670174,0.488890757 19.0542284,0.808357732 19.809798,1.18485503 C19.9758321,1.26748367 20.1099367,1.65620113 20.0710388,1.8694691 C19.8977482,2.82147189 19.6783061,3.7667827 19.4298354,4.70249195 C19.3093737,5.15725355 19.3598808,5.47031949 19.7598699,5.7682557 C20.1441881,6.05455658 20.533438,6.38624372 20.7888742,6.78281408 C21.2117965,7.43979022 21.72209,7.47644779 22.3966748,7.28907492 C23.3708194,7.01819763 24.3646995,6.81772882 25.4134423,6.57245567 C25.8128524,7.53871241 26.2206799,8.46511107 26.5614565,9.41565908 C26.6125455,9.5576457 26.3983261,9.88525945 26.2238746,10.0033877 C25.3823827,10.5722041 24.4938695,11.072061 23.6657326,11.6583348 C23.4489004,11.8113777 23.3037656,12.1779796 23.2747398,12.4616589 C23.2181372,13.0124361 23.3534027,13.5902721 23.2506487,14.1265015 C23.1249614,14.7843476 23.3879451,15.0910125 23.9118815,15.3842963 C24.7127325,15.8329478 25.4668531,16.3648128 26.256095,16.835868 C26.5838077,17.0313876 26.6845309,17.2141081 26.5083366,17.5911844 C26.1701728,18.3144956 25.8653904,19.0552671 25.5907976,19.8050554 C25.44392,20.2062811 25.2085131,20.2304304 24.8598982,20.1451803 C23.8976566,19.9100906 22.9293196,19.7008931 21.9682389,19.4602752 C21.5514122,19.3561129 21.257078,19.4137222 20.9641986,19.7829427 C20.5912015,20.2537069 20.1549273,20.6895564 19.6838198,21.0611045 C19.3105346,21.3549673 19.2638012,21.6520336 19.3694591,22.067807 C19.6135742,23.0299933 19.8571104,23.9936329 20.042883,24.9680387 C20.081199,25.1696699 19.9273559,25.5470378 19.7598699,25.6261772 C18.8899342,26.0370048 17.987199,26.3777121 17.0339538,26.7681728" id="Fill-1" fill-opacity="0.08" fill="#FFFFFF" mask="url(#mask-20)"></path>
                    </g>
                    <g id="injecstion-ico-head" transform="translate(101.410156, 203.000000)">
                        <mask id="mask-22" fill="white">
                            <use xlink:href="#path-21"></use>
                        </mask>
                        <g id="Clip-2"></g>
                        <path d="M18.5899697,6.92507881 C18.5447835,6.88030944 18.5014065,6.83374905 18.4489898,6.79703774 C17.9401931,6.43708871 17.0635826,6.83195803 16.7310153,7.56886923 C16.5340035,8.00492589 16.6008782,8.33353666 16.8521128,8.58245776 C17.2750555,9.0032953 17.6998043,9.42144482 18.1760667,9.89152777 C18.0206258,10.0150928 17.8913947,10.0983645 17.7847552,10.2040224 C13.8544675,14.0954151 9.92508592,17.9885989 5.99660435,21.8817826 C5.34592471,22.5273641 5.2573615,23.0780337 5.72368121,23.5445346 C6.00564098,23.827482 6.29031596,24.1068444 6.57408487,24.3879977 C7.29525445,25.1034198 8.01371184,25.8215298 8.74030581,26.5315788 C9.09275552,26.8754117 9.67565742,26.8440734 10.1347466,26.4124898 C10.6760776,25.9048015 11.194814,25.366669 11.7632549,24.7900311 L10.3389889,23.3788883 L11.6575184,22.0716093 L13.0691324,23.470218 C13.433334,23.109372 13.7984356,22.7476319 14.1761921,22.3733578 L12.7645781,20.974746 L14.0831076,19.668364 L15.47213,21.0445866 C15.8435591,20.6774765 16.2113729,20.3130485 16.5882263,19.9396683 L15.1992069,18.5625487 L16.5177364,17.2561637 L17.9130832,18.6386564 C18.2673421,18.2894534 18.6197918,17.9420385 18.9803781,17.5856715 L17.582319,16.2013879 L18.9008515,14.8950029 L20.3531304,16.333011 C21.0806274,15.6086339 21.7828207,14.90754 22.4976628,14.1957 C22.5735771,14.2637496 22.6413549,14.321056 22.7046173,14.3837326 C23.0796616,14.7535307 23.441151,15.1358659 23.8306533,15.4904419 C24.3448714,15.9587338 25.3470977,15.509246 25.6525581,14.6810051 C25.807996,14.2592735 25.6977443,13.962895 25.4555463,13.723826 C23.1646096,11.459368 20.8781942,9.19132788 18.5899697,6.92507881" id="Fill-1" fill-opacity="0.08" fill="#FFFFFF" mask="url(#mask-22)"></path>
                        <path d="M26.2754936,0.564366535 C25.7694091,1.0604147 25.6880734,1.68092794 26.0848062,2.07667314 C26.2944699,2.28621906 26.5167855,2.48320067 26.7879025,2.73569777 C25.0066656,4.45844127 23.2760392,6.13372735 21.5896959,7.76514109 L24.6090297,10.7566613 C26.2908547,9.09032723 27.9997956,7.39623698 29.7286128,5.68244856 C29.9437009,5.89823737 30.1506524,6.11313217 30.3657345,6.31907492 C30.7561338,6.69424607 31.3779156,6.61007736 31.8713361,6.12029624 C32.3647566,5.63140912 32.453341,5.01179592 32.0683479,4.6294607 C30.6413638,3.20936275 29.2116856,1.79285893 27.7792861,0.379012932 C27.3915899,-0.00332229043 26.7716354,0.0781644329 26.2754936,0.564366535" id="Fill-3" fill-opacity="0.08" fill="#FFFFFF" mask="url(#mask-22)"></path>
                        <polygon id="Fill-4" fill-opacity="0.08" fill="#FFFFFF" mask="url(#mask-22)" points="6.42009067 26.3872404 -0.00898848393 32.7570923 2.07770546 29.4933705 5.81640331 25.7891163"></polygon>
                    </g>
                    <g id="trends-icon-header" transform="translate(924.148189, 26.492437)">
                        <mask id="mask-24" fill="white">
                            <use xlink:href="#path-23"></use>
                        </mask>
                        <g id="Clip-2"></g>
                        <polygon id="Fill-1" fill-opacity="0.08" fill="#FFFFFF" mask="url(#mask-24)" points="20.7137102 0.36865317 24.9273322 4.60615339 16.0046571 13.5793955 10.7413081 8.28704176 0.0756321176 18.9671219 3.43410257 22.3454476 10.7184188 15.0198508 12.6453681 16.9577224 15.9850355 20.355779 28.2866175 7.98365868 32.8354342 12.5582496 33.1624501 0.0397821545"></polygon>
                    </g>
                    <g id="trends-icon-header-copy" transform="translate(0.261114, 351.781250)">
                        <mask id="mask-26" fill="white">
                            <use xlink:href="#path-25"></use>
                        </mask>
                        <g id="Clip-2"></g>
                        <polygon id="Fill-1" fill-opacity="0.08" fill="#FFFFFF" mask="url(#mask-26)" points="20.7137102 0.36865317 24.9273322 4.60615339 16.0046571 13.5793955 10.7413081 8.28704176 0.0756321176 18.9671219 3.43410257 22.3454476 10.7184188 15.0198508 12.6453681 16.9577224 15.9850355 20.355779 28.2866175 7.98365868 32.8354342 12.5582496 33.1624501 0.0397821545"></polygon>
                    </g>
                    <g id="notification-icon" transform="translate(388.888691, 0.781250)">
                        <mask id="mask-28" fill="white">
                            <use xlink:href="#path-27"></use>
                        </mask>
                        <g id="Clip-2"></g>
                        <path d="M20.7646204,19.3058897 L20.7646204,11.6973076 C20.7646204,7.4385924 17.8200944,3.86892968 13.8426846,2.92969595 L13.8426846,1.99046222 C13.8426846,0.832143848 12.9024163,-0.0759979299 11.774802,-0.0759979299 C10.6471876,-0.0759979299 9.70762594,0.8632358 9.70762594,1.99046222 L9.70762594,2.92969595 C5.72950957,3.86892968 2.78569107,7.4385924 2.78569107,11.6973076 L2.78569107,19.3058897 L-0.00259430838,22.0924989 L-0.00259430838,23.4699033 L23.5521995,23.4699033 L23.5521995,22.0924989 L20.7646204,19.3058897 Z M11.774802,27.6353304 C13.3096322,27.6353304 14.5623811,26.3823098 14.5623811,24.8480134 L8.98722284,24.8480134 C8.98722284,26.3823098 10.2399717,27.6353304 11.774802,27.6353304 L11.774802,27.6353304 Z" id="Fill-1" fill-opacity="0.08" fill="#FAFAFA" mask="url(#mask-28)"></path>
                    </g>
                    <g id="hero-icon" opacity="0.08" transform="translate(16.761114, 10.765625)">
                        <mask id="mask-30" fill="white">
                            <use xlink:href="#path-29"></use>
                        </mask>
                        <g id="Clip-2"></g>
                        <path d="M24.9837073,27.49361 L16.1127113,18.622614 L16.1112928,18.622614 L16.1112928,18.6211956 L16.1065646,18.6164674 L16.1112928,18.6112664 L16.1112928,6.06837214 L18.0025616,6.06837214 L18.0025616,17.8382103 L26.3208343,26.156483 L24.9837073,27.49361 Z M17.4905005,0.000236408592 C7.83084548,0.000236408592 4.72817192e-05,7.83103461 4.72817192e-05,17.4906897 C4.72817192e-05,27.1503447 7.83084548,34.9811429 17.4905005,34.9811429 C27.1506284,34.9811429 34.9814266,27.1503447 34.9814266,17.4906897 C34.9814266,7.83103461 27.1506284,0.000236408592 17.4905005,0.000236408592 L17.4905005,0.000236408592 Z" id="Fill-1" fill="#FFFFFF" mask="url(#mask-30)"></path>
                    </g>
                </g>
            </g>
        </g>
    </g>
</svg>