<?xml version="1.0" encoding="UTF-8"?>
<svg width="1680px" height="1050px" viewBox="0 0 1680 1050" version="1.1" xmlns="http://www.w3.org/2000/svg" xmlns:xlink="http://www.w3.org/1999/xlink">
    <!-- Generator: Sketch 45.1 (43504) - http://www.bohemiancoding.com/sketch -->
    <title>Desktop HD Copy 4</title>
    <desc>Created with Sketch.</desc>
    <defs>
        <linearGradient x1="50%" y1="100%" x2="50%" y2="3.061617e-15%" id="linearGradient-1">
            <stop stop-color="#9062BC" offset="0%"></stop>
            <stop stop-color="#3D1068" offset="100%"></stop>
        </linearGradient>
        <polygon id="path-2" points="814.221847 407.109517 814.221847 -1.42108547e-14 0 -1.42108547e-14 0 407.109517 0 814.219033 814.221847 814.219033"></polygon>
        <linearGradient x1="50%" y1="100%" x2="50%" y2="3.061617e-15%" id="linearGradient-4">
            <stop stop-color="#FFFFFF" offset="0%"></stop>
            <stop stop-color="#FFFFFF" stop-opacity="0" offset="100%"></stop>
        </linearGradient>
    </defs>
    <g id="Page-1" stroke="none" stroke-width="1" fill="none" fill-rule="evenodd">
        <g id="Desktop-HD-Copy-4">
            <g id="Hero" transform="translate(-94.000000, -70.000000)">
                <g id="Group-8">
                    <rect id="Rectangle-2" fill="url(#linearGradient-1)" x="94" y="70" width="1680" height="1050"></rect>
                    <g id="BG-Icon" opacity="0.05" transform="translate(0.500000, 0.447134)">
                        <mask id="mask-3" fill="white">
                            <use xlink:href="#path-2"></use>
                        </mask>
                        <g id="Clip-2"></g>
                        <path d="M569.898311,389.679543 L532.382046,389.679543 L532.382046,424.536677 L569.898311,424.536677 L569.898311,470.705671 L532.382046,470.705671 L532.382046,559.491118 L479.593361,559.491118 L332.138188,343.953736 L331.301054,343.953736 L331.301054,559.491118 L279.560545,559.491118 L279.560545,470.705671 L244.323535,470.705671 L244.323535,424.536677 L279.560545,424.536677 L279.560545,389.679543 L244.323535,389.679543 L244.323535,343.517582 L279.560545,343.517582 L279.560545,254.725101 L330.87897,254.725101 L479.593361,473.399977 L480.641537,473.399977 L480.641537,254.725101 L532.382046,254.725101 L532.382046,343.517582 L569.898311,343.517582 L569.898311,389.679543 Z M407.114441,-0.00281389578 C182.270099,-0.00281389578 0,182.267285 0,407.111627 C0,631.948934 182.270099,814.219033 407.114441,814.219033 C631.951748,814.219033 814.221847,631.948934 814.221847,407.111627 C814.221847,182.267285 631.951748,-0.00281389578 407.114441,-0.00281389578 L407.114441,-0.00281389578 Z" id="Fill-1" fill="#FFFFFF" mask="url(#mask-3)"></path>
                    </g>
                </g>
            </g>
            <rect id="Rectangle-3" fill="url(#linearGradient-4)" opacity="0.75" x="0" y="1048.82404" width="1680" height="2297.87985"></rect>
        </g>
    </g>
</svg>