<?xml version="1.0" encoding="UTF-8"?>
<svg width="1680px" height="475px" viewBox="0 0 1680 475" version="1.1" xmlns="http://www.w3.org/2000/svg" xmlns:xlink="http://www.w3.org/1999/xlink">
    <!-- Generator: Sketch 45.1 (43504) - http://www.bohemiancoding.com/sketch -->
    <title>Hero</title>
    <desc>Created with Sketch.</desc>
    <defs>
        <linearGradient x1="50%" y1="100%" x2="50%" y2="3.061617e-15%" id="linearGradient-1">
            <stop stop-color="#372997" offset="0%"></stop>
            <stop stop-color="#1D1552" offset="100%"></stop>
        </linearGradient>
        <polygon id="path-2" points="569.80168 0.143746038 0 0.143746038 0 569.944934 569.80168 569.944934"></polygon>
    </defs>
    <g id="Page-1" stroke="none" stroke-width="1" fill="none" fill-rule="evenodd">
        <g id="Helium-About">
            <g id="Hero" transform="translate(-89.000000, -108.000000)">
                <rect id="Rectangle-2" fill="url(#linearGradient-1)" x="89" y="108" width="1680" height="473.379658"></rect>
                <g id="Hero-Icons" opacity="0.05">
                    <path d="M408.59838,485.70529 L319.776791,485.70529 L302.100096,431.767679 L273.823644,505.232807 L242.712841,441.111202 L230.002967,477.412355 L209.143216,420.510745 L180.808646,485.70529 L115.336924,485.70529 C112.073397,475.682238 110.271751,464.715892 110.26281,452.435194 C110.240457,406.450754 147.53855,369.161602 193.522991,369.161602 C221.884384,369.161602 246.933073,385.631238 261.967652,407.291224 C277.00223,385.631238 302.05539,369.161602 330.416784,369.161602 C376.396754,369.161602 413.694847,406.450754 413.672494,452.435194 C413.663553,464.715892 411.866377,475.682238 408.59838,485.70529 M310.464561,593.01722 C295.273512,606.715094 276.452348,623.198142 261.967652,641.040248 C247.482955,623.198142 228.666262,606.715094 213.475213,593.01722 C177.218766,560.332771 141.597142,536.804081 123.178331,503.587632 L192.539462,503.587632 L207.730511,468.618713 L230.391908,530.424555 L245.386251,487.587407 L275.719172,550.095131 L300.749979,485.061526 L306.821034,503.587632 L400.756973,503.587632 C382.338161,536.804081 346.721008,560.332771 310.464561,593.01722 M259.459653,225.85699 C116.570806,225.85699 0.737940257,341.689855 0.737940257,484.578703 C0.737940257,627.46308 116.570806,743.295946 259.459653,743.295946 C402.348501,743.295946 518.176896,627.46308 518.176896,484.578703 C518.176896,341.689855 402.348501,225.85699 259.459653,225.85699" id="Icon---hero" fill="#FFFFFF"></path>
                    <g id="Icon---hero" transform="translate(633.586681, 64.025948)">
                        <polygon id="Fill-1" fill="#FFFFFF" points="312.031534 256.246944 312.031534 198.544374 255.756636 198.879139 255.756636 258.216147 198.049143 258.216147 198.38883 314.431969 257.784915 314.431969 257.784915 372.134539 314.045044 371.794852 314.045044 312.55138 371.752537 312.55138 371.41285 256.246944"></polygon>
                        <g id="Group-4" transform="translate(0.000000, 0.293394)">
                            <mask id="mask-3" fill="white">
                                <use xlink:href="#path-2"></use>
                            </mask>
                            <g id="Clip-3"></g>
                            <path d="M429.456584,371.660963 L314.046521,371.660963 L314.046521,371.587118 L256.087954,429.545685 L198.385384,429.545685 L198.385384,314.26362 L140.34805,256.226285 L140.34805,198.518792 L255.75319,198.518792 L313.726525,140.545457 L371.434019,140.545457 L371.434019,255.930905 L429.456584,313.958393 L429.456584,371.660963 Z M284.902317,0.141284534 C127.553153,0.141284534 -0.00196920297,127.696407 -0.00196920297,285.045571 C-0.00196920297,442.389811 127.553153,569.944934 284.902317,569.944934 C442.246558,569.944934 569.80168,442.389811 569.80168,285.045571 C569.80168,127.696407 442.246558,0.141284534 284.902317,0.141284534 L284.902317,0.141284534 Z" id="Fill-2" fill="#FFFFFF" mask="url(#mask-3)"></path>
                        </g>
                    </g>
                    <path d="M1615.48873,335.319096 L1658.92111,335.319096 L1658.92111,116.390993 L1615.48873,116.390993 L1615.48873,335.319096 Z M1544.4579,335.319096 L1587.89027,335.319096 L1587.89027,178.754029 L1544.4579,178.754029 L1544.4579,335.319096 Z M1471.01501,335.319096 L1514.44739,335.319096 L1514.44739,241.350489 L1471.01501,241.350489 L1471.01501,335.319096 Z M1564.96806,0.713979306 C1440.62325,0.713979306 1339.8231,101.514121 1339.8231,225.855044 C1339.8231,350.199858 1440.62325,451 1564.96806,451 C1689.30898,451 1790.10912,350.199858 1790.10912,225.855044 C1790.10912,101.514121 1689.30898,0.713979306 1564.96806,0.713979306 L1564.96806,0.713979306 Z" id="Icon---hero" fill="#FFFFFF"></path>
                </g>
            </g>
        </g>
    </g>
</svg>