<?xml version="1.0" encoding="UTF-8"?>
<svg width="295px" height="223px" viewBox="0 0 295 223" version="1.1" xmlns="http://www.w3.org/2000/svg" xmlns:xlink="http://www.w3.org/1999/xlink">
    <!-- Generator: Sketch 45.1 (43504) - http://www.bohemiancoding.com/sketch -->
    <title>Group</title>
    <desc>Created with Sketch.</desc>
    <defs>
        <polygon id="path-1" points="0 15.7394079 25.2342558 15.7394079 25.2342558 0 0 0"></polygon>
        <polygon id="path-3" points="0.0281796005 17.8640792 27.6887728 17.8640792 27.6887728 1.33409893e-06 0.0281796005 1.33409893e-06"></polygon>
        <polygon id="path-5" points="0.0586690864 13.4112605 13.2968415 13.4112605 13.2968415 4.40898988e-05 0.0586690864 4.40898988e-05"></polygon>
        <polygon id="path-7" points="16.1781855 16.4118713 16.1781855 0.0695328738 0 0.0695328738 0 16.4118713 16.1781855 16.4118713"></polygon>
        <polygon id="path-9" points="0.0378930026 11.167328 16.6148403 11.167328 16.6148403 0.0199315494 0.0378930026 0.0199315494 0.0378930026 11.167328"></polygon>
        <polygon id="path-11" points="0 13.8456382 11.7884652 13.8456382 11.7884652 9.71864942e-07 0 9.71864942e-07"></polygon>
        <polygon id="path-13" points="17.5262777 17.5261593 17.5262777 0.000118444805 2.36889613e-05 0.000118444805 2.36889613e-05 17.5261593"></polygon>
        <polygon id="path-15" points="0.11581571 17.5571026 21.7540707 17.5571026 21.7540707 0 0.11581571 0 0.11581571 17.5571026"></polygon>
        <polygon id="path-17" points="0 11.1224444 13.1800707 11.1224444 13.1800707 -1.00178076e-06 0 -1.00178076e-06"></polygon>
    </defs>
    <g id="Page-1" stroke="none" stroke-width="1" fill="none" fill-rule="evenodd">
        <g id="Mobile" transform="translate(0.000000, -55.000000)">
            <g id="Group" transform="translate(0.000000, 55.000000)">
                <g id="Icons-on-hero">
                    <g id="Responsive-icon" opacity="0.08" transform="translate(228.463909, 206.352001)">
                        <path d="M16.6900058,12.132924 L16.6900058,13.8226285 L15.7594439,13.8226285 L15.7594439,14.2545161 C15.7594439,14.7865838 16.1312234,15.2184713 16.5875995,15.2184713 L16.6900058,15.2184713 L16.6900058,15.7394079 L12.4245595,15.7394079 L12.4245595,12.132924 L16.6900058,12.132924 Z" id="Fill-1" fill="#FFFFFF"></path>
                        <mask id="mask-2" fill="white">
                            <use xlink:href="#path-1"></use>
                        </mask>
                        <g id="Clip-4"></g>
                        <path d="M2.89186575,4.31442327 L3.99829937,4.31442327 L3.99829937,3.38163516 L2.89186575,3.38163516 L2.89186575,4.31442327 Z M24.7956895,0 L3.33043199,0 C3.08777351,0 2.89186575,0.195907764 2.89186575,0.438566245 L2.89186575,2.59132543 L3.99829937,2.59132543 L3.99829937,1.05077801 L24.1300484,1.05077801 L24.1300484,12.132924 L12.4245595,12.132924 L12.4245595,13.8204023 L24.7956895,13.8204023 C25.038348,13.8204023 25.2342558,13.6244945 25.2342558,13.381836 L25.2342558,0.438566245 C25.2342558,0.195907764 25.038348,0 24.7956895,0 L24.7956895,0 Z M10.694783,13.8204023 L11.5652368,13.8204023 L11.5652368,12.132924 L10.694783,12.132924 L10.694783,13.8204023 Z" id="Fill-3" fill="#FFFFFF" mask="url(#mask-2)"></path>
                        <path d="M6.64750664,15.2786017 C6.44937265,15.2786017 6.28908448,15.1183135 6.28908448,14.9201795 C6.28908448,14.7220455 6.44937265,14.5617573 6.64750664,14.5617573 C6.84341441,14.5617573 7.0059288,14.7220455 7.0059288,14.9201795 C7.0059288,15.1183135 6.84341441,15.2786017 6.64750664,15.2786017 L6.64750664,15.2786017 Z M11.1288968,3.38165742 L2.16389031,3.38165742 C1.92345805,3.38165742 1.72755029,3.57756519 1.72755029,3.82022367 L1.72755029,7.05715423 L2.5980041,7.05715423 L2.5980041,4.31444553 L10.694783,4.31444553 L10.694783,14.1343222 L5.05798228,14.1343222 L5.05798228,15.7394302 L11.1288968,15.7394302 C11.369329,15.7394302 11.5652368,15.5435224 11.5652368,15.3008639 L11.5652368,3.82022367 C11.5652368,3.57756519 11.369329,3.38165742 11.1288968,3.38165742 L11.1288968,3.38165742 Z M1.72755029,8.54427226 L2.5980041,8.54427226 L2.5980041,7.82520171 L1.72755029,7.82520171 L1.72755029,8.54427226 Z" id="Fill-5" fill="#FFFFFF" mask="url(#mask-2)"></path>
                        <path d="M0.705713197,14.5617351 L3.56418558,14.5617351 L3.56418558,8.54425 L0.705713197,8.54425 L0.705713197,14.5617351 Z M2.13494939,15.3809857 C2.00582836,15.3809857 1.89896958,15.2741269 1.89896958,15.1450059 C1.89896958,15.0136587 2.00582836,14.9067999 2.13494939,14.9067999 C2.26629664,14.9067999 2.37092919,15.0136587 2.37092919,15.1450059 C2.37092919,15.2741269 2.26629664,15.3809857 2.13494939,15.3809857 L2.13494939,15.3809857 Z M3.83133253,7.82517945 L0.438566245,7.82517945 C0.195907764,7.82517945 0,8.02108722 0,8.26151947 L0,15.3008416 C0,15.5435001 0.195907764,15.7394079 0.438566245,15.7394079 L3.83133253,15.7394079 C4.07399101,15.7394079 4.26989877,15.5435001 4.26989877,15.3008416 L4.26989877,8.26151947 C4.26989877,8.02108722 4.07399101,7.82517945 3.83133253,7.82517945 L3.83133253,7.82517945 Z" id="Fill-6" fill="#FFFFFF" mask="url(#mask-2)"></path>
                    </g>
                    <g id="Cloud-icon-header" transform="translate(109.541031, 0.579672)">
                        <mask id="mask-4" fill="white">
                            <use xlink:href="#path-3"></use>
                        </mask>
                        <g id="Clip-2"></g>
                        <path d="M15.8434496,10.2455013 L15.8434496,14.9309341 L11.9445576,14.9309341 L11.9445576,10.2455013 L10.3290359,10.2455013 L13.8934563,4.07580372 L17.4589745,10.2455013 L15.8434496,10.2455013 Z M21.8005396,5.08388207 C20.8867557,2.1273628 18.1300936,-0.0220380683 14.8706387,-0.0220380683 C11.8516481,-0.0220380683 9.26550298,1.82264671 8.17464485,4.4449586 C7.73414768,4.35540166 7.27834693,4.30734456 6.8116174,4.30734456 C3.06465842,4.30734456 0.0281796005,7.34250019 0.0281796005,11.0864776 C0.0281796005,14.8293604 3.06465842,17.8645161 6.8116174,17.8645161 C7.07394754,17.8645161 7.33081329,17.8383039 7.58658616,17.8088152 L20.5730537,17.8088152 C20.8299129,17.8404882 21.088971,17.8645161 21.3534934,17.8645161 C21.6245633,17.8645161 21.8901688,17.8415804 22.1525088,17.8088152 C25.3125019,17.4156321 27.759827,14.7277884 27.759827,11.4632777 C27.759827,8.07862583 25.1288623,5.31433003 21.8005396,5.08388207 L21.8005396,5.08388207 Z" id="Fill-1" fill-opacity="0.08" fill="#FFFFFF" mask="url(#mask-4)"></path>
                    </g>
                    <g id="settings-con-header" transform="translate(130.983731, 200.453906)">
                        <mask id="mask-6" fill="white">
                            <use xlink:href="#path-5"></use>
                        </mask>
                        <g id="Clip-2"></g>
                        <path d="M6.64808139,9.12617097 C7.98225544,9.15824127 9.07777835,8.09438924 9.10919121,6.736075 C9.13929501,5.43461266 8.05307978,4.31434605 6.73606625,4.28839826 C5.41032815,4.2623047 4.29139101,5.34933481 4.2704491,6.68359633 C4.24994306,7.99657482 5.31827035,9.0942479 6.64808139,9.12617097 M8.53430629,13.4113188 C8.21697796,12.9057776 7.90226773,12.4187495 7.60413639,11.921809 C7.48342961,11.7206422 7.35356093,11.6425073 7.10473039,11.6760353 C6.80834542,11.7159774 6.50003322,11.660146 6.20059428,11.68726 C6.05821819,11.7002338 5.87264923,11.7726836 5.79600704,11.8814296 C5.45439274,12.3656881 5.14506304,12.8726871 4.8083934,13.3960126 C4.33603724,13.2002393 3.87589694,13.021813 3.42971889,12.8132116 C3.35453153,12.7780803 3.28705125,12.6030068 3.30523073,12.5101493 C3.40295914,12.0104389 3.52163091,11.5143733 3.64858994,11.0210767 C3.70036307,10.8196184 3.66662366,10.6834654 3.49690763,10.5486258 C3.28952357,10.383611 3.07239744,10.2067885 2.93031289,9.98885767 C2.72831081,9.67923496 2.490097,9.67836032 2.18309385,9.75795297 C1.74985762,9.87048911 1.31182353,9.9690324 0.870589406,10.0417722 C0.774460285,10.0576616 0.601398741,9.96684579 0.558351506,9.87865246 C0.388344075,9.53069262 0.264583183,9.16042788 0.106646401,8.80619976 C0.0151710158,8.60109707 0.0499287488,8.47777219 0.249749358,8.36275789 C0.669605418,8.12092013 1.08771613,7.8726683 1.48241318,7.59249196 C1.60137504,7.50809022 1.68659604,7.31596142 1.70564725,7.16289863 C1.73996976,6.88826169 1.68412371,6.60225584 1.71859053,6.32776469 C1.75552969,6.0343229 1.67059879,5.85662574 1.41246101,5.70924959 C1.02358165,5.4872371 0.663642675,5.21478678 0.277235646,4.9882553 C0.0606905649,4.86128607 0.0385852213,4.72805001 0.138495533,4.51565861 C0.282761941,4.20851406 0.416993641,3.89510268 0.530719881,3.57556733 C0.619141197,3.32716973 0.733303594,3.23591661 1.01107467,3.31929793 C1.46248878,3.45472206 1.92931865,3.53766606 2.3862592,3.65632618 C2.58593472,3.70822175 2.72205711,3.6770261 2.8552713,3.50239019 C3.00869853,3.30151349 3.18365077,3.10340796 3.38768931,2.95850997 C3.67607711,2.7538446 3.75329947,2.53299831 3.65208123,2.19043066 C3.52526652,1.76112887 3.44062571,1.31754123 3.36921973,0.874973999 C3.35351403,0.777306816 3.44237063,0.599901204 3.52948376,0.559230232 C3.95646483,0.359958507 4.39929882,0.194650687 4.87907197,4.37322275e-05 C5.18025728,0.485468542 5.49016862,0.958939876 5.77128521,1.44917523 C5.90493527,1.68241232 6.05908992,1.77935063 6.3258084,1.72570722 C6.47807381,1.69524044 6.6498263,1.67235391 6.79496482,1.71200446 C7.34716291,1.86273341 7.64122132,1.60384008 7.86489271,1.13299268 C8.02006632,0.80631586 8.23079443,0.503252981 8.44268582,0.208353451 C8.49634964,0.133427026 8.66911963,0.0738054226 8.75303303,0.103543337 C9.15209252,0.244942748 9.5464989,0.405001243 9.92505235,0.593632918 C10.0082383,0.635031302 10.0754271,0.829785489 10.0559385,0.93663644 C9.96911695,1.41360635 9.85917267,1.88722346 9.73468451,2.35603002 C9.67433112,2.58387347 9.69963604,2.74072494 9.90003752,2.88999615 C10.0925876,3.03343785 10.2876086,3.19961886 10.4155865,3.39830749 C10.6274779,3.72746393 10.8831438,3.74583001 11.2211225,3.65195295 C11.7091858,3.51623873 12.207137,3.41580038 12.7325754,3.29291428 C12.9326867,3.77702567 13.1370154,4.24116746 13.3077504,4.7174085 C13.3333468,4.78854626 13.2260192,4.95268643 13.138616,5.01187071 C12.717014,5.2968576 12.2718534,5.54729457 11.8569425,5.84102791 C11.7483058,5.91770508 11.6755907,6.10137898 11.6610483,6.24350726 C11.6326894,6.51945616 11.7004598,6.80896205 11.6489782,7.07762224 C11.5860067,7.40721455 11.7177661,7.56085898 11.9802673,7.70779926 C12.3815076,7.93258146 12.7593351,8.19905504 13.154759,8.43506183 C13.3189487,8.53302057 13.3694128,8.6245667 13.2811364,8.81348846 C13.1117104,9.17587994 12.9590092,9.54701932 12.8214334,9.92267624 C12.7478452,10.1236973 12.6299023,10.1357965 12.4552401,10.0930847 C11.9731404,9.97530068 11.4879868,9.87048911 11.0064687,9.7499354 C10.7976313,9.69774827 10.6501648,9.72661154 10.5034271,9.9115974 C10.3165491,10.1474584 10.0979681,10.3658266 9.86193509,10.5519786 C9.67491276,10.699209 9.65149852,10.8480443 9.70443493,11.0563541 C9.82674085,11.5384261 9.94875668,12.0212262 10.041832,12.5094204 C10.061029,12.6104412 9.98395092,12.799509 9.90003752,12.8391592 C9.46418465,13.044991 9.01189866,13.2156912 8.53430629,13.4113188" id="Fill-1" fill-opacity="0.08" fill="#FFFFFF" mask="url(#mask-6)"></path>
                    </g>
                    <g id="injecstion-ico-head" transform="translate(38.808247, 81.706521)">
                        <mask id="mask-8" fill="white">
                            <use xlink:href="#path-7"></use>
                        </mask>
                        <g id="Clip-2"></g>
                        <path d="M9.31389723,3.46958459 C9.29125818,3.44715436 9.26952553,3.42382679 9.24326387,3.40543379 C8.9883479,3.22509309 8.54915084,3.42292946 8.38252885,3.79213475 C8.28382251,4.0106067 8.31732789,4.1752464 8.44320079,4.29996018 C8.6551024,4.51080709 8.86790891,4.72030725 9.10652464,4.95582697 C9.02864605,5.01773519 8.96389905,5.05945576 8.91047082,5.1123922 C6.94132852,7.06204745 4.97264018,9.01260003 3.00440278,10.9631526 C2.67840099,11.2866001 2.63402929,11.5624951 2.86766355,11.7962202 C3.00893029,11.9379817 3.15155739,12.0779471 3.29373054,12.2188098 C3.655049,12.5772487 4.01500862,12.9370343 4.3790448,13.2927811 C4.55562822,13.4650474 4.84767218,13.4493463 5.07768382,13.2331155 C5.34890003,12.9787548 5.60879596,12.7091411 5.8935947,12.4202355 L5.18001278,11.7132285 L5.84061891,11.058259 L6.54786202,11.7589863 C6.73033332,11.5781962 6.91325555,11.3969581 7.10251811,11.2094403 L6.395275,10.5087115 L7.05588114,9.8541915 L7.75180547,10.5437029 C7.93789787,10.3597744 8.12217896,10.1771896 8.31098907,9.99011965 L7.61506625,9.30015885 L8.27567239,8.64563731 L8.97476537,9.33829009 C9.1522552,9.16333337 9.32883862,8.98927247 9.50949861,8.81072642 L8.80904676,8.11717631 L9.46965442,7.46265476 L10.1972713,8.18312176 C10.5617599,7.82019627 10.9135709,7.46893608 11.2717193,7.1122919 C11.3097536,7.14638591 11.3437115,7.17509746 11.3754071,7.20649948 C11.5633108,7.39177474 11.7444232,7.58333132 11.9395706,7.76098003 C12.1972028,7.99560242 12.6993355,7.77040125 12.8523765,7.35543816 C12.9302536,7.14414334 12.8750156,6.99565257 12.7536702,6.87587485 C11.6058712,5.7413421 10.4603374,4.60501468 9.31389723,3.46958459" id="Fill-1" fill-opacity="0.08" fill="#FFFFFF" mask="url(#mask-8)"></path>
                        <path d="M13.164478,0.282757422 C12.9109209,0.531286155 12.8701703,0.842174052 13.0689403,1.04044926 C13.1739855,1.1454354 13.2853694,1.24412661 13.4212038,1.37063203 C12.5287732,2.2337564 11.6616993,3.07310378 10.8168121,3.89047036 L12.3295507,5.38927385 C13.1721742,4.5544116 14.0283832,3.705643 14.8945506,2.84700528 C15.0023135,2.95511922 15.1059998,3.06278524 15.2137596,3.16596613 C15.4093565,3.35393338 15.7208799,3.3117634 15.9680921,3.06637456 C16.2153044,2.82143364 16.2596867,2.51099668 16.0667985,2.3194401 C15.3518547,1.6079464 14.6355611,0.898253417 13.9179041,0.189892052 C13.7236616,-0.00166452512 13.4130536,0.0391617365 13.164478,0.282757422" id="Fill-3" fill-opacity="0.08" fill="#FFFFFF" mask="url(#mask-8)"></path>
                        <polygon id="Fill-4" fill-opacity="0.08" fill="#FFFFFF" mask="url(#mask-8)" points="3.21657677 13.2204651 -0.00450338634 16.4118713 1.04096647 14.7766901 2.91411894 12.9207946"></polygon>
                    </g>
                    <g id="trends-icon-header-copy" transform="translate(0.130823, 176.248507)">
                        <mask id="mask-10" fill="white">
                            <use xlink:href="#path-9"></use>
                        </mask>
                        <g id="Clip-2"></g>
                        <polygon id="Fill-1" fill-opacity="0.08" fill="#FFFFFF" mask="url(#mask-10)" points="10.3779281 0.184701632 12.4890258 2.30776274 8.01861076 6.80351266 5.38158166 4.15195165 0.0378930026 9.50285704 1.72054495 11.1954568 5.3701137 7.52520573 6.33554871 8.49611301 8.00878002 10.1985983 14.1720859 3.99995146 16.451122 6.29190083 16.6149626 0.0199315494"></polygon>
                    </g>
                    <g id="notification-icon" transform="translate(194.839979, 0.391420)">
                        <mask id="mask-12" fill="white">
                            <use xlink:href="#path-11"></use>
                        </mask>
                        <g id="Clip-2"></g>
                        <path d="M10.403435,9.67258556 L10.403435,5.86055399 C10.403435,3.7268638 8.92817634,1.93840087 6.93542507,1.46782848 L6.93542507,0.997256094 C6.93542507,0.4169185 6.46433436,-0.0380762809 5.89938,-0.0380762809 C5.33442564,-0.0380762809 4.86368896,0.432496107 4.86368896,0.997256094 L4.86368896,1.46782848 C2.87058366,1.93840087 1.39567954,3.7268638 1.39567954,5.86055399 L1.39567954,9.67258556 L-0.00129979349,11.0687251 L-0.00129979349,11.7588286 L11.8000604,11.7588286 L11.8000604,11.0687251 L10.403435,9.67258556 Z M5.89938,13.8457798 C6.66835658,13.8457798 7.29600549,13.2179948 7.29600549,12.4492857 L4.50275451,12.4492857 C4.50275451,13.2179948 5.13040342,13.8457798 5.89938,13.8457798 L5.89938,13.8457798 Z" id="Fill-1" fill-opacity="0.08" fill="#FAFAFA" mask="url(#mask-12)"></path>
                    </g>
                    <g id="hero-icon" opacity="0.08" transform="translate(8.397609, 5.393765)">
                        <mask id="mask-14" fill="white">
                            <use xlink:href="#path-13"></use>
                        </mask>
                        <g id="Clip-2"></g>
                        <path d="M12.5172706,13.7747754 L8.07274779,9.3302526 L8.07203712,9.3302526 L8.07203712,9.32954193 L8.06966823,9.32717303 L8.07203712,9.32456724 L8.07203712,3.04035969 L9.01959556,3.04035969 L9.01959556,8.93725273 L13.1871945,13.1048516 L12.5172706,13.7747754 Z M8.76304411,0.000118444805 C3.9233894,0.000118444805 2.36889613e-05,3.92348415 2.36889613e-05,8.76313887 C2.36889613e-05,13.6027936 3.9233894,17.5261593 8.76304411,17.5261593 C13.6029357,17.5261593 17.5263014,13.6027936 17.5263014,8.76313887 C17.5263014,3.92348415 13.6029357,0.000118444805 8.76304411,0.000118444805 L8.76304411,0.000118444805 Z" id="Fill-1" fill="#FFFFFF" mask="url(#mask-14)"></path>
                    </g>
                    <g id="hero-icon" transform="translate(273.014270, 6.771906)">
                        <mask id="mask-16" fill="white">
                            <use xlink:href="#path-15"></use>
                        </mask>
                        <g id="Clip-2"></g>
                        <path d="M15.9270567,1.7457547 C15.9270567,0.755860838 16.72433,-0.0467753574 17.7076111,-0.0467753574 C18.6916427,-0.0467753574 19.488916,0.755860838 19.488916,1.7457547 C19.488916,2.73564856 18.6916427,3.53828475 17.7076111,3.53828475 C16.72433,3.53828475 15.9270567,2.73564856 15.9270567,1.7457547 L15.9270567,1.7457547 Z M12.4266963,5.91674647 C12.3419457,5.83595607 12.3621951,5.69475712 12.4664479,5.64190218 L15.0345278,4.32355511 C15.0735287,4.30392386 15.1185312,4.29939305 15.1605312,4.31222808 L17.2118439,4.93893703 C17.3348483,4.97668813 17.373102,5.13147951 17.2830972,5.22283954 L14.6812672,7.84594466 C14.616766,7.91088062 14.5117625,7.91239203 14.4450095,7.84896747 L12.4266963,5.91674647 Z M2.85865056,12.7485978 L19.0839043,12.7485978 L19.0839043,13.9521768 L2.85865056,13.9521768 L2.85865056,12.7485978 Z M21.1629691,4.29259683 L19.7731751,4.29259683 C19.6089213,4.29259683 19.4604167,4.35300198 19.3419126,4.44965362 C19.3156617,4.46173465 19.2894109,4.47834309 19.2624094,4.50477056 L14.9992764,9.16504914 C14.7772701,9.38477309 14.4142584,9.38250768 14.1952511,9.15900693 L11.5611688,6.47700806 C11.3841649,6.29654661 11.1051566,6.25577271 10.8823997,6.37809441 L10.3866325,6.64916529 C10.1188765,6.79640305 10.019124,7.12787568 10.1638756,7.39441574 L10.8973982,8.75051731 C11.0969067,9.11974443 10.8253977,9.56523454 10.4001332,9.56523454 C10.1901264,9.56523454 9.99812057,9.45122045 9.90061983,9.2684936 L8.90008841,7.38610812 C8.80258427,7.20187326 8.60833,7.08710178 8.39682197,7.08861318 L3.64767633,7.12259086 C3.50817218,7.12334487 3.37316659,7.1761998 3.2704133,7.26907463 L2.4341377,8.02791751 C2.40713658,8.05207957 2.38388612,8.07926104 2.36213517,8.10795391 L2.36213517,6.60159517 C2.36213517,6.22330643 2.05762596,5.91674647 1.68186415,5.91674647 L0.796086899,5.91674647 C0.420325087,5.91674647 0.11581571,6.22330643 0.11581571,6.60159517 L0.11581571,12.0637525 C0.11581571,12.4420413 0.420325087,12.7485978 0.796086899,12.7485978 L1.16809839,12.7485978 L1.16809839,17.6142544 L2.85865056,17.6142544 L2.85865056,15.4396597 L19.0839043,15.4396597 L19.0839043,17.6142544 L20.7744571,17.6142544 L20.7744571,12.7485978 L21.1629691,12.7485978 C21.5439783,12.7485978 21.8522399,12.4375105 21.8522399,12.0539369 L21.8522399,4.98726115 C21.8522399,4.6036842 21.5439783,4.29259683 21.1629691,4.29259683 L21.1629691,4.29259683 Z" id="Fill-1" fill-opacity="0.08" fill="#FFFFFF" mask="url(#mask-16)"></path>
                    </g>
                </g>
                <g id="comments-header" transform="translate(269.796897, 83.405973)">
                    <mask id="mask-18" fill="white">
                        <use xlink:href="#path-17"></use>
                    </mask>
                    <g id="Clip-2"></g>
                    <path d="M10.9745971,3.01920401 L2.17175566,3.01920401 L2.17175566,1.80479367 L10.9745971,1.80479367 L10.9745971,3.01920401 Z M8.07133625,5.49838679 L2.17175566,5.49838679 L2.17175566,4.28397645 L8.07133625,4.28397645 L8.07133625,5.49838679 Z M13.1973434,1.92014226 C13.1973434,1.83525588 13.201853,1.7479313 13.1829953,1.66629425 C12.9382554,0.605818834 12.1331145,-0.0318485492 11.069296,-0.0241316058 C9.57257096,-0.0135708977 8.07625629,-0.0216950165 6.57994,-0.0216950165 C5.08936456,-0.0216950165 3.59878911,-0.00666668936 2.10862246,-0.0261626355 C0.861966903,-0.0424092573 -0.0481206841,0.890127445 -0.0497604861,2.10859984 C-0.0518102265,3.50618579 -0.0526301194,4.90377336 -0.0477107296,6.30135931 C-0.0468908366,6.50565634 -0.0263933683,6.71238995 0.0105020765,6.91343766 C0.177351387,7.82282353 0.949286153,8.49379528 1.88069149,8.5311617 C2.32138615,8.54862661 2.76372245,8.53725479 3.20523793,8.53847308 C3.47580437,8.53928582 3.47580437,8.53887864 3.47621478,8.80897328 C3.47621478,9.50187756 3.47211394,10.1943753 3.48195401,10.8872794 C3.48318361,10.9681047 3.54098636,11.0785794 3.60739797,11.1171643 C3.64921262,11.1415337 3.77875741,11.0781732 3.82877051,11.0200928 C4.49534734,10.2504251 5.15577616,9.47588296 5.81333535,8.69849948 C5.90803433,8.58680577 6.00806052,8.53522376 6.15851345,8.53562932 C7.60604464,8.54050411 9.05357582,8.53887864 10.5006966,8.53806591 C10.8011888,8.53766035 11.1025018,8.544159 11.4021749,8.52588134 C12.3442382,8.46780068 13.1973434,7.55963472 13.1977538,6.62344152 C13.1981626,5.05567564 13.1981626,3.48790976 13.1973434,1.92014226 L13.1973434,1.92014226 Z" id="Fill-1" fill-opacity="0.08" fill="#FFFFFF" mask="url(#mask-18)"></path>
                </g>
            </g>
        </g>
    </g>
</svg>