<?xml version="1.0" encoding="UTF-8"?>
<svg width="1680px" height="809px" viewBox="0 0 1680 809" version="1.1" xmlns="http://www.w3.org/2000/svg" xmlns:xlink="http://www.w3.org/1999/xlink">
    <!-- Generator: Sketch 45.1 (43504) - http://www.bohemiancoding.com/sketch -->
    <title>Hero</title>
    <desc>Created with Sketch.</desc>
    <defs>
        <rect id="path-1" x="0" y="0" width="1680" height="809"></rect>
        <linearGradient x1="50%" y1="100%" x2="50%" y2="3.061617e-15%" id="linearGradient-3">
            <stop stop-color="#5FA7E5" offset="0%"></stop>
            <stop stop-color="#1767FF" offset="100%"></stop>
        </linearGradient>
        <polygon id="path-4" points="412.759538 825.519789 0 825.519789 0 -1.42108547e-14 412.759538 -1.42108547e-14 825.519075 8.71459598e-14 825.519075 825.519789"></polygon>
    </defs>
    <g id="Page-1" stroke="none" stroke-width="1" fill="none" fill-rule="evenodd">
        <g id="Helium-Features-Page">
            <g id="Hero">
                <mask id="mask-2" fill="white">
                    <use xlink:href="#path-1"></use>
                </mask>
                <use id="Mask" fill="#D8D8D8" xlink:href="#path-1"></use>
                <rect id="Rectangle-2" fill="url(#linearGradient-3)" opacity="0.901041667" mask="url(#mask-2)" x="0" y="0" width="1680" height="809"></rect>
                <g id="Icons-on-hero" mask="url(#mask-2)">
                    <g transform="translate(-96.000000, -99.000000)" id="Group-5">
                        <g>
                            <path d="M578.585283,678.553963 L452.790507,678.553963 L427.75565,602.164092 L387.708743,706.210073 L343.647648,615.396983 L325.647117,666.808981 L296.104212,586.221307 L255.974995,678.553963 L163.249784,678.553963 C158.62777,664.35868 156.076164,648.827445 156.063501,631.43474 C156.031844,566.308655 208.855772,513.49739 273.981858,513.49739 C314.149064,513.49739 349.624609,536.822735 370.917534,567.498982 C392.210458,536.822735 427.692335,513.49739 467.859541,513.49739 C532.979295,513.49739 585.803224,566.308655 585.771566,631.43474 C585.758903,648.827445 583.213629,664.35868 578.585283,678.553963 M439.601937,830.535934 C418.087409,849.935732 391.431681,873.280072 370.917534,898.549195 C350.403387,873.280072 323.75399,849.935732 302.239462,830.535934 C250.890779,784.246141 200.441173,750.923315 174.355282,703.880071 L272.588922,703.880071 L294.10345,654.354868 L326.19796,741.888226 L347.433901,681.219536 L390.39331,769.746945 L425.843529,677.642223 L434.441743,703.880071 L567.479785,703.880071 C541.393894,750.923315 490.95062,784.246141 439.601937,830.535934 M367.365547,310.540296 C164.997286,310.540296 0.947424947,474.590157 0.947424947,676.958419 C0.947424947,879.320348 164.997286,1043.37021 367.365547,1043.37021 C569.733808,1043.37021 733.777338,879.320348 733.777338,676.958419 C733.777338,474.590157 569.733808,310.540296 367.365547,310.540296" id="Icon" fill="#FFFFFF" opacity="0.08"></path>
                            <g id="Icon" opacity="0.08" transform="translate(1090.858896, 72.948668)">
                                <mask id="mask-5" fill="white">
                                    <use xlink:href="#path-4"></use>
                                </mask>
                                <g id="Clip-2"></g>
                                <path d="M634.778592,431.357501 L572.498897,369.084938 L404.089807,537.494028 L358.3643,491.247859 L331.981731,464.86529 L232.257189,564.589832 L186.267785,518.60756 L332.295555,373.200305 L404.353705,445.258455 L526.516625,323.095534 L468.823032,265.409073 L639.250577,260.929956 L634.778592,431.357501 Z M412.762747,0 C184.798521,0 -0.000713235175,184.799234 -0.000713235175,412.756328 C-0.000713235175,640.720555 184.798521,825.519789 412.762747,825.519789 C640.719842,825.519789 825.519075,640.720555 825.519075,412.756328 C825.519075,184.799234 640.719842,0 412.762747,0 L412.762747,0 Z" id="Fill-1" fill="#FFFFFF" mask="url(#mask-5)"></path>
                            </g>
                            <g id="Page-1" opacity="0.05" transform="translate(638.000000, 0.050489)" fill="#FFFFFF">
                                <polygon id="Fill-1" points="224.818549 220.211774 192.863089 173.228631 179.241547 173.228631 179.241547 193.350872 171.255386 193.350872 171.255386 206.417169 179.241547 206.417169 179.241547 211.717239 171.255386 211.717239 171.255386 224.783536 179.241547 224.783536 179.241547 244.905777 193.573371 244.905777 193.573371 198.686997 225.197126 244.905777 239.146767 244.905777 239.146767 224.783536 247.652119 224.783536 247.652119 211.717239 239.146767 211.717239 239.146767 206.417169 247.652119 206.417169 247.652119 193.350872 239.146767 193.350872 239.146767 173.228631 224.818549 173.228631"></polygon>
                                <g id="Group-4" transform="translate(0.000000, 0.284089)">
                                    <path d="M248.29642,142.761902 L248.29642,113.575458 L277.71722,142.761902 L248.29642,142.761902 Z M277.71722,212.679569 L277.71722,221.866358 L277.71722,303.992214 L141.191727,303.992214 L141.191727,216.638397 L141.191727,208.782034 L141.191727,113.575458 L235.060665,113.575458 L235.060665,155.709217 L277.71722,155.709217 L277.71722,212.679569 Z M209.454474,0.128707996 C94.2157945,0.128707996 0.797542446,93.5469601 0.797542446,208.782034 C0.797542446,324.020713 94.2157945,417.438965 209.454474,417.438965 C324.693153,417.438965 418.111405,324.020713 418.111405,208.782034 C418.111405,93.5469601 324.693153,0.128707996 209.454474,0.128707996 L209.454474,0.128707996 Z" id="Fill-2"></path>
                                </g>
                            </g>
                        </g>
                    </g>
                </g>
            </g>
        </g>
    </g>
</svg>