<?xml version="1.0" encoding="UTF-8"?>
<svg width="320px" height="1048px" viewBox="0 0 320 1048" version="1.1" xmlns="http://www.w3.org/2000/svg" xmlns:xlink="http://www.w3.org/1999/xlink">
    <!-- Generator: Sketch 45.1 (43504) - http://www.bohemiancoding.com/sketch -->
    <title>Mobile</title>
    <desc>Created with Sketch.</desc>
    <defs>
        <linearGradient x1="50%" y1="100%" x2="50%" y2="3.061617e-15%" id="linearGradient-1">
            <stop stop-color="#9062BC" offset="0%"></stop>
            <stop stop-color="#3D1068" offset="100%"></stop>
        </linearGradient>
        <polygon id="path-2" points="305.461303 163.051162 305.461303 -1.42108547e-14 0 -1.42108547e-14 0 163.051162 0 326.102324 305.461303 326.102324"></polygon>
    </defs>
    <g id="Page-1" stroke="none" stroke-width="1" fill="none" fill-rule="evenodd">
        <g id="Mobile">
            <rect id="Rectangle-2-Copy" fill="url(#linearGradient-1)" x="-2.02509321" y="0" width="322.025093" height="1047.96799"></rect>
            <g id="BG-Icon" opacity="0.05" transform="translate(-73.479570, -77.243573)">
                <mask id="mask-3" fill="white">
                    <use xlink:href="#path-2"></use>
                </mask>
                <g id="Clip-2"></g>
                <path d="M213.801535,156.070295 L199.727033,156.070295 L199.727033,170.030902 L213.801535,170.030902 L213.801535,188.522016 L199.727033,188.522016 L199.727033,224.081416 L179.92297,224.081416 L124.60408,137.756683 L124.290023,137.756683 L124.290023,224.081416 L104.879191,224.081416 L104.879191,188.522016 L91.659768,188.522016 L91.659768,170.030902 L104.879191,170.030902 L104.879191,156.070295 L91.659768,156.070295 L91.659768,137.581999 L104.879191,137.581999 L104.879191,102.019781 L124.131675,102.019781 L179.92297,189.60111 L180.316201,189.60111 L180.316201,102.019781 L199.727033,102.019781 L199.727033,137.581999 L213.801535,137.581999 L213.801535,156.070295 Z M152.731971,-0.00112699153 C68.3799657,-0.00112699153 0,72.9997493 0,163.052007 C0,253.101448 68.3799657,326.102324 152.731971,326.102324 C237.081338,326.102324 305.461303,253.101448 305.461303,163.052007 C305.461303,72.9997493 237.081338,-0.00112699153 152.731971,-0.00112699153 L152.731971,-0.00112699153 Z" id="Fill-1" fill="#FFFFFF" mask="url(#mask-3)"></path>
            </g>
        </g>
    </g>
</svg>