<?xml version="1.0" encoding="UTF-8"?>
<svg width="320px" height="415px" viewBox="0 0 320 415" version="1.1" xmlns="http://www.w3.org/2000/svg" xmlns:xlink="http://www.w3.org/1999/xlink">
    <!-- Generator: Sketch 45.1 (43504) - http://www.bohemiancoding.com/sketch -->
    <title>Hero</title>
    <desc>Created with Sketch.</desc>
    <defs>
        <linearGradient x1="50%" y1="100%" x2="50%" y2="3.061617e-15%" id="linearGradient-1">
            <stop stop-color="#5FA7E5" offset="0%"></stop>
            <stop stop-color="#1767FF" offset="100%"></stop>
        </linearGradient>
        <rect id="path-2" x="0" y="0" width="320" height="414.639153"></rect>
    </defs>
    <g id="Page-1" stroke="none" stroke-width="1" fill="none" fill-rule="evenodd">
        <g id="Mobile">
            <g id="Hero">
                <mask id="mask-3" fill="white">
                    <use xlink:href="#path-2"></use>
                </mask>
                <use id="Rectangle" fill="url(#linearGradient-1)" opacity="0.901041667" xlink:href="#path-2"></use>
                <path d="M154.967509,106.909419 L102.158901,106.909419 L91.6492754,74.8409747 L74.8375959,118.519446 L56.3407616,80.3961384 L48.7841442,101.978879 L36.382042,68.1481986 L19.5358089,106.909419 L-19.3902063,106.909419 C-21.3305266,100.950244 -22.4016897,94.430236 -22.4070057,87.1287841 C-22.4202956,59.7888734 -0.244826482,37.6187203 27.0950842,37.6187203 C43.9572652,37.6187203 58.8498881,47.4106929 67.7886514,60.2885723 C76.7274148,47.4106929 91.6226957,37.6187203 108.484877,37.6187203 C135.822129,37.6187203 157.997598,59.7888734 157.984309,87.1287841 C157.978993,94.430236 156.910487,100.950244 154.967509,106.909419 M96.622343,170.711404 C87.5905506,178.855434 76.4004841,188.65538 67.7886514,199.263351 C59.1768188,188.65538 47.9894103,178.855434 38.9576179,170.711404 C17.4014565,151.278963 -3.77727265,137.290051 -14.7281216,117.541312 L26.5103301,117.541312 L35.5421225,96.7506465 L49.0153879,133.497124 L57.9302294,108.028426 L75.9645765,145.192205 L90.8465676,106.526671 L94.456095,117.541312 L150.305424,117.541312 C139.354576,137.290051 118.178504,151.278963 96.622343,170.711404 M66.2975286,-47.5826055 C-18.6566057,-47.5826055 -87.5246872,21.2854759 -87.5246872,106.23961 C-87.5246872,191.191087 -18.6566057,260.059168 66.2975286,260.059168 C151.251663,260.059168 220.117086,191.191087 220.117086,106.23961 C220.117086,21.2854759 151.251663,-47.5826055 66.2975286,-47.5826055" id="Icon" fill="#FFFFFF" opacity="0.08" mask="url(#mask-3)"></path>
            </g>
        </g>
    </g>
</svg>