<?xml version="1.0" encoding="UTF-8"?>
<svg width="973px" height="1435px" viewBox="0 0 973 1435" version="1.1" xmlns="http://www.w3.org/2000/svg" xmlns:xlink="http://www.w3.org/1999/xlink">
    <!-- Generator: Sketch 45.1 (43504) - http://www.bohemiancoding.com/sketch -->
    <title>Page 1</title>
    <desc>Created with Sketch.</desc>
    <defs></defs>
    <g id="Page-1" stroke="none" stroke-width="1" fill="none" fill-rule="evenodd" opacity="0.05">
        <g id="Desktop-HD-Copy-4" transform="translate(-209.000000, -1063.000000)" fill="#000000">
            <path d="M491.674223,2497.42689 L817.987026,2497.42689 L817.987026,2235.20956 L491.674223,2235.20956 L491.674223,2497.42689 Z M490.704691,2093.41781 C491.339902,2003.43067 507.533211,1935.76708 539.260304,1890.44222 C570.978279,1845.12953 628.928321,1793.00579 713.10435,1734.08318 C756.471904,1706.8907 790.627385,1673.23062 815.561677,1633.07863 C840.477733,1592.94184 852.950958,1546.64442 852.950958,1494.20156 C852.950958,1439.8166 838.383666,1396.446 809.249083,1364.06546 C780.11146,1331.69708 738.673853,1315.50681 684.939299,1315.50681 C641.556549,1315.50681 605.300922,1328.78241 576.166338,1355.32448 C547.031755,1381.87871 531.811017,1421.36206 530.519321,1473.80796 L211.002359,1473.80796 L209.063295,1467.98165 C207.118153,1333.32006 250.005499,1232.15139 337.74357,1164.4878 C425.466445,1096.8394 541.205446,1063 684.939299,1063 C839.021916,1063 960.268101,1101.8451 1048.64442,1179.54137 C1137.02074,1257.23461 1181.2089,1362.12336 1181.2089,1494.20156 C1181.2089,1575.14379 1157.08306,1649.59107 1108.85873,1717.57379 C1060.61616,1785.55347 999.265163,1838.9689 924.820923,1877.81703 C883.377237,1905.00952 855.379346,1934.31126 840.812055,1965.70707 C826.244763,1997.11808 818.962637,2039.68326 818.962637,2093.41781 L490.704691,2093.41781 Z" id="Page-1"></path>
        </g>
    </g>
</svg>