<?xml version="1.0" encoding="UTF-8"?>
<svg width="1680px" height="1032px" viewBox="0 0 1680 1032" version="1.1" xmlns="http://www.w3.org/2000/svg" xmlns:xlink="http://www.w3.org/1999/xlink">
    <!-- Generator: Sketch 45.1 (43504) - http://www.bohemiancoding.com/sketch -->
    <title>Helium Features Page</title>
    <desc>Created with Sketch.</desc>
    <defs>
        <linearGradient x1="50%" y1="0%" x2="50%" y2="100%" id="linearGradient-1">
            <stop stop-color="#18CBDE" offset="0%"></stop>
            <stop stop-color="#05A2B3" offset="100%"></stop>
        </linearGradient>
        <polygon id="path-2" points="0 637.858678 637.443276 637.858678 637.443276 0.415402417 0 0.415402417"></polygon>
        <polygon id="path-4" points="0 637.858678 637.443276 637.858678 637.443276 0.415402417 0 0.415402417"></polygon>
    </defs>
    <g id="Page-1" stroke="none" stroke-width="1" fill="none" fill-rule="evenodd">
        <g id="Helium-Features-Page" transform="translate(0.000000, -6385.000000)">
            <rect id="Rectangle-3" fill="url(#linearGradient-1)" x="0" y="6385" width="1680" height="1031.54317"></rect>
            <g id="Background-icons" transform="translate(-99.000000, 6300.000000)">
                <g id="Page-1" opacity="0.12" transform="translate(0.340513, 621.981335)">
                    <polygon id="Fill-1" fill="#FFFFFF" points="325.217619 331.639972 356.158206 331.639972 356.158206 300.424015 325.217619 300.424015"></polygon>
                    <polygon id="Fill-2" fill="#FFFFFF" points="325.228634 375.655132 356.147191 375.655132 356.147191 344.461205 325.228634 344.461205"></polygon>
                    <polygon id="Fill-3" fill="#FFFFFF" points="281.28507 331.722583 312.214642 331.722583 312.214642 300.517641 281.28507 300.517641"></polygon>
                    <polygon id="Fill-4" fill="#FFFFFF" points="325.289215 419.807977 356.273861 419.807977 356.273861 388.547961 325.289215 388.547961"></polygon>
                    <polygon id="Fill-5" fill="#FFFFFF" points="369.172198 419.582173 400.266992 419.582173 400.266992 388.581005 369.172198 388.581005"></polygon>
                    <polygon id="Fill-6" fill="#FFFFFF" points="281.202459 419.686814 312.126524 419.686814 312.126524 388.487379 281.202459 388.487379"></polygon>
                    <polygon id="Fill-7" fill="#FFFFFF" points="369.117124 331.584898 400.322066 331.584898 400.322066 300.655326 369.117124 300.655326"></polygon>
                    <polygon id="Fill-8" fill="#FFFFFF" points="369.364957 375.589043 400.289021 375.589043 400.289021 344.477727 369.364957 344.477727"></polygon>
                    <polygon id="Fill-9" fill="#FFFFFF" points="281.196952 375.660639 312.308268 375.660639 312.308268 344.637441 281.196952 344.637441"></polygon>
                    <polygon id="Fill-10" fill="#FFFFFF" points="388.238825 218.281108 400.255977 218.281108 400.255977 180.896861 388.238825 180.896861"></polygon>
                    <g id="Group-19" transform="translate(0.000000, 0.092000)">
                        <g id="Group-13">
                            <mask id="mask-3" fill="white">
                                <use xlink:href="#path-2"></use>
                            </mask>
                            <g id="Clip-12"></g>
                            <path d="M463.252399,249.423239 L174.29001,249.423239 C174.29001,234.239331 174.01464,219.253689 174.411173,204.284569 C174.58741,197.697716 180.149886,193.567164 187.590387,193.501075 C199.624061,193.390927 211.663243,193.468031 223.950258,193.468031 C225.850311,185.675057 221.064379,175.370707 230.091011,170.981307 C235.769143,168.216591 243.231673,168.53602 249.884615,168.607617 C252.930209,168.635154 256.669735,170.749996 258.773563,173.101657 C260.745213,175.315633 261.400594,179.022114 261.863216,182.183363 C262.369897,185.592446 261.978871,189.133705 261.978871,193.038454 L375.012798,193.038454 C376.830241,185.75216 372.027786,175.486362 380.9663,171.014351 C386.462688,168.266158 393.837099,168.023832 400.214671,168.53602 C416.296286,169.835767 412.127183,183.075563 413.223156,193.468031 C424.788701,193.468031 436.095398,193.457016 447.396588,193.468031 C458.901551,193.484553 463.23037,197.785834 463.246892,209.263261 C463.268921,222.519579 463.252399,235.775896 463.252399,249.423239 L463.252399,249.423239 Z M463.252399,268.445807 C463.252399,330.277414 463.257907,392.109021 463.252399,453.940628 C463.246892,465.770528 459.033729,469.945139 447.11571,469.945139 C361.525169,469.950646 275.940136,469.950646 190.349595,469.945139 C178.315921,469.945139 174.190877,465.886183 174.190877,454.017731 C174.185369,392.180617 174.190877,330.34901 174.190877,268.517403 L174.190877,262.817242 L463.252399,262.817242 L463.252399,268.445807 Z M318.721638,0.411547235 C142.69955,0.411547235 -0.0027537012,143.108343 -0.0027537012,319.135939 C-0.0027537012,495.163534 142.69955,637.860331 318.721638,637.860331 C494.749234,637.860331 637.44603,495.163534 637.44603,319.135939 C637.44603,143.108343 494.749234,0.411547235 318.721638,0.411547235 L318.721638,0.411547235 Z" id="Fill-11" fill="#FFFFFF" mask="url(#mask-3)"></path>
                        </g>
                        <mask id="mask-5" fill="white">
                            <use xlink:href="#path-4"></use>
                        </mask>
                        <g id="Clip-15"></g>
                        <polygon id="Fill-14" fill="#FFFFFF" mask="url(#mask-5)" points="237.176284 331.525942 268.083827 331.525942 268.083827 300.34303 237.176284 300.34303"></polygon>
                        <polygon id="Fill-16" fill="#FFFFFF" mask="url(#mask-5)" points="237.154255 218.321286 249.24851 218.321286 249.24851 180.837905 237.154255 180.837905"></polygon>
                        <polygon id="Fill-17" fill="#FFFFFF" mask="url(#mask-5)" points="237.12121 375.430954 268.326152 375.430954 268.326152 344.501382 237.12121 344.501382"></polygon>
                        <polygon id="Fill-18" fill="#FFFFFF" mask="url(#mask-5)" points="237.005555 419.567277 268.254556 419.567277 268.254556 388.599153 237.005555 388.599153"></polygon>
                    </g>
                </g>
                <path d="M1565.91326,600.859455 L1643.85612,600.859455 L1643.85612,207.975526 L1565.91326,207.975526 L1565.91326,600.859455 Z M1438.44276,600.859455 L1516.38562,600.859455 L1516.38562,319.890964 L1438.44276,319.890964 L1438.44276,600.859455 Z M1306.64366,600.859455 L1384.58651,600.859455 L1384.58651,432.2253 L1306.64366,432.2253 L1306.64366,600.859455 Z M1475.24989,0.383906805 C1252.10321,0.383906805 1071.20932,181.277794 1071.20932,404.417491 C1071.20932,627.564169 1252.10321,808.458056 1475.24989,808.458056 C1698.38958,808.458056 1879.28347,627.564169 1879.28347,404.417491 C1879.28347,181.277794 1698.38958,0.383906805 1475.24989,0.383906805 L1475.24989,0.383906805 Z" id="Page-1" fill="#FFFFFF" opacity="0.109030797"></path>
            </g>
        </g>
    </g>
</svg>