<?xml version="1.0" encoding="UTF-8"?>
<svg width="1680px" height="1363px" viewBox="0 0 1680 1363" version="1.1" xmlns="http://www.w3.org/2000/svg" xmlns:xlink="http://www.w3.org/1999/xlink">
    <!-- Generator: Sketch 45.1 (43504) - http://www.bohemiancoding.com/sketch -->
    <title>Helium Features Page</title>
    <desc>Created with Sketch.</desc>
    <defs>
        <linearGradient x1="50%" y1="100%" x2="50%" y2="3.061617e-15%" id="linearGradient-1">
            <stop stop-color="#3674E8" offset="0%"></stop>
            <stop stop-color="#1767FF" offset="100%"></stop>
        </linearGradient>
        <polygon id="path-2" points="838.826328 419.411715 838.826328 -1.42108547e-14 0 -1.42108547e-14 0 419.411715 0 838.823429 838.826328 838.823429"></polygon>
    </defs>
    <g id="Page-1" stroke="none" stroke-width="1" fill="none" fill-rule="evenodd">
        <g id="Helium-Features-Page" transform="translate(0.000000, -3509.000000)">
            <g id="Billing" transform="translate(-221.000000, 3377.000000)">
                <rect id="Rectangle-4" fill="url(#linearGradient-1)" opacity="0.901041667" x="221" y="133" width="1690" height="1362.59517"></rect>
                <g id="billing-bg-icon" opacity="0.05">
                    <g>
                        <g id="Page-1" transform="translate(1390.423962, 911.187736)" fill="#FFFFFF">
                            <polygon id="Fill-1" points="348.16205 342.007342 298.532542 269.038583 277.377145 269.038583 277.377145 300.29011 264.973968 300.29011 264.973968 320.583163 277.377145 320.583163 277.377145 328.814617 264.973968 328.814617 264.973968 349.107671 277.377145 349.107671 277.377145 380.359198 299.635669 380.359198 299.635669 308.57756 348.750011 380.359198 370.414974 380.359198 370.414974 349.107671 383.624497 349.107671 383.624497 328.814617 370.414974 328.814617 370.414974 320.583163 383.624497 320.583163 383.624497 300.29011 370.414974 300.29011 370.414974 269.038583 348.16205 269.038583"></polygon>
                            <g id="Group-4" transform="translate(0.000000, 0.441213)">
                                <path d="M384.625151,221.721199 L384.625151,176.392206 L430.31812,221.721199 L384.625151,221.721199 Z M430.31812,330.309196 L430.31812,344.577049 L430.31812,472.125388 L218.282586,472.125388 L218.282586,336.457588 L218.282586,324.255997 L218.282586,176.392206 L364.068915,176.392206 L364.068915,241.829465 L430.31812,241.829465 L430.31812,330.309196 Z M324.300353,0.199894305 C145.325026,0.199894305 0.238650265,145.28627 0.238650265,324.255997 C0.238650265,503.231324 145.325026,648.3177 324.300353,648.3177 C503.27568,648.3177 648.362055,503.231324 648.362055,324.255997 C648.362055,145.28627 503.27568,0.199894305 324.300353,0.199894305 L324.300353,0.199894305 Z" id="Fill-2"></path>
                            </g>
                        </g>
                        <g id="Billing-bg-icons">
                            <mask id="mask-3" fill="white">
                                <use xlink:href="#path-2"></use>
                            </mask>
                            <g id="Clip-2"></g>
                            <path d="M587.119726,401.455035 L548.46978,401.455035 L548.46978,437.365496 L587.119726,437.365496 L587.119726,484.929644 L548.46978,484.929644 L548.46978,576.398044 L494.085905,576.398044 L342.174872,354.347468 L341.312442,354.347468 L341.312442,576.398044 L288.008418,576.398044 L288.008418,484.929644 L251.706602,484.929644 L251.706602,437.365496 L288.008418,437.365496 L288.008418,401.455035 L251.706602,401.455035 L251.706602,353.898134 L288.008418,353.898134 L288.008418,262.422486 L340.877603,262.422486 L494.085905,487.705366 L495.165756,487.705366 L495.165756,262.422486 L548.46978,262.422486 L548.46978,353.898134 L587.119726,353.898134 L587.119726,401.455035 Z M419.416788,-0.0028989272 C187.77801,-0.0028989272 0,187.775111 0,419.413889 C0,651.04542 187.77801,838.823429 419.416788,838.823429 C651.048319,838.823429 838.826328,651.04542 838.826328,419.413889 C838.826328,187.775111 651.048319,-0.0028989272 419.416788,-0.0028989272 L419.416788,-0.0028989272 Z" id="Fill-1" fill="#FFFFFF" mask="url(#mask-3)"></path>
                        </g>
                    </g>
                </g>
            </g>
        </g>
    </g>
</svg>