<?xml version="1.0" encoding="UTF-8"?>
<svg width="1680px" height="1290px" viewBox="0 0 1680 1290" version="1.1" xmlns="http://www.w3.org/2000/svg" xmlns:xlink="http://www.w3.org/1999/xlink">
    <!-- Generator: Sketch 45.1 (43504) - http://www.bohemiancoding.com/sketch -->
    <title>Helium Features Page</title>
    <desc>Created with Sketch.</desc>
    <defs>
        <linearGradient x1="50%" y1="100%" x2="50%" y2="3.061617e-15%" id="linearGradient-1">
            <stop stop-color="#9062BC" offset="0%"></stop>
            <stop stop-color="#3D1068" offset="100%"></stop>
        </linearGradient>
        <polygon id="path-2" points="730.467247 0.621961857 0 0.621961857 0 731.08984 730.467247 731.08984"></polygon>
    </defs>
    <g id="Page-1" stroke="none" stroke-width="1" fill="none" fill-rule="evenodd">
        <g id="Helium-Features-Page" transform="translate(0.000000, -1587.000000)">
            <rect id="Rectangle-6" fill="url(#linearGradient-1)" x="0" y="1587" width="1680" height="1289"></rect>
            <g id="Encounter-bg-icons" transform="translate(-96.000000, 1403.000000)" opacity="0.03">
                <g id="Page-1">
                    <path d="M437.434922,807.538132 L690.565078,807.538132 L690.565078,402.405298 L437.434922,402.405298 L437.434922,807.538132 Z M414.746938,826.459384 L713.262795,826.459384 L713.262795,383.016854 L414.746938,383.016854 L414.746938,826.459384 Z M475.520757,470.488716 L652.479243,470.488716 L652.479243,450.983474 L475.520757,450.983474 L475.520757,470.488716 Z M760.94552,353.564328 C760.94552,339.10086 749.217068,327.372408 734.7536,327.372408 L660.236568,327.372408 L660.236568,353.243134 L467.763432,353.243134 L467.763432,327.372408 L393.256133,327.372408 C378.792665,327.372408 367.05448,339.10086 367.05448,353.564328 L367.05448,855.911911 C367.05448,870.375379 378.792665,882.10383 393.256133,882.10383 L734.7536,882.10383 C749.217068,882.10383 760.94552,870.375379 760.94552,855.911911 L760.94552,353.564328 Z M481.496914,338.585002 L646.503086,338.585002 L646.503086,310.319921 C646.503086,301.589281 639.427083,294.513278 630.696443,294.513278 L595.258026,294.513278 L595.258026,277.14933 C595.258026,259.882713 581.26175,245.886437 564.004867,245.886437 C546.73825,245.886437 532.741974,259.882713 532.741974,277.14933 L532.741974,294.513278 L497.31329,294.513278 C488.572917,294.513278 481.496914,301.589281 481.496914,310.319921 L481.496914,338.585002 Z M1127.27227,563.995133 C1127.27227,875.086226 875.086226,1127.27227 564.004867,1127.27227 C252.913774,1127.27227 0.727734716,875.086226 0.727734716,563.995133 C0.727734716,252.913774 252.913774,0.727734716 564.004867,0.727734716 C875.086226,0.727734716 1127.27227,252.913774 1127.27227,563.995133 L1127.27227,563.995133 Z M564.004867,266.861385 C557.386321,266.861385 552.023353,272.224353 552.023353,278.833165 C552.023353,285.451711 557.386321,290.814679 564.004867,290.814679 C570.623412,290.814679 575.98638,285.451711 575.98638,278.833165 C575.98638,272.224353 570.623412,266.861385 564.004867,266.861385 L564.004867,266.861385 Z M475.520757,605.672502 L603.287879,605.672502 L603.287879,586.16726 L475.520757,586.16726 L475.520757,605.672502 Z M475.520757,515.543489 L652.479243,515.543489 L652.479243,496.038247 L475.520757,496.038247 L475.520757,515.543489 Z M475.520757,650.727275 L540.927557,650.727275 L540.927557,631.222033 L475.520757,631.222033 L475.520757,650.727275 Z M475.520757,560.607996 L652.479243,560.607996 L652.479243,541.102753 L475.520757,541.102753 L475.520757,560.607996 Z" fill="#FFFFFF"></path>
                    <g transform="translate(1104.000000, 878.480270)">
                        <polygon id="Fill-1" fill="#FFFFFF" points="215.601015 461.089988 514.389109 461.089988 514.389109 439.070436 215.601015 439.070436"></polygon>
                        <g id="Group-4" transform="translate(0.000000, 0.689174)">
                            <mask id="mask-3" fill="white">
                                <use xlink:href="#path-2"></use>
                            </mask>
                            <g id="Clip-3"></g>
                            <path d="M565.380561,425.681364 C565.380561,432.699347 559.694228,438.38568 552.676245,438.38568 L545.525728,438.38568 L545.525728,527.391626 L514.386585,527.391626 L514.386585,487.618849 L215.604802,487.618849 L215.604802,527.391626 L184.465659,527.391626 L184.465659,438.38568 L177.618077,438.38568 C170.701072,438.38568 165.090472,432.775081 165.090472,425.851765 L165.090472,325.940177 C165.090472,319.023172 170.701072,313.412573 177.618077,313.412573 L193.932362,313.412573 C200.849367,313.412573 206.459967,319.023172 206.459967,325.940177 L206.459967,353.500906 C206.857568,352.977082 207.293036,352.478502 207.791616,352.030411 L223.184476,338.158535 C225.077817,336.454529 227.558093,335.495236 230.139347,335.476303 L317.592754,334.8515 C321.480413,334.826256 325.058827,336.921553 326.863812,340.291699 L345.286017,374.718944 C347.078379,378.063846 350.618927,380.159143 354.481342,380.159143 C362.30715,380.159143 367.318191,372.011467 363.638799,365.252241 L350.126658,340.443166 C347.46967,335.564659 349.293588,329.505968 354.235207,326.817425 L363.361109,321.850561 C367.469659,319.616419 372.600612,320.361133 375.86978,323.668168 L424.364546,372.724625 C428.403673,376.80793 435.080855,376.858419 439.183093,372.831915 L517.680998,287.581094 C518.173266,287.101448 518.659224,286.798514 519.13887,286.577624 C521.322523,284.810506 524.061556,283.706057 527.090901,283.706057 L552.676245,283.706057 C559.694228,283.706057 565.380561,289.39239 565.380561,296.410373 L565.380561,425.681364 Z M392.537489,308.382597 L439.820518,284.280371 C440.539987,283.914325 441.373057,283.838591 442.143015,284.072103 L479.927784,295.539436 C482.18086,296.221039 482.887707,299.06105 481.227878,300.72719 L433.320048,348.704443 C432.127243,349.897248 430.196036,349.922492 428.965364,348.761243 L391.805398,313.418884 C390.246547,311.942078 390.618904,309.360823 392.537489,308.382597 L392.537489,308.382597 Z M489.053687,204.324593 C507.166646,204.324593 521.852658,219.010606 521.852658,237.117254 C521.852658,255.230213 507.166646,269.916226 489.053687,269.916226 C470.940727,269.916226 456.261026,255.230213 456.261026,237.117254 C456.261026,219.010606 470.940727,204.324593 489.053687,204.324593 L489.053687,204.324593 Z M365.235517,0.620068516 C163.519,0.620068516 -0.00252445425,164.141593 -0.00252445425,365.85811 C-0.00252445425,567.568315 163.519,731.08984 365.235517,731.08984 C566.952034,731.08984 730.467247,567.568315 730.467247,365.85811 C730.467247,164.141593 566.952034,0.620068516 365.235517,0.620068516 L365.235517,0.620068516 Z" id="Fill-2" fill="#FFFFFF" mask="url(#mask-3)"></path>
                        </g>
                    </g>
                </g>
            </g>
        </g>
    </g>
</svg>